M48
;DRILL file {KiCad 4.0.7} date 08/21/19 17:33:24
;FORMAT={2:4/ absolute / inch / suppress leading zeros}
FMAT,2
INCH,TZ
T1C0.030
T2C0.039
%
G90
G05
M72
T1
X65250Y-25750
X65250Y-26750
X65250Y-27750
X65250Y-28750
X65250Y-29750
X65250Y-30750
X65250Y-31750
X65250Y-32750
X65250Y-33750
X65250Y-34750
X65250Y-35750
X65250Y-36750
X65250Y-37750
X65250Y-38750
X65250Y-39750
X65250Y-40750
X65250Y-41750
X65250Y-42750
X65250Y-43750
X65250Y-44750
X65250Y-45750
X65250Y-46750
X65250Y-47750
X65250Y-48750
X65250Y-49750
X65250Y-50750
X66250Y-25750
X66250Y-26750
X66250Y-27750
X66250Y-28750
X66250Y-29750
X66250Y-30750
X66250Y-31750
X66250Y-32750
X66250Y-33750
X66250Y-34750
X66250Y-35750
X66250Y-36750
X66250Y-37750
X66250Y-38750
X66250Y-39750
X66250Y-40750
X66250Y-41750
X66250Y-42750
X66250Y-43750
X66250Y-44750
X66250Y-45750
X66250Y-46750
X66250Y-47750
X66250Y-48750
X66250Y-49750
X66250Y-50750
X67250Y-25750
X67250Y-26750
X67250Y-27750
X67250Y-28750
X67250Y-29750
X67250Y-30750
X67250Y-31750
X67250Y-32750
X67250Y-33750
X67250Y-34750
X67250Y-35750
X67250Y-36750
X67250Y-37750
X67250Y-38750
X67250Y-39750
X67250Y-40750
X67250Y-41750
X67250Y-42750
X67250Y-43750
X67250Y-44750
X67250Y-45750
X67250Y-46750
X67250Y-47750
X67250Y-48750
X67250Y-49750
X67250Y-50750
X68250Y-25750
X68250Y-26750
X68250Y-27750
X68250Y-28750
X68250Y-29750
X68250Y-30750
X68250Y-31750
X68250Y-32750
X68250Y-33750
X68250Y-34750
X68250Y-35750
X68250Y-36750
X68250Y-37750
X68250Y-38750
X68250Y-39750
X68250Y-40750
X68250Y-41750
X68250Y-42750
X68250Y-43750
X68250Y-44750
X68250Y-45750
X68250Y-46750
X68250Y-47750
X68250Y-48750
X68250Y-49750
X68250Y-50750
X69250Y-25750
X69250Y-26750
X69250Y-27750
X69250Y-28750
X69250Y-29750
X69250Y-30750
X69250Y-31750
X69250Y-32750
X69250Y-33750
X69250Y-34750
X69250Y-35750
X69250Y-36750
X69250Y-37750
X69250Y-38750
X69250Y-39750
X69250Y-40750
X69250Y-41750
X69250Y-42750
X69250Y-43750
X69250Y-44750
X69250Y-45750
X69250Y-46750
X69250Y-47750
X69250Y-48750
X69250Y-49750
X69250Y-50750
X70250Y-25750
X70250Y-26750
X70250Y-27750
X70250Y-28750
X70250Y-29750
X70250Y-30750
X70250Y-31750
X70250Y-32750
X70250Y-33750
X70250Y-34750
X70250Y-35750
X70250Y-36750
X70250Y-37750
X70250Y-38750
X70250Y-39750
X70250Y-40750
X70250Y-41750
X70250Y-42750
X70250Y-43750
X70250Y-44750
X70250Y-45750
X70250Y-46750
X70250Y-47750
X70250Y-48750
X70250Y-49750
X70250Y-50750
X71250Y-25750
X71250Y-26750
X71250Y-27750
X71250Y-28750
X71250Y-29750
X71250Y-30750
X71250Y-31750
X71250Y-32750
X71250Y-33750
X71250Y-34750
X71250Y-35750
X71250Y-36750
X71250Y-37750
X71250Y-38750
X71250Y-39750
X71250Y-40750
X71250Y-41750
X71250Y-42750
X71250Y-43750
X71250Y-44750
X71250Y-45750
X71250Y-46750
X71250Y-47750
X71250Y-48750
X71250Y-49750
X71250Y-50750
X72250Y-25750
X72250Y-26750
X72250Y-27750
X72250Y-28750
X72250Y-29750
X72250Y-30750
X72250Y-31750
X72250Y-32750
X72250Y-33750
X72250Y-34750
X72250Y-35750
X72250Y-36750
X72250Y-37750
X72250Y-38750
X72250Y-39750
X72250Y-40750
X72250Y-41750
X72250Y-42750
X72250Y-43750
X72250Y-44750
X72250Y-45750
X72250Y-46750
X72250Y-47750
X72250Y-48750
X72250Y-49750
X72250Y-50750
X73250Y-25750
X73250Y-26750
X73250Y-27750
X73250Y-28750
X73250Y-29750
X73250Y-30750
X73250Y-31750
X73250Y-32750
X73250Y-33750
X73250Y-34750
X73250Y-35750
X73250Y-36750
X73250Y-37750
X73250Y-38750
X73250Y-39750
X73250Y-40750
X73250Y-41750
X73250Y-42750
X73250Y-43750
X73250Y-44750
X73250Y-45750
X73250Y-46750
X73250Y-47750
X74250Y-25750
X74250Y-26750
X74250Y-27750
X74250Y-28750
X74250Y-29750
X74250Y-30750
X74250Y-31750
X74250Y-32750
X74250Y-33750
X74250Y-34750
X74250Y-35750
X74250Y-36750
X74250Y-37750
X74250Y-38750
X74250Y-39750
X74250Y-40750
X74250Y-41750
X74250Y-42750
X74250Y-43750
X74250Y-44750
X74250Y-45750
X74250Y-46750
X74250Y-47750
X75250Y-25750
X75250Y-26750
X75250Y-27750
X75250Y-28750
X75250Y-29750
X75250Y-30750
X75250Y-31750
X75250Y-32750
X75250Y-33750
X75250Y-34750
X75250Y-35750
X75250Y-36750
X75250Y-37750
X75250Y-38750
X75250Y-39750
X75250Y-40750
X75250Y-41750
X75250Y-42750
X75250Y-43750
X75250Y-44750
X75250Y-45750
X75250Y-46750
X75250Y-47750
X76250Y-25750
X76250Y-26750
X76250Y-27750
X76250Y-28750
X76250Y-29750
X76250Y-30750
X76250Y-31750
X76250Y-32750
X76250Y-33750
X76250Y-34750
X76250Y-35750
X76250Y-36750
X76250Y-37750
X76250Y-38750
X76250Y-39750
X76250Y-40750
X76250Y-41750
X76250Y-42750
X76250Y-43750
X76250Y-44750
X76250Y-45750
X76250Y-46750
X76250Y-47750
X77250Y-25750
X77250Y-26750
X77250Y-27750
X77250Y-28750
X77250Y-29750
X77250Y-30750
X77250Y-31750
X77250Y-32750
X77250Y-33750
X77250Y-34750
X77250Y-35750
X77250Y-36750
X77250Y-37750
X77250Y-38750
X77250Y-39750
X77250Y-40750
X77250Y-41750
X77250Y-42750
X77250Y-43750
X77250Y-44750
X77250Y-45750
X77250Y-46750
X77250Y-47750
X78250Y-25750
X78250Y-26750
X78250Y-27750
X78250Y-28750
X78250Y-29750
X78250Y-30750
X78250Y-31750
X78250Y-32750
X78250Y-33750
X78250Y-34750
X78250Y-35750
X78250Y-36750
X78250Y-37750
X78250Y-38750
X78250Y-39750
X78250Y-40750
X78250Y-41750
X78250Y-42750
X78250Y-43750
X78250Y-44750
X78250Y-45750
X78250Y-46750
X78250Y-47750
X79250Y-25750
X79250Y-26750
X79250Y-27750
X79250Y-28750
X79250Y-29750
X79250Y-30750
X79250Y-31750
X79250Y-32750
X79250Y-33750
X79250Y-34750
X79250Y-35750
X79250Y-36750
X79250Y-37750
X79250Y-38750
X79250Y-39750
X79250Y-40750
X79250Y-41750
X79250Y-42750
X79250Y-43750
X79250Y-44750
X79250Y-45750
X79250Y-46750
X79250Y-47750
X80250Y-25750
X80250Y-26750
X80250Y-27750
X80250Y-28750
X80250Y-29750
X80250Y-30750
X80250Y-31750
X80250Y-32750
X80250Y-33750
X80250Y-34750
X80250Y-35750
X80250Y-36750
X80250Y-37750
X80250Y-38750
X80250Y-39750
X80250Y-40750
X80250Y-41750
X80250Y-42750
X80250Y-43750
X80250Y-44750
X80250Y-45750
X80250Y-46750
X80250Y-47750
X81250Y-25750
X81250Y-26750
X81250Y-27750
X81250Y-28750
X81250Y-29750
X81250Y-30750
X81250Y-31750
X81250Y-32750
X81250Y-33750
X81250Y-34750
X81250Y-35750
X81250Y-36750
X81250Y-37750
X81250Y-38750
X81250Y-39750
X81250Y-40750
X81250Y-41750
X81250Y-42750
X81250Y-43750
X81250Y-44750
X81250Y-45750
X81250Y-46750
X81250Y-47750
X82250Y-25750
X82250Y-26750
X82250Y-27750
X82250Y-28750
X82250Y-29750
X82250Y-30750
X82250Y-31750
X82250Y-32750
X82250Y-33750
X82250Y-34750
X82250Y-35750
X82250Y-36750
X82250Y-37750
X82250Y-38750
X82250Y-39750
X82250Y-40750
X82250Y-41750
X82250Y-42750
X82250Y-43750
X82250Y-44750
X82250Y-45750
X82250Y-46750
X82250Y-47750
X83250Y-25750
X83250Y-26750
X83250Y-27750
X83250Y-28750
X83250Y-29750
X83250Y-30750
X83250Y-31750
X83250Y-32750
X83250Y-33750
X83250Y-34750
X83250Y-35750
X83250Y-36750
X83250Y-37750
X83250Y-38750
X83250Y-39750
X83250Y-40750
X83250Y-41750
X83250Y-42750
X83250Y-43750
X83250Y-44750
X83250Y-45750
X83250Y-46750
X83250Y-47750
X84250Y-25750
X84250Y-26750
X84250Y-27750
X84250Y-28750
X84250Y-29750
X84250Y-30750
X84250Y-31750
X84250Y-32750
X84250Y-33750
X84250Y-34750
X84250Y-35750
X84250Y-36750
X84250Y-37750
X84250Y-38750
X84250Y-39750
X84250Y-40750
X84250Y-41750
X84250Y-42750
X84250Y-43750
X84250Y-44750
X84250Y-45750
X84250Y-46750
X84250Y-47750
X85250Y-25750
X85250Y-26750
X85250Y-27750
X85250Y-28750
X85250Y-29750
X85250Y-30750
X85250Y-31750
X85250Y-32750
X85250Y-33750
X85250Y-34750
X85250Y-35750
X85250Y-36750
X85250Y-37750
X85250Y-38750
X85250Y-39750
X85250Y-40750
X85250Y-41750
X85250Y-42750
X85250Y-43750
X85250Y-44750
X85250Y-45750
X85250Y-46750
X85250Y-47750
X86250Y-25750
X86250Y-26750
X86250Y-27750
X86250Y-28750
X86250Y-29750
X86250Y-30750
X86250Y-31750
X86250Y-32750
X86250Y-33750
X86250Y-34750
X86250Y-35750
X86250Y-36750
X86250Y-37750
X86250Y-38750
X86250Y-39750
X86250Y-40750
X86250Y-41750
X86250Y-42750
X86250Y-43750
X86250Y-44750
X86250Y-45750
X86250Y-46750
X86250Y-47750
X87250Y-25750
X87250Y-26750
X87250Y-27750
X87250Y-28750
X87250Y-29750
X87250Y-30750
X87250Y-31750
X87250Y-32750
X87250Y-33750
X87250Y-34750
X87250Y-35750
X87250Y-36750
X87250Y-37750
X87250Y-38750
X87250Y-39750
X87250Y-40750
X87250Y-41750
X87250Y-42750
X87250Y-43750
X87250Y-44750
X87250Y-45750
X87250Y-46750
X87250Y-47750
X88250Y-25750
X88250Y-26750
X88250Y-27750
X88250Y-28750
X88250Y-29750
X88250Y-30750
X88250Y-31750
X88250Y-32750
X88250Y-33750
X88250Y-34750
X88250Y-35750
X88250Y-36750
X88250Y-37750
X88250Y-38750
X88250Y-39750
X88250Y-40750
X88250Y-41750
X88250Y-42750
X88250Y-43750
X88250Y-44750
X88250Y-45750
X88250Y-46750
X88250Y-47750
X89250Y-25750
X89250Y-26750
X89250Y-27750
X89250Y-28750
X89250Y-29750
X89250Y-30750
X89250Y-31750
X89250Y-32750
X89250Y-33750
X89250Y-34750
X89250Y-35750
X89250Y-36750
X89250Y-37750
X89250Y-38750
X89250Y-39750
X89250Y-40750
X89250Y-41750
X89250Y-42750
X89250Y-43750
X89250Y-44750
X89250Y-45750
X89250Y-46750
X89250Y-47750
X90250Y-25750
X90250Y-26750
X90250Y-27750
X90250Y-28750
X90250Y-29750
X90250Y-30750
X90250Y-31750
X90250Y-32750
X90250Y-33750
X90250Y-34750
X90250Y-35750
X90250Y-36750
X90250Y-37750
X90250Y-38750
X90250Y-39750
X90250Y-40750
X90250Y-41750
X90250Y-42750
X90250Y-43750
X90250Y-44750
X90250Y-45750
X90250Y-46750
X90250Y-47750
X91250Y-25750
X91250Y-26750
X91250Y-27750
X91250Y-28750
X91250Y-29750
X91250Y-30750
X91250Y-31750
X91250Y-32750
X91250Y-33750
X91250Y-34750
X91250Y-35750
X91250Y-36750
X91250Y-37750
X91250Y-38750
X91250Y-39750
X91250Y-40750
X91250Y-41750
X91250Y-42750
X91250Y-43750
X91250Y-44750
X91250Y-45750
X91250Y-46750
X91250Y-47750
X92250Y-25750
X92250Y-26750
X92250Y-27750
X92250Y-28750
X92250Y-29750
X92250Y-30750
X92250Y-31750
X92250Y-32750
X92250Y-33750
X92250Y-34750
X92250Y-35750
X92250Y-36750
X92250Y-37750
X92250Y-38750
X92250Y-39750
X92250Y-40750
X92250Y-41750
X92250Y-42750
X92250Y-43750
X92250Y-44750
X92250Y-45750
X92250Y-46750
X92250Y-47750
X93250Y-25750
X93250Y-26750
X93250Y-27750
X93250Y-28750
X93250Y-29750
X93250Y-30750
X93250Y-31750
X93250Y-32750
X93250Y-33750
X93250Y-34750
X93250Y-35750
X93250Y-36750
X93250Y-37750
X93250Y-38750
X93250Y-39750
X93250Y-40750
X93250Y-41750
X93250Y-42750
X93250Y-43750
X93250Y-44750
X93250Y-45750
X93250Y-46750
X93250Y-47750
X94250Y-25750
X94250Y-26750
X94250Y-27750
X94250Y-28750
X94250Y-29750
X94250Y-30750
X94250Y-31750
X94250Y-32750
X94250Y-33750
X94250Y-34750
X94250Y-35750
X94250Y-36750
X94250Y-37750
X94250Y-38750
X94250Y-39750
X94250Y-40750
X94250Y-41750
X94250Y-42750
X94250Y-43750
X94250Y-44750
X94250Y-45750
X94250Y-46750
X94250Y-47750
X95250Y-25750
X95250Y-26750
X95250Y-27750
X95250Y-28750
X95250Y-29750
X95250Y-30750
X95250Y-31750
X95250Y-32750
X95250Y-33750
X95250Y-34750
X95250Y-35750
X95250Y-36750
X95250Y-37750
X95250Y-38750
X95250Y-39750
X95250Y-40750
X95250Y-41750
X95250Y-42750
X95250Y-43750
X95250Y-44750
X95250Y-45750
X95250Y-46750
X95250Y-47750
X96250Y-25750
X96250Y-26750
X96250Y-27750
X96250Y-28750
X96250Y-29750
X96250Y-30750
X96250Y-31750
X96250Y-32750
X96250Y-33750
X96250Y-34750
X96250Y-35750
X96250Y-36750
X96250Y-37750
X96250Y-38750
X96250Y-39750
X96250Y-40750
X96250Y-41750
X96250Y-42750
X96250Y-43750
X96250Y-44750
X96250Y-45750
X96250Y-46750
X96250Y-47750
X97250Y-25750
X97250Y-26750
X97250Y-27750
X97250Y-28750
X97250Y-29750
X97250Y-30750
X97250Y-31750
X97250Y-32750
X97250Y-33750
X97250Y-34750
X97250Y-35750
X97250Y-36750
X97250Y-37750
X97250Y-38750
X97250Y-39750
X97250Y-40750
X97250Y-41750
X97250Y-42750
X97250Y-43750
X97250Y-44750
X97250Y-45750
X97250Y-46750
X97250Y-47750
X98250Y-25750
X98250Y-26750
X98250Y-27750
X98250Y-28750
X98250Y-29750
X98250Y-30750
X98250Y-31750
X98250Y-32750
X98250Y-33750
X98250Y-34750
X98250Y-35750
X98250Y-36750
X98250Y-37750
X98250Y-38750
X98250Y-39750
X98250Y-40750
X98250Y-41750
X98250Y-42750
X98250Y-43750
X98250Y-44750
X98250Y-45750
X98250Y-46750
X98250Y-47750
X99250Y-25750
X99250Y-26750
X99250Y-27750
X99250Y-28750
X99250Y-29750
X99250Y-30750
X99250Y-31750
X99250Y-32750
X99250Y-33750
X99250Y-34750
X99250Y-35750
X99250Y-36750
X99250Y-37750
X99250Y-38750
X99250Y-39750
X99250Y-40750
X99250Y-41750
X99250Y-42750
X99250Y-43750
X99250Y-44750
X99250Y-45750
X99250Y-46750
X99250Y-47750
X100250Y-25750
X100250Y-26750
X100250Y-27750
X100250Y-28750
X100250Y-29750
X100250Y-30750
X100250Y-31750
X100250Y-32750
X100250Y-33750
X100250Y-34750
X100250Y-35750
X100250Y-36750
X100250Y-37750
X100250Y-38750
X100250Y-39750
X100250Y-40750
X100250Y-41750
X100250Y-42750
X100250Y-43750
X100250Y-44750
X100250Y-45750
X100250Y-46750
X100250Y-47750
X100250Y-48750
X100250Y-49750
X100250Y-50750
X101250Y-25750
X101250Y-26750
X101250Y-27750
X101250Y-28750
X101250Y-29750
X101250Y-30750
X101250Y-31750
X101250Y-32750
X101250Y-33750
X101250Y-34750
X101250Y-35750
X101250Y-36750
X101250Y-37750
X101250Y-38750
X101250Y-39750
X101250Y-40750
X101250Y-41750
X101250Y-42750
X101250Y-43750
X101250Y-44750
X101250Y-45750
X101250Y-46750
X101250Y-47750
X101250Y-48750
X101250Y-49750
X101250Y-50750
X102250Y-25750
X102250Y-26750
X102250Y-27750
X102250Y-28750
X102250Y-29750
X102250Y-30750
X102250Y-31750
X102250Y-32750
X102250Y-33750
X102250Y-34750
X102250Y-35750
X102250Y-36750
X102250Y-37750
X102250Y-38750
X102250Y-39750
X102250Y-40750
X102250Y-41750
X102250Y-42750
X102250Y-43750
X102250Y-44750
X102250Y-45750
X102250Y-46750
X102250Y-47750
X102250Y-48750
X102250Y-49750
X102250Y-50750
T2
X74250Y-49750
X74250Y-50750
X75250Y-49750
X75250Y-50750
X76250Y-49750
X76250Y-50750
X77250Y-49750
X77250Y-50750
X78250Y-49750
X78250Y-50750
X79250Y-49750
X79250Y-50750
X80250Y-49750
X80250Y-50750
X81250Y-49750
X81250Y-50750
X82250Y-49750
X82250Y-50750
X83250Y-49750
X83250Y-50750
X84250Y-49750
X84250Y-50750
X85250Y-49750
X85250Y-50750
X86250Y-49750
X86250Y-50750
X87250Y-49750
X87250Y-50750
X88250Y-49750
X88250Y-50750
X89250Y-49750
X89250Y-50750
X90250Y-49750
X90250Y-50750
X91250Y-49750
X91250Y-50750
X92250Y-49750
X92250Y-50750
X93250Y-49750
X93250Y-50750
X94250Y-49750
X94250Y-50750
X95250Y-49750
X95250Y-50750
X96250Y-49750
X96250Y-50750
X97250Y-49750
X97250Y-50750
X98250Y-49750
X98250Y-50750
T0
M30
