G04 #@! TF.FileFunction,Copper,L1,Top,Signal*
%FSLAX46Y46*%
G04 Gerber Fmt 4.6, Leading zero omitted, Abs format (unit mm)*
G04 Created by KiCad (PCBNEW 4.0.7) date 08/21/19 17:34:07*
%MOMM*%
%LPD*%
G01*
G04 APERTURE LIST*
%ADD10C,0.100000*%
%ADD11C,1.524000*%
%ADD12R,1.778000X7.620000*%
%ADD13R,1.700000X1.700000*%
%ADD14O,1.700000X1.700000*%
%ADD15C,0.250000*%
G04 APERTURE END LIST*
D10*
D11*
X174625000Y-128905000D03*
X174625000Y-126365000D03*
X174625000Y-123825000D03*
X174625000Y-121285000D03*
X174625000Y-118745000D03*
X174625000Y-116205000D03*
X174625000Y-113665000D03*
X174625000Y-111125000D03*
X174625000Y-108585000D03*
X174625000Y-106045000D03*
X174625000Y-103505000D03*
X174625000Y-100965000D03*
X174625000Y-98425000D03*
X174625000Y-95885000D03*
X174625000Y-93345000D03*
X174625000Y-90805000D03*
X174625000Y-88265000D03*
X174625000Y-85725000D03*
X174625000Y-83185000D03*
X174625000Y-80645000D03*
X174625000Y-78105000D03*
X174625000Y-75565000D03*
X174625000Y-73025000D03*
X174625000Y-70485000D03*
X174625000Y-67945000D03*
X174625000Y-65405000D03*
X179705000Y-128905000D03*
X179705000Y-126365000D03*
X179705000Y-123825000D03*
X179705000Y-121285000D03*
X179705000Y-118745000D03*
X179705000Y-116205000D03*
X179705000Y-113665000D03*
X179705000Y-111125000D03*
X179705000Y-108585000D03*
X179705000Y-106045000D03*
X179705000Y-103505000D03*
X179705000Y-100965000D03*
X179705000Y-98425000D03*
X179705000Y-95885000D03*
X179705000Y-93345000D03*
X179705000Y-90805000D03*
X179705000Y-88265000D03*
X179705000Y-85725000D03*
X179705000Y-83185000D03*
X179705000Y-80645000D03*
X179705000Y-78105000D03*
X179705000Y-75565000D03*
X179705000Y-73025000D03*
X179705000Y-70485000D03*
X179705000Y-67945000D03*
X179705000Y-65405000D03*
X182245000Y-128905000D03*
X182245000Y-126365000D03*
X182245000Y-123825000D03*
X182245000Y-121285000D03*
X182245000Y-118745000D03*
X182245000Y-116205000D03*
X182245000Y-113665000D03*
X182245000Y-111125000D03*
X182245000Y-108585000D03*
X182245000Y-106045000D03*
X182245000Y-103505000D03*
X182245000Y-100965000D03*
X182245000Y-98425000D03*
X182245000Y-95885000D03*
X182245000Y-93345000D03*
X182245000Y-90805000D03*
X182245000Y-88265000D03*
X182245000Y-85725000D03*
X182245000Y-83185000D03*
X182245000Y-80645000D03*
X182245000Y-78105000D03*
X182245000Y-75565000D03*
X182245000Y-73025000D03*
X182245000Y-70485000D03*
X182245000Y-67945000D03*
X182245000Y-65405000D03*
X177165000Y-128905000D03*
X177165000Y-126365000D03*
X177165000Y-123825000D03*
X177165000Y-121285000D03*
X177165000Y-118745000D03*
X177165000Y-116205000D03*
X177165000Y-113665000D03*
X177165000Y-111125000D03*
X177165000Y-108585000D03*
X177165000Y-106045000D03*
X177165000Y-103505000D03*
X177165000Y-100965000D03*
X177165000Y-98425000D03*
X177165000Y-95885000D03*
X177165000Y-93345000D03*
X177165000Y-90805000D03*
X177165000Y-88265000D03*
X177165000Y-85725000D03*
X177165000Y-83185000D03*
X177165000Y-80645000D03*
X177165000Y-78105000D03*
X177165000Y-75565000D03*
X177165000Y-73025000D03*
X177165000Y-70485000D03*
X177165000Y-67945000D03*
X177165000Y-65405000D03*
X184785000Y-128905000D03*
X184785000Y-126365000D03*
X184785000Y-123825000D03*
X184785000Y-121285000D03*
X184785000Y-118745000D03*
X184785000Y-116205000D03*
X184785000Y-113665000D03*
X184785000Y-111125000D03*
X184785000Y-108585000D03*
X184785000Y-106045000D03*
X184785000Y-103505000D03*
X184785000Y-100965000D03*
X184785000Y-98425000D03*
X184785000Y-95885000D03*
X184785000Y-93345000D03*
X184785000Y-90805000D03*
X184785000Y-88265000D03*
X184785000Y-85725000D03*
X184785000Y-83185000D03*
X184785000Y-80645000D03*
X184785000Y-78105000D03*
X184785000Y-75565000D03*
X184785000Y-73025000D03*
X184785000Y-70485000D03*
X184785000Y-67945000D03*
X184785000Y-65405000D03*
X187325000Y-128905000D03*
X187325000Y-126365000D03*
X187325000Y-123825000D03*
X187325000Y-121285000D03*
X187325000Y-118745000D03*
X187325000Y-116205000D03*
X187325000Y-113665000D03*
X187325000Y-111125000D03*
X187325000Y-108585000D03*
X187325000Y-106045000D03*
X187325000Y-103505000D03*
X187325000Y-100965000D03*
X187325000Y-98425000D03*
X187325000Y-95885000D03*
X187325000Y-93345000D03*
X187325000Y-90805000D03*
X187325000Y-88265000D03*
X187325000Y-85725000D03*
X187325000Y-83185000D03*
X187325000Y-80645000D03*
X187325000Y-78105000D03*
X187325000Y-75565000D03*
X187325000Y-73025000D03*
X187325000Y-70485000D03*
X187325000Y-67945000D03*
X187325000Y-65405000D03*
X189865000Y-128905000D03*
X189865000Y-126365000D03*
X189865000Y-123825000D03*
X189865000Y-121285000D03*
X189865000Y-118745000D03*
X189865000Y-116205000D03*
X189865000Y-113665000D03*
X189865000Y-111125000D03*
X189865000Y-108585000D03*
X189865000Y-106045000D03*
X189865000Y-103505000D03*
X189865000Y-100965000D03*
X189865000Y-98425000D03*
X189865000Y-95885000D03*
X189865000Y-93345000D03*
X189865000Y-90805000D03*
X189865000Y-88265000D03*
X189865000Y-85725000D03*
X189865000Y-83185000D03*
X189865000Y-80645000D03*
X189865000Y-78105000D03*
X189865000Y-75565000D03*
X189865000Y-73025000D03*
X189865000Y-70485000D03*
X189865000Y-67945000D03*
X189865000Y-65405000D03*
X192405000Y-128905000D03*
X192405000Y-126365000D03*
X192405000Y-123825000D03*
X192405000Y-121285000D03*
X192405000Y-118745000D03*
X192405000Y-116205000D03*
X192405000Y-113665000D03*
X192405000Y-111125000D03*
X192405000Y-108585000D03*
X192405000Y-106045000D03*
X192405000Y-103505000D03*
X192405000Y-100965000D03*
X192405000Y-98425000D03*
X192405000Y-95885000D03*
X192405000Y-93345000D03*
X192405000Y-90805000D03*
X192405000Y-88265000D03*
X192405000Y-85725000D03*
X192405000Y-83185000D03*
X192405000Y-80645000D03*
X192405000Y-78105000D03*
X192405000Y-75565000D03*
X192405000Y-73025000D03*
X192405000Y-70485000D03*
X192405000Y-67945000D03*
X192405000Y-65405000D03*
X194945000Y-121285000D03*
X194945000Y-118745000D03*
X194945000Y-116205000D03*
X194945000Y-113665000D03*
X194945000Y-111125000D03*
X194945000Y-108585000D03*
X194945000Y-106045000D03*
X194945000Y-103505000D03*
X194945000Y-100965000D03*
X194945000Y-98425000D03*
X194945000Y-95885000D03*
X194945000Y-93345000D03*
X194945000Y-90805000D03*
X194945000Y-88265000D03*
X194945000Y-85725000D03*
X194945000Y-83185000D03*
X194945000Y-80645000D03*
X194945000Y-78105000D03*
X194945000Y-75565000D03*
X194945000Y-73025000D03*
X194945000Y-70485000D03*
X194945000Y-67945000D03*
X194945000Y-65405000D03*
X197485000Y-121285000D03*
X197485000Y-118745000D03*
X197485000Y-116205000D03*
X197485000Y-113665000D03*
X197485000Y-111125000D03*
X197485000Y-108585000D03*
X197485000Y-106045000D03*
X197485000Y-103505000D03*
X197485000Y-100965000D03*
X197485000Y-98425000D03*
X197485000Y-95885000D03*
X197485000Y-93345000D03*
X197485000Y-90805000D03*
X197485000Y-88265000D03*
X197485000Y-85725000D03*
X197485000Y-83185000D03*
X197485000Y-80645000D03*
X197485000Y-78105000D03*
X197485000Y-75565000D03*
X197485000Y-73025000D03*
X197485000Y-70485000D03*
X197485000Y-67945000D03*
X197485000Y-65405000D03*
X200025000Y-121285000D03*
X200025000Y-118745000D03*
X200025000Y-116205000D03*
X200025000Y-113665000D03*
X200025000Y-111125000D03*
X200025000Y-108585000D03*
X200025000Y-106045000D03*
X200025000Y-103505000D03*
X200025000Y-100965000D03*
X200025000Y-98425000D03*
X200025000Y-95885000D03*
X200025000Y-93345000D03*
X200025000Y-90805000D03*
X200025000Y-88265000D03*
X200025000Y-85725000D03*
X200025000Y-83185000D03*
X200025000Y-80645000D03*
X200025000Y-78105000D03*
X200025000Y-75565000D03*
X200025000Y-73025000D03*
X200025000Y-70485000D03*
X200025000Y-67945000D03*
X200025000Y-65405000D03*
X202565000Y-121285000D03*
X202565000Y-118745000D03*
X202565000Y-116205000D03*
X202565000Y-113665000D03*
X202565000Y-111125000D03*
X202565000Y-108585000D03*
X202565000Y-106045000D03*
X202565000Y-103505000D03*
X202565000Y-100965000D03*
X202565000Y-98425000D03*
X202565000Y-95885000D03*
X202565000Y-93345000D03*
X202565000Y-90805000D03*
X202565000Y-88265000D03*
X202565000Y-85725000D03*
X202565000Y-83185000D03*
X202565000Y-80645000D03*
X202565000Y-78105000D03*
X202565000Y-75565000D03*
X202565000Y-73025000D03*
X202565000Y-70485000D03*
X202565000Y-67945000D03*
X202565000Y-65405000D03*
X205105000Y-121285000D03*
X205105000Y-118745000D03*
X205105000Y-116205000D03*
X205105000Y-113665000D03*
X205105000Y-111125000D03*
X205105000Y-108585000D03*
X205105000Y-106045000D03*
X205105000Y-103505000D03*
X205105000Y-100965000D03*
X205105000Y-98425000D03*
X205105000Y-95885000D03*
X205105000Y-93345000D03*
X205105000Y-90805000D03*
X205105000Y-88265000D03*
X205105000Y-85725000D03*
X205105000Y-83185000D03*
X205105000Y-80645000D03*
X205105000Y-78105000D03*
X205105000Y-75565000D03*
X205105000Y-73025000D03*
X205105000Y-70485000D03*
X205105000Y-67945000D03*
X205105000Y-65405000D03*
X207645000Y-121285000D03*
X207645000Y-118745000D03*
X207645000Y-116205000D03*
X207645000Y-113665000D03*
X207645000Y-111125000D03*
X207645000Y-108585000D03*
X207645000Y-106045000D03*
X207645000Y-103505000D03*
X207645000Y-100965000D03*
X207645000Y-98425000D03*
X207645000Y-95885000D03*
X207645000Y-93345000D03*
X207645000Y-90805000D03*
X207645000Y-88265000D03*
X207645000Y-85725000D03*
X207645000Y-83185000D03*
X207645000Y-80645000D03*
X207645000Y-78105000D03*
X207645000Y-75565000D03*
X207645000Y-73025000D03*
X207645000Y-70485000D03*
X207645000Y-67945000D03*
X207645000Y-65405000D03*
X210185000Y-121285000D03*
X210185000Y-118745000D03*
X210185000Y-116205000D03*
X210185000Y-113665000D03*
X210185000Y-111125000D03*
X210185000Y-108585000D03*
X210185000Y-106045000D03*
X210185000Y-103505000D03*
X210185000Y-100965000D03*
X210185000Y-98425000D03*
X210185000Y-95885000D03*
X210185000Y-93345000D03*
X210185000Y-90805000D03*
X210185000Y-88265000D03*
X210185000Y-85725000D03*
X210185000Y-83185000D03*
X210185000Y-80645000D03*
X210185000Y-78105000D03*
X210185000Y-75565000D03*
X210185000Y-73025000D03*
X210185000Y-70485000D03*
X210185000Y-67945000D03*
X210185000Y-65405000D03*
X212725000Y-121285000D03*
X212725000Y-118745000D03*
X212725000Y-116205000D03*
X212725000Y-113665000D03*
X212725000Y-111125000D03*
X212725000Y-108585000D03*
X212725000Y-106045000D03*
X212725000Y-103505000D03*
X212725000Y-100965000D03*
X212725000Y-98425000D03*
X212725000Y-95885000D03*
X212725000Y-93345000D03*
X212725000Y-90805000D03*
X212725000Y-88265000D03*
X212725000Y-85725000D03*
X212725000Y-83185000D03*
X212725000Y-80645000D03*
X212725000Y-78105000D03*
X212725000Y-75565000D03*
X212725000Y-73025000D03*
X212725000Y-70485000D03*
X212725000Y-67945000D03*
X212725000Y-65405000D03*
X215265000Y-121285000D03*
X215265000Y-118745000D03*
X215265000Y-116205000D03*
X215265000Y-113665000D03*
X215265000Y-111125000D03*
X215265000Y-108585000D03*
X215265000Y-106045000D03*
X215265000Y-103505000D03*
X215265000Y-100965000D03*
X215265000Y-98425000D03*
X215265000Y-95885000D03*
X215265000Y-93345000D03*
X215265000Y-90805000D03*
X215265000Y-88265000D03*
X215265000Y-85725000D03*
X215265000Y-83185000D03*
X215265000Y-80645000D03*
X215265000Y-78105000D03*
X215265000Y-75565000D03*
X215265000Y-73025000D03*
X215265000Y-70485000D03*
X215265000Y-67945000D03*
X215265000Y-65405000D03*
X217805000Y-121285000D03*
X217805000Y-118745000D03*
X217805000Y-116205000D03*
X217805000Y-113665000D03*
X217805000Y-111125000D03*
X217805000Y-108585000D03*
X217805000Y-106045000D03*
X217805000Y-103505000D03*
X217805000Y-100965000D03*
X217805000Y-98425000D03*
X217805000Y-95885000D03*
X217805000Y-93345000D03*
X217805000Y-90805000D03*
X217805000Y-88265000D03*
X217805000Y-85725000D03*
X217805000Y-83185000D03*
X217805000Y-80645000D03*
X217805000Y-78105000D03*
X217805000Y-75565000D03*
X217805000Y-73025000D03*
X217805000Y-70485000D03*
X217805000Y-67945000D03*
X217805000Y-65405000D03*
X220345000Y-121285000D03*
X220345000Y-118745000D03*
X220345000Y-116205000D03*
X220345000Y-113665000D03*
X220345000Y-111125000D03*
X220345000Y-108585000D03*
X220345000Y-106045000D03*
X220345000Y-103505000D03*
X220345000Y-100965000D03*
X220345000Y-98425000D03*
X220345000Y-95885000D03*
X220345000Y-93345000D03*
X220345000Y-90805000D03*
X220345000Y-88265000D03*
X220345000Y-85725000D03*
X220345000Y-83185000D03*
X220345000Y-80645000D03*
X220345000Y-78105000D03*
X220345000Y-75565000D03*
X220345000Y-73025000D03*
X220345000Y-70485000D03*
X220345000Y-67945000D03*
X220345000Y-65405000D03*
X222885000Y-121285000D03*
X222885000Y-118745000D03*
X222885000Y-116205000D03*
X222885000Y-113665000D03*
X222885000Y-111125000D03*
X222885000Y-108585000D03*
X222885000Y-106045000D03*
X222885000Y-103505000D03*
X222885000Y-100965000D03*
X222885000Y-98425000D03*
X222885000Y-95885000D03*
X222885000Y-93345000D03*
X222885000Y-90805000D03*
X222885000Y-88265000D03*
X222885000Y-85725000D03*
X222885000Y-83185000D03*
X222885000Y-80645000D03*
X222885000Y-78105000D03*
X222885000Y-75565000D03*
X222885000Y-73025000D03*
X222885000Y-70485000D03*
X222885000Y-67945000D03*
X222885000Y-65405000D03*
X225425000Y-121285000D03*
X225425000Y-118745000D03*
X225425000Y-116205000D03*
X225425000Y-113665000D03*
X225425000Y-111125000D03*
X225425000Y-108585000D03*
X225425000Y-106045000D03*
X225425000Y-103505000D03*
X225425000Y-100965000D03*
X225425000Y-98425000D03*
X225425000Y-95885000D03*
X225425000Y-93345000D03*
X225425000Y-90805000D03*
X225425000Y-88265000D03*
X225425000Y-85725000D03*
X225425000Y-83185000D03*
X225425000Y-80645000D03*
X225425000Y-78105000D03*
X225425000Y-75565000D03*
X225425000Y-73025000D03*
X225425000Y-70485000D03*
X225425000Y-67945000D03*
X225425000Y-65405000D03*
X227965000Y-121285000D03*
X227965000Y-118745000D03*
X227965000Y-116205000D03*
X227965000Y-113665000D03*
X227965000Y-111125000D03*
X227965000Y-108585000D03*
X227965000Y-106045000D03*
X227965000Y-103505000D03*
X227965000Y-100965000D03*
X227965000Y-98425000D03*
X227965000Y-95885000D03*
X227965000Y-93345000D03*
X227965000Y-90805000D03*
X227965000Y-88265000D03*
X227965000Y-85725000D03*
X227965000Y-83185000D03*
X227965000Y-80645000D03*
X227965000Y-78105000D03*
X227965000Y-75565000D03*
X227965000Y-73025000D03*
X227965000Y-70485000D03*
X227965000Y-67945000D03*
X227965000Y-65405000D03*
X230505000Y-121285000D03*
X230505000Y-118745000D03*
X230505000Y-116205000D03*
X230505000Y-113665000D03*
X230505000Y-111125000D03*
X230505000Y-108585000D03*
X230505000Y-106045000D03*
X230505000Y-103505000D03*
X230505000Y-100965000D03*
X230505000Y-98425000D03*
X230505000Y-95885000D03*
X230505000Y-93345000D03*
X230505000Y-90805000D03*
X230505000Y-88265000D03*
X230505000Y-85725000D03*
X230505000Y-83185000D03*
X230505000Y-80645000D03*
X230505000Y-78105000D03*
X230505000Y-75565000D03*
X230505000Y-73025000D03*
X230505000Y-70485000D03*
X230505000Y-67945000D03*
X230505000Y-65405000D03*
X233045000Y-121285000D03*
X233045000Y-118745000D03*
X233045000Y-116205000D03*
X233045000Y-113665000D03*
X233045000Y-111125000D03*
X233045000Y-108585000D03*
X233045000Y-106045000D03*
X233045000Y-103505000D03*
X233045000Y-100965000D03*
X233045000Y-98425000D03*
X233045000Y-95885000D03*
X233045000Y-93345000D03*
X233045000Y-90805000D03*
X233045000Y-88265000D03*
X233045000Y-85725000D03*
X233045000Y-83185000D03*
X233045000Y-80645000D03*
X233045000Y-78105000D03*
X233045000Y-75565000D03*
X233045000Y-73025000D03*
X233045000Y-70485000D03*
X233045000Y-67945000D03*
X233045000Y-65405000D03*
X235585000Y-121285000D03*
X235585000Y-118745000D03*
X235585000Y-116205000D03*
X235585000Y-113665000D03*
X235585000Y-111125000D03*
X235585000Y-108585000D03*
X235585000Y-106045000D03*
X235585000Y-103505000D03*
X235585000Y-100965000D03*
X235585000Y-98425000D03*
X235585000Y-95885000D03*
X235585000Y-93345000D03*
X235585000Y-90805000D03*
X235585000Y-88265000D03*
X235585000Y-85725000D03*
X235585000Y-83185000D03*
X235585000Y-80645000D03*
X235585000Y-78105000D03*
X235585000Y-75565000D03*
X235585000Y-73025000D03*
X235585000Y-70485000D03*
X235585000Y-67945000D03*
X235585000Y-65405000D03*
X238125000Y-121285000D03*
X238125000Y-118745000D03*
X238125000Y-116205000D03*
X238125000Y-113665000D03*
X238125000Y-111125000D03*
X238125000Y-108585000D03*
X238125000Y-106045000D03*
X238125000Y-103505000D03*
X238125000Y-100965000D03*
X238125000Y-98425000D03*
X238125000Y-95885000D03*
X238125000Y-93345000D03*
X238125000Y-90805000D03*
X238125000Y-88265000D03*
X238125000Y-85725000D03*
X238125000Y-83185000D03*
X238125000Y-80645000D03*
X238125000Y-78105000D03*
X238125000Y-75565000D03*
X238125000Y-73025000D03*
X238125000Y-70485000D03*
X238125000Y-67945000D03*
X238125000Y-65405000D03*
X240665000Y-121285000D03*
X240665000Y-118745000D03*
X240665000Y-116205000D03*
X240665000Y-113665000D03*
X240665000Y-111125000D03*
X240665000Y-108585000D03*
X240665000Y-106045000D03*
X240665000Y-103505000D03*
X240665000Y-100965000D03*
X240665000Y-98425000D03*
X240665000Y-95885000D03*
X240665000Y-93345000D03*
X240665000Y-90805000D03*
X240665000Y-88265000D03*
X240665000Y-85725000D03*
X240665000Y-83185000D03*
X240665000Y-80645000D03*
X240665000Y-78105000D03*
X240665000Y-75565000D03*
X240665000Y-73025000D03*
X240665000Y-70485000D03*
X240665000Y-67945000D03*
X240665000Y-65405000D03*
X243205000Y-121285000D03*
X243205000Y-118745000D03*
X243205000Y-116205000D03*
X243205000Y-113665000D03*
X243205000Y-111125000D03*
X243205000Y-108585000D03*
X243205000Y-106045000D03*
X243205000Y-103505000D03*
X243205000Y-100965000D03*
X243205000Y-98425000D03*
X243205000Y-95885000D03*
X243205000Y-93345000D03*
X243205000Y-90805000D03*
X243205000Y-88265000D03*
X243205000Y-85725000D03*
X243205000Y-83185000D03*
X243205000Y-80645000D03*
X243205000Y-78105000D03*
X243205000Y-75565000D03*
X243205000Y-73025000D03*
X243205000Y-70485000D03*
X243205000Y-67945000D03*
X243205000Y-65405000D03*
X245745000Y-121285000D03*
X245745000Y-118745000D03*
X245745000Y-116205000D03*
X245745000Y-113665000D03*
X245745000Y-111125000D03*
X245745000Y-108585000D03*
X245745000Y-106045000D03*
X245745000Y-103505000D03*
X245745000Y-100965000D03*
X245745000Y-98425000D03*
X245745000Y-95885000D03*
X245745000Y-93345000D03*
X245745000Y-90805000D03*
X245745000Y-88265000D03*
X245745000Y-85725000D03*
X245745000Y-83185000D03*
X245745000Y-80645000D03*
X245745000Y-78105000D03*
X245745000Y-75565000D03*
X245745000Y-73025000D03*
X245745000Y-70485000D03*
X245745000Y-67945000D03*
X245745000Y-65405000D03*
X248285000Y-121285000D03*
X248285000Y-118745000D03*
X248285000Y-116205000D03*
X248285000Y-113665000D03*
X248285000Y-111125000D03*
X248285000Y-108585000D03*
X248285000Y-106045000D03*
X248285000Y-103505000D03*
X248285000Y-100965000D03*
X248285000Y-98425000D03*
X248285000Y-95885000D03*
X248285000Y-93345000D03*
X248285000Y-90805000D03*
X248285000Y-88265000D03*
X248285000Y-85725000D03*
X248285000Y-83185000D03*
X248285000Y-80645000D03*
X248285000Y-78105000D03*
X248285000Y-75565000D03*
X248285000Y-73025000D03*
X248285000Y-70485000D03*
X248285000Y-67945000D03*
X248285000Y-65405000D03*
X250825000Y-121285000D03*
X250825000Y-118745000D03*
X250825000Y-116205000D03*
X250825000Y-113665000D03*
X250825000Y-111125000D03*
X250825000Y-108585000D03*
X250825000Y-106045000D03*
X250825000Y-103505000D03*
X250825000Y-100965000D03*
X250825000Y-98425000D03*
X250825000Y-95885000D03*
X250825000Y-93345000D03*
X250825000Y-90805000D03*
X250825000Y-88265000D03*
X250825000Y-85725000D03*
X250825000Y-83185000D03*
X250825000Y-80645000D03*
X250825000Y-78105000D03*
X250825000Y-75565000D03*
X250825000Y-73025000D03*
X250825000Y-70485000D03*
X250825000Y-67945000D03*
X250825000Y-65405000D03*
X253365000Y-121285000D03*
X253365000Y-118745000D03*
X253365000Y-116205000D03*
X253365000Y-113665000D03*
X253365000Y-111125000D03*
X253365000Y-108585000D03*
X253365000Y-106045000D03*
X253365000Y-103505000D03*
X253365000Y-100965000D03*
X253365000Y-98425000D03*
X253365000Y-95885000D03*
X253365000Y-93345000D03*
X253365000Y-90805000D03*
X253365000Y-88265000D03*
X253365000Y-85725000D03*
X253365000Y-83185000D03*
X253365000Y-80645000D03*
X253365000Y-78105000D03*
X253365000Y-75565000D03*
X253365000Y-73025000D03*
X253365000Y-70485000D03*
X253365000Y-67945000D03*
X253365000Y-65405000D03*
X255905000Y-121285000D03*
X255905000Y-118745000D03*
X255905000Y-116205000D03*
X255905000Y-113665000D03*
X255905000Y-111125000D03*
X255905000Y-108585000D03*
X255905000Y-106045000D03*
X255905000Y-103505000D03*
X255905000Y-100965000D03*
X255905000Y-98425000D03*
X255905000Y-95885000D03*
X255905000Y-93345000D03*
X255905000Y-90805000D03*
X255905000Y-88265000D03*
X255905000Y-85725000D03*
X255905000Y-83185000D03*
X255905000Y-80645000D03*
X255905000Y-78105000D03*
X255905000Y-75565000D03*
X255905000Y-73025000D03*
X255905000Y-70485000D03*
X255905000Y-67945000D03*
X255905000Y-65405000D03*
X258445000Y-121285000D03*
X258445000Y-118745000D03*
X258445000Y-116205000D03*
X258445000Y-113665000D03*
X258445000Y-111125000D03*
X258445000Y-108585000D03*
X258445000Y-106045000D03*
X258445000Y-103505000D03*
X258445000Y-100965000D03*
X258445000Y-98425000D03*
X258445000Y-95885000D03*
X258445000Y-93345000D03*
X258445000Y-90805000D03*
X258445000Y-88265000D03*
X258445000Y-85725000D03*
X258445000Y-83185000D03*
X258445000Y-80645000D03*
X258445000Y-78105000D03*
X258445000Y-75565000D03*
X258445000Y-73025000D03*
X258445000Y-70485000D03*
X258445000Y-67945000D03*
X258445000Y-65405000D03*
X260985000Y-121285000D03*
X260985000Y-118745000D03*
X260985000Y-116205000D03*
X260985000Y-113665000D03*
X260985000Y-111125000D03*
X260985000Y-108585000D03*
X260985000Y-106045000D03*
X260985000Y-103505000D03*
X260985000Y-100965000D03*
X260985000Y-98425000D03*
X260985000Y-95885000D03*
X260985000Y-93345000D03*
X260985000Y-90805000D03*
X260985000Y-88265000D03*
X260985000Y-85725000D03*
X260985000Y-83185000D03*
X260985000Y-80645000D03*
X260985000Y-78105000D03*
X260985000Y-75565000D03*
X260985000Y-73025000D03*
X260985000Y-70485000D03*
X260985000Y-67945000D03*
X260985000Y-65405000D03*
X263525000Y-128905000D03*
X263525000Y-126365000D03*
X263525000Y-123825000D03*
X263525000Y-121285000D03*
X263525000Y-118745000D03*
X263525000Y-116205000D03*
X263525000Y-113665000D03*
X263525000Y-111125000D03*
X263525000Y-108585000D03*
X263525000Y-106045000D03*
X263525000Y-103505000D03*
X263525000Y-100965000D03*
X263525000Y-98425000D03*
X263525000Y-95885000D03*
X263525000Y-93345000D03*
X263525000Y-90805000D03*
X263525000Y-88265000D03*
X263525000Y-85725000D03*
X263525000Y-83185000D03*
X263525000Y-80645000D03*
X263525000Y-78105000D03*
X263525000Y-75565000D03*
X263525000Y-73025000D03*
X263525000Y-70485000D03*
X263525000Y-67945000D03*
X263525000Y-65405000D03*
X266065000Y-128905000D03*
X266065000Y-126365000D03*
X266065000Y-123825000D03*
X266065000Y-121285000D03*
X266065000Y-118745000D03*
X266065000Y-116205000D03*
X266065000Y-113665000D03*
X266065000Y-111125000D03*
X266065000Y-108585000D03*
X266065000Y-106045000D03*
X266065000Y-103505000D03*
X266065000Y-100965000D03*
X266065000Y-98425000D03*
X266065000Y-95885000D03*
X266065000Y-93345000D03*
X266065000Y-90805000D03*
X266065000Y-88265000D03*
X266065000Y-85725000D03*
X266065000Y-83185000D03*
X266065000Y-80645000D03*
X266065000Y-78105000D03*
X266065000Y-75565000D03*
X266065000Y-73025000D03*
X266065000Y-70485000D03*
X266065000Y-67945000D03*
X266065000Y-65405000D03*
X268605000Y-128905000D03*
X268605000Y-126365000D03*
X268605000Y-123825000D03*
X268605000Y-121285000D03*
X268605000Y-118745000D03*
X268605000Y-116205000D03*
X268605000Y-113665000D03*
X268605000Y-111125000D03*
X268605000Y-108585000D03*
X268605000Y-106045000D03*
X268605000Y-103505000D03*
X268605000Y-100965000D03*
X268605000Y-98425000D03*
X268605000Y-95885000D03*
X268605000Y-93345000D03*
X268605000Y-90805000D03*
X268605000Y-88265000D03*
X268605000Y-85725000D03*
X268605000Y-83185000D03*
X268605000Y-80645000D03*
X268605000Y-78105000D03*
X268605000Y-75565000D03*
X268605000Y-73025000D03*
X268605000Y-70485000D03*
X268605000Y-67945000D03*
X268605000Y-65405000D03*
D12*
X197485000Y-137160000D03*
X200025000Y-137160000D03*
X202565000Y-137160000D03*
X205105000Y-137160000D03*
X207645000Y-137160000D03*
X210185000Y-137160000D03*
X212725000Y-137160000D03*
X215265000Y-137160000D03*
X217805000Y-137160000D03*
X220345000Y-137160000D03*
X222885000Y-137160000D03*
X225425000Y-137160000D03*
X227965000Y-137160000D03*
X230505000Y-137160000D03*
X233045000Y-137160000D03*
X235585000Y-137160000D03*
X238125000Y-137160000D03*
X240665000Y-137160000D03*
X243205000Y-137160000D03*
X245745000Y-137160000D03*
X248285000Y-137160000D03*
X250825000Y-137160000D03*
X253365000Y-137160000D03*
X255905000Y-137160000D03*
X258445000Y-137160000D03*
D11*
X172085000Y-128905000D03*
X172085000Y-126365000D03*
X172085000Y-123825000D03*
X172085000Y-121285000D03*
X172085000Y-118745000D03*
X172085000Y-116205000D03*
X172085000Y-113665000D03*
X172085000Y-111125000D03*
X172085000Y-108585000D03*
X172085000Y-106045000D03*
X172085000Y-103505000D03*
X172085000Y-100965000D03*
X172085000Y-98425000D03*
X172085000Y-95885000D03*
X172085000Y-93345000D03*
X172085000Y-90805000D03*
X172085000Y-88265000D03*
X172085000Y-85725000D03*
X172085000Y-83185000D03*
X172085000Y-80645000D03*
X172085000Y-78105000D03*
X172085000Y-75565000D03*
X172085000Y-73025000D03*
X172085000Y-70485000D03*
X172085000Y-67945000D03*
X172085000Y-65405000D03*
X169545000Y-128905000D03*
X169545000Y-126365000D03*
X169545000Y-123825000D03*
X169545000Y-121285000D03*
X169545000Y-118745000D03*
X169545000Y-116205000D03*
X169545000Y-113665000D03*
X169545000Y-111125000D03*
X169545000Y-108585000D03*
X169545000Y-106045000D03*
X169545000Y-103505000D03*
X169545000Y-100965000D03*
X169545000Y-98425000D03*
X169545000Y-95885000D03*
X169545000Y-93345000D03*
X169545000Y-90805000D03*
X169545000Y-88265000D03*
X169545000Y-85725000D03*
X169545000Y-83185000D03*
X169545000Y-80645000D03*
X169545000Y-78105000D03*
X169545000Y-75565000D03*
X169545000Y-73025000D03*
X169545000Y-70485000D03*
X169545000Y-67945000D03*
X169545000Y-65405000D03*
X167005000Y-128905000D03*
X167005000Y-126365000D03*
X167005000Y-123825000D03*
X167005000Y-121285000D03*
X167005000Y-118745000D03*
X167005000Y-116205000D03*
X167005000Y-113665000D03*
X167005000Y-111125000D03*
X167005000Y-108585000D03*
X167005000Y-106045000D03*
X167005000Y-103505000D03*
X167005000Y-100965000D03*
X167005000Y-98425000D03*
X167005000Y-95885000D03*
X167005000Y-93345000D03*
X167005000Y-90805000D03*
X167005000Y-88265000D03*
X167005000Y-85725000D03*
X167005000Y-83185000D03*
X167005000Y-80645000D03*
X167005000Y-78105000D03*
X167005000Y-75565000D03*
X167005000Y-73025000D03*
X167005000Y-70485000D03*
X167005000Y-67945000D03*
X167005000Y-65405000D03*
X164465000Y-128905000D03*
X164465000Y-126365000D03*
X164465000Y-123825000D03*
X164465000Y-121285000D03*
X164465000Y-118745000D03*
X164465000Y-116205000D03*
X164465000Y-113665000D03*
X164465000Y-111125000D03*
X164465000Y-108585000D03*
X164465000Y-106045000D03*
X164465000Y-103505000D03*
X164465000Y-100965000D03*
X164465000Y-98425000D03*
X164465000Y-95885000D03*
X164465000Y-93345000D03*
X164465000Y-90805000D03*
X164465000Y-88265000D03*
X164465000Y-85725000D03*
X164465000Y-83185000D03*
X164465000Y-80645000D03*
X164465000Y-78105000D03*
X164465000Y-75565000D03*
X164465000Y-73025000D03*
X164465000Y-70485000D03*
X164465000Y-67945000D03*
X164465000Y-65405000D03*
X161925000Y-128905000D03*
X161925000Y-126365000D03*
X161925000Y-123825000D03*
X161925000Y-121285000D03*
X161925000Y-118745000D03*
X161925000Y-116205000D03*
X161925000Y-113665000D03*
X161925000Y-111125000D03*
X161925000Y-108585000D03*
X161925000Y-106045000D03*
X161925000Y-103505000D03*
X161925000Y-100965000D03*
X161925000Y-98425000D03*
X161925000Y-95885000D03*
X161925000Y-93345000D03*
X161925000Y-90805000D03*
X161925000Y-88265000D03*
X161925000Y-85725000D03*
X161925000Y-83185000D03*
X161925000Y-80645000D03*
X161925000Y-78105000D03*
X161925000Y-75565000D03*
X161925000Y-73025000D03*
X161925000Y-70485000D03*
X161925000Y-67945000D03*
X161925000Y-65405000D03*
X159385000Y-128905000D03*
X159385000Y-126365000D03*
X159385000Y-123825000D03*
X159385000Y-121285000D03*
X159385000Y-118745000D03*
X159385000Y-116205000D03*
X159385000Y-113665000D03*
X159385000Y-111125000D03*
X159385000Y-108585000D03*
X159385000Y-106045000D03*
X159385000Y-103505000D03*
X159385000Y-100965000D03*
X159385000Y-98425000D03*
X159385000Y-95885000D03*
X159385000Y-93345000D03*
X159385000Y-90805000D03*
X159385000Y-88265000D03*
X159385000Y-85725000D03*
X159385000Y-83185000D03*
X159385000Y-80645000D03*
X159385000Y-78105000D03*
X159385000Y-75565000D03*
X159385000Y-73025000D03*
X159385000Y-70485000D03*
X159385000Y-67945000D03*
X159385000Y-65405000D03*
X156845000Y-128905000D03*
X156845000Y-126365000D03*
X156845000Y-123825000D03*
X156845000Y-121285000D03*
X156845000Y-118745000D03*
X156845000Y-116205000D03*
X156845000Y-113665000D03*
X156845000Y-111125000D03*
X156845000Y-108585000D03*
X156845000Y-106045000D03*
X156845000Y-103505000D03*
X156845000Y-100965000D03*
X156845000Y-98425000D03*
X156845000Y-95885000D03*
X156845000Y-93345000D03*
X156845000Y-90805000D03*
X156845000Y-88265000D03*
X156845000Y-85725000D03*
X156845000Y-83185000D03*
X156845000Y-80645000D03*
X156845000Y-78105000D03*
X156845000Y-75565000D03*
X156845000Y-73025000D03*
X156845000Y-70485000D03*
X156845000Y-67945000D03*
X156845000Y-65405000D03*
X154305000Y-128905000D03*
X154305000Y-126365000D03*
X154305000Y-123825000D03*
X154305000Y-121285000D03*
X154305000Y-118745000D03*
X154305000Y-116205000D03*
X154305000Y-113665000D03*
X154305000Y-111125000D03*
X154305000Y-108585000D03*
X154305000Y-106045000D03*
X154305000Y-103505000D03*
X154305000Y-100965000D03*
X154305000Y-98425000D03*
X154305000Y-95885000D03*
X154305000Y-93345000D03*
X154305000Y-90805000D03*
X154305000Y-88265000D03*
X154305000Y-85725000D03*
X154305000Y-83185000D03*
X154305000Y-80645000D03*
X154305000Y-78105000D03*
X154305000Y-75565000D03*
X154305000Y-73025000D03*
X154305000Y-70485000D03*
X154305000Y-67945000D03*
X154305000Y-65405000D03*
X151765000Y-128905000D03*
X151765000Y-126365000D03*
X151765000Y-123825000D03*
X151765000Y-121285000D03*
X151765000Y-118745000D03*
X151765000Y-116205000D03*
X151765000Y-113665000D03*
X151765000Y-111125000D03*
X151765000Y-108585000D03*
X151765000Y-106045000D03*
X151765000Y-103505000D03*
X151765000Y-100965000D03*
X151765000Y-98425000D03*
X151765000Y-95885000D03*
X151765000Y-93345000D03*
X151765000Y-90805000D03*
X151765000Y-88265000D03*
X151765000Y-85725000D03*
X151765000Y-83185000D03*
X151765000Y-80645000D03*
X151765000Y-78105000D03*
X151765000Y-75565000D03*
X151765000Y-73025000D03*
X151765000Y-70485000D03*
X151765000Y-67945000D03*
X151765000Y-65405000D03*
X149225000Y-128905000D03*
X149225000Y-126365000D03*
X149225000Y-123825000D03*
X149225000Y-121285000D03*
X149225000Y-118745000D03*
X149225000Y-116205000D03*
X149225000Y-113665000D03*
X149225000Y-111125000D03*
X149225000Y-108585000D03*
X149225000Y-106045000D03*
X149225000Y-103505000D03*
X149225000Y-100965000D03*
X149225000Y-98425000D03*
X149225000Y-95885000D03*
X149225000Y-93345000D03*
X149225000Y-90805000D03*
X149225000Y-88265000D03*
X149225000Y-85725000D03*
X149225000Y-83185000D03*
X149225000Y-80645000D03*
X149225000Y-78105000D03*
X149225000Y-75565000D03*
X149225000Y-73025000D03*
X149225000Y-70485000D03*
X149225000Y-67945000D03*
X149225000Y-65405000D03*
X146685000Y-128905000D03*
X146685000Y-126365000D03*
X146685000Y-123825000D03*
X146685000Y-121285000D03*
X146685000Y-118745000D03*
X146685000Y-116205000D03*
X146685000Y-113665000D03*
X146685000Y-111125000D03*
X146685000Y-108585000D03*
X146685000Y-106045000D03*
X146685000Y-103505000D03*
X146685000Y-100965000D03*
X146685000Y-98425000D03*
X146685000Y-95885000D03*
X146685000Y-93345000D03*
X146685000Y-90805000D03*
X146685000Y-88265000D03*
X146685000Y-85725000D03*
X146685000Y-83185000D03*
X146685000Y-80645000D03*
X146685000Y-78105000D03*
X146685000Y-75565000D03*
X146685000Y-73025000D03*
X146685000Y-70485000D03*
X146685000Y-67945000D03*
X146685000Y-65405000D03*
X144145000Y-128905000D03*
X144145000Y-126365000D03*
X144145000Y-123825000D03*
X144145000Y-121285000D03*
X144145000Y-118745000D03*
X144145000Y-116205000D03*
X144145000Y-113665000D03*
X144145000Y-111125000D03*
X144145000Y-108585000D03*
X144145000Y-106045000D03*
X144145000Y-103505000D03*
X144145000Y-100965000D03*
X144145000Y-98425000D03*
X144145000Y-95885000D03*
X144145000Y-93345000D03*
X144145000Y-90805000D03*
X144145000Y-88265000D03*
X144145000Y-85725000D03*
X144145000Y-83185000D03*
X144145000Y-80645000D03*
X144145000Y-78105000D03*
X144145000Y-75565000D03*
X144145000Y-73025000D03*
X144145000Y-70485000D03*
X144145000Y-67945000D03*
X144145000Y-65405000D03*
X141605000Y-128905000D03*
X141605000Y-126365000D03*
X141605000Y-123825000D03*
X141605000Y-121285000D03*
X141605000Y-118745000D03*
X141605000Y-116205000D03*
X141605000Y-113665000D03*
X141605000Y-111125000D03*
X141605000Y-108585000D03*
X141605000Y-106045000D03*
X141605000Y-103505000D03*
X141605000Y-100965000D03*
X141605000Y-98425000D03*
X141605000Y-95885000D03*
X141605000Y-93345000D03*
X141605000Y-90805000D03*
X141605000Y-88265000D03*
X141605000Y-85725000D03*
X141605000Y-83185000D03*
X141605000Y-80645000D03*
X141605000Y-78105000D03*
X141605000Y-75565000D03*
X141605000Y-73025000D03*
X141605000Y-70485000D03*
X141605000Y-67945000D03*
X141605000Y-65405000D03*
X139065000Y-128905000D03*
X139065000Y-126365000D03*
X139065000Y-123825000D03*
X139065000Y-121285000D03*
X139065000Y-118745000D03*
X139065000Y-116205000D03*
X139065000Y-113665000D03*
X139065000Y-111125000D03*
X139065000Y-108585000D03*
X139065000Y-106045000D03*
X139065000Y-103505000D03*
X139065000Y-100965000D03*
X139065000Y-98425000D03*
X139065000Y-95885000D03*
X139065000Y-93345000D03*
X139065000Y-90805000D03*
X139065000Y-88265000D03*
X139065000Y-85725000D03*
X139065000Y-83185000D03*
X139065000Y-80645000D03*
X139065000Y-78105000D03*
X139065000Y-75565000D03*
X139065000Y-73025000D03*
X139065000Y-70485000D03*
X139065000Y-67945000D03*
X139065000Y-65405000D03*
X136525000Y-128905000D03*
X136525000Y-126365000D03*
X136525000Y-123825000D03*
X136525000Y-121285000D03*
X136525000Y-118745000D03*
X136525000Y-116205000D03*
X136525000Y-113665000D03*
X136525000Y-111125000D03*
X136525000Y-108585000D03*
X136525000Y-106045000D03*
X136525000Y-103505000D03*
X136525000Y-100965000D03*
X136525000Y-98425000D03*
X136525000Y-95885000D03*
X136525000Y-93345000D03*
X136525000Y-90805000D03*
X136525000Y-88265000D03*
X136525000Y-85725000D03*
X136525000Y-83185000D03*
X136525000Y-80645000D03*
X136525000Y-78105000D03*
X136525000Y-75565000D03*
X136525000Y-73025000D03*
X136525000Y-70485000D03*
X136525000Y-67945000D03*
X136525000Y-65405000D03*
X133985000Y-128905000D03*
X133985000Y-126365000D03*
X133985000Y-123825000D03*
X133985000Y-121285000D03*
X133985000Y-118745000D03*
X133985000Y-116205000D03*
X133985000Y-113665000D03*
X133985000Y-111125000D03*
X133985000Y-108585000D03*
X133985000Y-106045000D03*
X133985000Y-103505000D03*
X133985000Y-100965000D03*
X133985000Y-98425000D03*
X133985000Y-95885000D03*
X133985000Y-93345000D03*
X133985000Y-90805000D03*
X133985000Y-88265000D03*
X133985000Y-85725000D03*
X133985000Y-83185000D03*
X133985000Y-80645000D03*
X133985000Y-78105000D03*
X133985000Y-75565000D03*
X133985000Y-73025000D03*
X133985000Y-70485000D03*
X133985000Y-67945000D03*
X133985000Y-65405000D03*
X131445000Y-128905000D03*
X131445000Y-126365000D03*
X131445000Y-123825000D03*
X131445000Y-121285000D03*
X131445000Y-118745000D03*
X131445000Y-116205000D03*
X131445000Y-113665000D03*
X131445000Y-111125000D03*
X131445000Y-108585000D03*
X131445000Y-106045000D03*
X131445000Y-103505000D03*
X131445000Y-100965000D03*
X131445000Y-98425000D03*
X131445000Y-95885000D03*
X131445000Y-93345000D03*
X131445000Y-90805000D03*
X131445000Y-88265000D03*
X131445000Y-85725000D03*
X131445000Y-83185000D03*
X131445000Y-80645000D03*
X131445000Y-78105000D03*
X131445000Y-75565000D03*
X131445000Y-73025000D03*
X131445000Y-70485000D03*
X131445000Y-67945000D03*
X131445000Y-65405000D03*
X128905000Y-128905000D03*
X128905000Y-126365000D03*
X128905000Y-123825000D03*
X128905000Y-121285000D03*
X128905000Y-118745000D03*
X128905000Y-116205000D03*
X128905000Y-113665000D03*
X128905000Y-111125000D03*
X128905000Y-108585000D03*
X128905000Y-106045000D03*
X128905000Y-103505000D03*
X128905000Y-100965000D03*
X128905000Y-98425000D03*
X128905000Y-95885000D03*
X128905000Y-93345000D03*
X128905000Y-90805000D03*
X128905000Y-88265000D03*
X128905000Y-85725000D03*
X128905000Y-83185000D03*
X128905000Y-80645000D03*
X128905000Y-78105000D03*
X128905000Y-75565000D03*
X128905000Y-73025000D03*
X128905000Y-70485000D03*
X128905000Y-67945000D03*
X128905000Y-65405000D03*
X126365000Y-128905000D03*
X126365000Y-126365000D03*
X126365000Y-123825000D03*
X126365000Y-121285000D03*
X126365000Y-118745000D03*
X126365000Y-116205000D03*
X126365000Y-113665000D03*
X126365000Y-111125000D03*
X126365000Y-108585000D03*
X126365000Y-106045000D03*
X126365000Y-103505000D03*
X126365000Y-100965000D03*
X126365000Y-98425000D03*
X126365000Y-95885000D03*
X126365000Y-93345000D03*
X126365000Y-90805000D03*
X126365000Y-88265000D03*
X126365000Y-85725000D03*
X126365000Y-83185000D03*
X126365000Y-80645000D03*
X126365000Y-78105000D03*
X126365000Y-75565000D03*
X126365000Y-73025000D03*
X126365000Y-70485000D03*
X126365000Y-67945000D03*
X126365000Y-65405000D03*
X123825000Y-128905000D03*
X123825000Y-126365000D03*
X123825000Y-123825000D03*
X123825000Y-121285000D03*
X123825000Y-118745000D03*
X123825000Y-116205000D03*
X123825000Y-113665000D03*
X123825000Y-111125000D03*
X123825000Y-108585000D03*
X123825000Y-106045000D03*
X123825000Y-103505000D03*
X123825000Y-100965000D03*
X123825000Y-98425000D03*
X123825000Y-95885000D03*
X123825000Y-93345000D03*
X123825000Y-90805000D03*
X123825000Y-88265000D03*
X123825000Y-85725000D03*
X123825000Y-83185000D03*
X123825000Y-80645000D03*
X123825000Y-78105000D03*
X123825000Y-75565000D03*
X123825000Y-73025000D03*
X123825000Y-70485000D03*
X123825000Y-67945000D03*
X123825000Y-65405000D03*
X121285000Y-128905000D03*
X121285000Y-126365000D03*
X121285000Y-123825000D03*
X121285000Y-121285000D03*
X121285000Y-118745000D03*
X121285000Y-116205000D03*
X121285000Y-113665000D03*
X121285000Y-111125000D03*
X121285000Y-108585000D03*
X121285000Y-106045000D03*
X121285000Y-103505000D03*
X121285000Y-100965000D03*
X121285000Y-98425000D03*
X121285000Y-95885000D03*
X121285000Y-93345000D03*
X121285000Y-90805000D03*
X121285000Y-88265000D03*
X121285000Y-85725000D03*
X121285000Y-83185000D03*
X121285000Y-80645000D03*
X121285000Y-78105000D03*
X121285000Y-75565000D03*
X121285000Y-73025000D03*
X121285000Y-70485000D03*
X121285000Y-67945000D03*
X121285000Y-65405000D03*
X118745000Y-128905000D03*
X118745000Y-126365000D03*
X118745000Y-123825000D03*
X118745000Y-121285000D03*
X118745000Y-118745000D03*
X118745000Y-116205000D03*
X118745000Y-113665000D03*
X118745000Y-111125000D03*
X118745000Y-108585000D03*
X118745000Y-106045000D03*
X118745000Y-103505000D03*
X118745000Y-100965000D03*
X118745000Y-98425000D03*
X118745000Y-95885000D03*
X118745000Y-93345000D03*
X118745000Y-90805000D03*
X118745000Y-88265000D03*
X118745000Y-85725000D03*
X118745000Y-83185000D03*
X118745000Y-80645000D03*
X118745000Y-78105000D03*
X118745000Y-75565000D03*
X118745000Y-73025000D03*
X118745000Y-70485000D03*
X118745000Y-67945000D03*
X118745000Y-65405000D03*
X103505000Y-128905000D03*
X103505000Y-126365000D03*
X103505000Y-123825000D03*
X103505000Y-121285000D03*
X103505000Y-118745000D03*
X103505000Y-116205000D03*
X103505000Y-113665000D03*
X103505000Y-111125000D03*
X103505000Y-108585000D03*
X103505000Y-106045000D03*
X103505000Y-103505000D03*
X103505000Y-100965000D03*
X103505000Y-98425000D03*
X103505000Y-95885000D03*
X103505000Y-93345000D03*
X103505000Y-90805000D03*
X103505000Y-88265000D03*
X103505000Y-85725000D03*
X103505000Y-83185000D03*
X103505000Y-80645000D03*
X103505000Y-78105000D03*
X103505000Y-75565000D03*
X103505000Y-73025000D03*
X103505000Y-70485000D03*
X103505000Y-67945000D03*
X103505000Y-65405000D03*
X100965000Y-128905000D03*
X100965000Y-126365000D03*
X100965000Y-123825000D03*
X100965000Y-121285000D03*
X100965000Y-118745000D03*
X100965000Y-116205000D03*
X100965000Y-113665000D03*
X100965000Y-111125000D03*
X100965000Y-108585000D03*
X100965000Y-106045000D03*
X100965000Y-103505000D03*
X100965000Y-100965000D03*
X100965000Y-98425000D03*
X100965000Y-95885000D03*
X100965000Y-93345000D03*
X100965000Y-90805000D03*
X100965000Y-88265000D03*
X100965000Y-85725000D03*
X100965000Y-83185000D03*
X100965000Y-80645000D03*
X100965000Y-78105000D03*
X100965000Y-75565000D03*
X100965000Y-73025000D03*
X100965000Y-70485000D03*
X100965000Y-67945000D03*
X100965000Y-65405000D03*
X98425000Y-128905000D03*
X98425000Y-126365000D03*
X98425000Y-123825000D03*
X98425000Y-121285000D03*
X98425000Y-118745000D03*
X98425000Y-116205000D03*
X98425000Y-113665000D03*
X98425000Y-111125000D03*
X98425000Y-108585000D03*
X98425000Y-106045000D03*
X98425000Y-103505000D03*
X98425000Y-100965000D03*
X98425000Y-98425000D03*
X98425000Y-95885000D03*
X98425000Y-93345000D03*
X98425000Y-90805000D03*
X98425000Y-88265000D03*
X98425000Y-85725000D03*
X98425000Y-83185000D03*
X98425000Y-80645000D03*
X98425000Y-78105000D03*
X98425000Y-75565000D03*
X98425000Y-73025000D03*
X98425000Y-70485000D03*
X98425000Y-67945000D03*
X98425000Y-65405000D03*
X95885000Y-128905000D03*
X95885000Y-126365000D03*
X95885000Y-123825000D03*
X95885000Y-121285000D03*
X95885000Y-118745000D03*
X95885000Y-116205000D03*
X95885000Y-113665000D03*
X95885000Y-111125000D03*
X95885000Y-108585000D03*
X95885000Y-106045000D03*
X95885000Y-103505000D03*
X95885000Y-100965000D03*
X95885000Y-98425000D03*
X95885000Y-95885000D03*
X95885000Y-93345000D03*
X95885000Y-90805000D03*
X95885000Y-88265000D03*
X95885000Y-85725000D03*
X95885000Y-83185000D03*
X95885000Y-80645000D03*
X95885000Y-78105000D03*
X95885000Y-75565000D03*
X95885000Y-73025000D03*
X95885000Y-70485000D03*
X95885000Y-67945000D03*
X95885000Y-65405000D03*
X93345000Y-128905000D03*
X93345000Y-126365000D03*
X93345000Y-123825000D03*
X93345000Y-121285000D03*
X93345000Y-118745000D03*
X93345000Y-116205000D03*
X93345000Y-113665000D03*
X93345000Y-111125000D03*
X93345000Y-108585000D03*
X93345000Y-106045000D03*
X93345000Y-103505000D03*
X93345000Y-100965000D03*
X93345000Y-98425000D03*
X93345000Y-95885000D03*
X93345000Y-93345000D03*
X93345000Y-90805000D03*
X93345000Y-88265000D03*
X93345000Y-85725000D03*
X93345000Y-83185000D03*
X93345000Y-80645000D03*
X93345000Y-78105000D03*
X93345000Y-75565000D03*
X93345000Y-73025000D03*
X93345000Y-70485000D03*
X93345000Y-67945000D03*
X93345000Y-65405000D03*
X90805000Y-128905000D03*
X90805000Y-126365000D03*
X90805000Y-123825000D03*
X90805000Y-121285000D03*
X90805000Y-118745000D03*
X90805000Y-116205000D03*
X90805000Y-113665000D03*
X90805000Y-111125000D03*
X90805000Y-108585000D03*
X90805000Y-106045000D03*
X90805000Y-103505000D03*
X90805000Y-100965000D03*
X90805000Y-98425000D03*
X90805000Y-95885000D03*
X90805000Y-93345000D03*
X90805000Y-90805000D03*
X90805000Y-88265000D03*
X90805000Y-85725000D03*
X90805000Y-83185000D03*
X90805000Y-80645000D03*
X90805000Y-78105000D03*
X90805000Y-75565000D03*
X90805000Y-73025000D03*
X90805000Y-70485000D03*
X90805000Y-67945000D03*
X90805000Y-65405000D03*
X88265000Y-128905000D03*
X88265000Y-126365000D03*
X88265000Y-123825000D03*
X88265000Y-121285000D03*
X88265000Y-118745000D03*
X88265000Y-116205000D03*
X88265000Y-113665000D03*
X88265000Y-111125000D03*
X88265000Y-108585000D03*
X88265000Y-106045000D03*
X88265000Y-103505000D03*
X88265000Y-100965000D03*
X88265000Y-98425000D03*
X88265000Y-95885000D03*
X88265000Y-93345000D03*
X88265000Y-90805000D03*
X88265000Y-88265000D03*
X88265000Y-85725000D03*
X88265000Y-83185000D03*
X88265000Y-80645000D03*
X88265000Y-78105000D03*
X88265000Y-75565000D03*
X88265000Y-73025000D03*
X88265000Y-70485000D03*
X88265000Y-67945000D03*
X88265000Y-65405000D03*
X85725000Y-128905000D03*
X85725000Y-126365000D03*
X85725000Y-123825000D03*
X85725000Y-121285000D03*
X85725000Y-118745000D03*
X85725000Y-116205000D03*
X85725000Y-113665000D03*
X85725000Y-111125000D03*
X85725000Y-108585000D03*
X85725000Y-106045000D03*
X85725000Y-103505000D03*
X85725000Y-100965000D03*
X85725000Y-98425000D03*
X85725000Y-95885000D03*
X85725000Y-93345000D03*
X85725000Y-90805000D03*
X85725000Y-88265000D03*
X85725000Y-85725000D03*
X85725000Y-83185000D03*
X85725000Y-80645000D03*
X85725000Y-78105000D03*
X85725000Y-75565000D03*
X85725000Y-73025000D03*
X85725000Y-70485000D03*
X85725000Y-67945000D03*
X85725000Y-65405000D03*
X83185000Y-128905000D03*
X83185000Y-126365000D03*
X83185000Y-123825000D03*
X83185000Y-121285000D03*
X83185000Y-118745000D03*
X83185000Y-116205000D03*
X83185000Y-113665000D03*
X83185000Y-111125000D03*
X83185000Y-108585000D03*
X83185000Y-106045000D03*
X83185000Y-103505000D03*
X83185000Y-100965000D03*
X83185000Y-98425000D03*
X83185000Y-95885000D03*
X83185000Y-93345000D03*
X83185000Y-90805000D03*
X83185000Y-88265000D03*
X83185000Y-85725000D03*
X83185000Y-83185000D03*
X83185000Y-80645000D03*
X83185000Y-78105000D03*
X83185000Y-75565000D03*
X83185000Y-73025000D03*
X83185000Y-70485000D03*
X83185000Y-67945000D03*
X83185000Y-65405000D03*
X80645000Y-128905000D03*
X80645000Y-126365000D03*
X80645000Y-123825000D03*
X80645000Y-121285000D03*
X80645000Y-118745000D03*
X80645000Y-116205000D03*
X80645000Y-113665000D03*
X80645000Y-111125000D03*
X80645000Y-108585000D03*
X80645000Y-106045000D03*
X80645000Y-103505000D03*
X80645000Y-100965000D03*
X80645000Y-98425000D03*
X80645000Y-95885000D03*
X80645000Y-93345000D03*
X80645000Y-90805000D03*
X80645000Y-88265000D03*
X80645000Y-85725000D03*
X80645000Y-83185000D03*
X80645000Y-80645000D03*
X80645000Y-78105000D03*
X80645000Y-75565000D03*
X80645000Y-73025000D03*
X80645000Y-70485000D03*
X80645000Y-67945000D03*
X80645000Y-65405000D03*
X78105000Y-128905000D03*
X78105000Y-126365000D03*
X78105000Y-123825000D03*
X78105000Y-121285000D03*
X78105000Y-118745000D03*
X78105000Y-116205000D03*
X78105000Y-113665000D03*
X78105000Y-111125000D03*
X78105000Y-108585000D03*
X78105000Y-106045000D03*
X78105000Y-103505000D03*
X78105000Y-100965000D03*
X78105000Y-98425000D03*
X78105000Y-95885000D03*
X78105000Y-93345000D03*
X78105000Y-90805000D03*
X78105000Y-88265000D03*
X78105000Y-85725000D03*
X78105000Y-83185000D03*
X78105000Y-80645000D03*
X78105000Y-78105000D03*
X78105000Y-75565000D03*
X78105000Y-73025000D03*
X78105000Y-70485000D03*
X78105000Y-67945000D03*
X78105000Y-65405000D03*
X75565000Y-128905000D03*
X75565000Y-126365000D03*
X75565000Y-123825000D03*
X75565000Y-121285000D03*
X75565000Y-118745000D03*
X75565000Y-116205000D03*
X75565000Y-113665000D03*
X75565000Y-111125000D03*
X75565000Y-108585000D03*
X75565000Y-106045000D03*
X75565000Y-103505000D03*
X75565000Y-100965000D03*
X75565000Y-98425000D03*
X75565000Y-95885000D03*
X75565000Y-93345000D03*
X75565000Y-90805000D03*
X75565000Y-88265000D03*
X75565000Y-85725000D03*
X75565000Y-83185000D03*
X75565000Y-80645000D03*
X75565000Y-78105000D03*
X75565000Y-75565000D03*
X75565000Y-73025000D03*
X75565000Y-70485000D03*
X75565000Y-67945000D03*
X75565000Y-65405000D03*
X116205000Y-128905000D03*
X116205000Y-126365000D03*
X116205000Y-123825000D03*
X116205000Y-121285000D03*
X116205000Y-118745000D03*
X116205000Y-116205000D03*
X116205000Y-113665000D03*
X116205000Y-111125000D03*
X116205000Y-108585000D03*
X116205000Y-106045000D03*
X116205000Y-103505000D03*
X116205000Y-100965000D03*
X116205000Y-98425000D03*
X116205000Y-95885000D03*
X116205000Y-93345000D03*
X116205000Y-90805000D03*
X116205000Y-88265000D03*
X116205000Y-85725000D03*
X116205000Y-83185000D03*
X116205000Y-80645000D03*
X116205000Y-78105000D03*
X116205000Y-75565000D03*
X116205000Y-73025000D03*
X116205000Y-70485000D03*
X116205000Y-67945000D03*
X116205000Y-65405000D03*
X113665000Y-128905000D03*
X113665000Y-126365000D03*
X113665000Y-123825000D03*
X113665000Y-121285000D03*
X113665000Y-118745000D03*
X113665000Y-116205000D03*
X113665000Y-113665000D03*
X113665000Y-111125000D03*
X113665000Y-108585000D03*
X113665000Y-106045000D03*
X113665000Y-103505000D03*
X113665000Y-100965000D03*
X113665000Y-98425000D03*
X113665000Y-95885000D03*
X113665000Y-93345000D03*
X113665000Y-90805000D03*
X113665000Y-88265000D03*
X113665000Y-85725000D03*
X113665000Y-83185000D03*
X113665000Y-80645000D03*
X113665000Y-78105000D03*
X113665000Y-75565000D03*
X113665000Y-73025000D03*
X113665000Y-70485000D03*
X113665000Y-67945000D03*
X113665000Y-65405000D03*
X111125000Y-128905000D03*
X111125000Y-126365000D03*
X111125000Y-123825000D03*
X111125000Y-121285000D03*
X111125000Y-118745000D03*
X111125000Y-116205000D03*
X111125000Y-113665000D03*
X111125000Y-111125000D03*
X111125000Y-108585000D03*
X111125000Y-106045000D03*
X111125000Y-103505000D03*
X111125000Y-100965000D03*
X111125000Y-98425000D03*
X111125000Y-95885000D03*
X111125000Y-93345000D03*
X111125000Y-90805000D03*
X111125000Y-88265000D03*
X111125000Y-85725000D03*
X111125000Y-83185000D03*
X111125000Y-80645000D03*
X111125000Y-78105000D03*
X111125000Y-75565000D03*
X111125000Y-73025000D03*
X111125000Y-70485000D03*
X111125000Y-67945000D03*
X111125000Y-65405000D03*
X108585000Y-128905000D03*
X108585000Y-126365000D03*
X108585000Y-123825000D03*
X108585000Y-121285000D03*
X108585000Y-118745000D03*
X108585000Y-116205000D03*
X108585000Y-113665000D03*
X108585000Y-111125000D03*
X108585000Y-108585000D03*
X108585000Y-106045000D03*
X108585000Y-103505000D03*
X108585000Y-100965000D03*
X108585000Y-98425000D03*
X108585000Y-95885000D03*
X108585000Y-93345000D03*
X108585000Y-90805000D03*
X108585000Y-88265000D03*
X108585000Y-85725000D03*
X108585000Y-83185000D03*
X108585000Y-80645000D03*
X108585000Y-78105000D03*
X108585000Y-75565000D03*
X108585000Y-73025000D03*
X108585000Y-70485000D03*
X108585000Y-67945000D03*
X108585000Y-65405000D03*
X106045000Y-128905000D03*
X106045000Y-126365000D03*
X106045000Y-123825000D03*
X106045000Y-121285000D03*
X106045000Y-118745000D03*
X106045000Y-116205000D03*
X106045000Y-113665000D03*
X106045000Y-111125000D03*
X106045000Y-108585000D03*
X106045000Y-106045000D03*
X106045000Y-103505000D03*
X106045000Y-100965000D03*
X106045000Y-98425000D03*
X106045000Y-95885000D03*
X106045000Y-93345000D03*
X106045000Y-90805000D03*
X106045000Y-88265000D03*
X106045000Y-85725000D03*
X106045000Y-83185000D03*
X106045000Y-80645000D03*
X106045000Y-78105000D03*
X106045000Y-75565000D03*
X106045000Y-73025000D03*
X106045000Y-70485000D03*
X106045000Y-67945000D03*
X106045000Y-65405000D03*
X62865000Y-128905000D03*
X62865000Y-126365000D03*
X62865000Y-123825000D03*
X62865000Y-121285000D03*
X62865000Y-118745000D03*
X62865000Y-116205000D03*
X62865000Y-113665000D03*
X62865000Y-111125000D03*
X62865000Y-108585000D03*
X62865000Y-106045000D03*
X62865000Y-103505000D03*
X62865000Y-100965000D03*
X62865000Y-98425000D03*
X62865000Y-95885000D03*
X62865000Y-93345000D03*
X62865000Y-90805000D03*
X62865000Y-88265000D03*
X62865000Y-85725000D03*
X62865000Y-83185000D03*
X62865000Y-80645000D03*
X62865000Y-78105000D03*
X62865000Y-75565000D03*
X62865000Y-73025000D03*
X62865000Y-70485000D03*
X60325000Y-128905000D03*
X60325000Y-126365000D03*
X60325000Y-123825000D03*
X60325000Y-121285000D03*
X60325000Y-118745000D03*
X60325000Y-116205000D03*
X60325000Y-113665000D03*
X60325000Y-111125000D03*
X60325000Y-108585000D03*
X60325000Y-106045000D03*
X60325000Y-103505000D03*
X60325000Y-100965000D03*
X60325000Y-98425000D03*
X60325000Y-95885000D03*
X60325000Y-93345000D03*
X60325000Y-90805000D03*
X60325000Y-88265000D03*
X60325000Y-85725000D03*
X60325000Y-83185000D03*
X60325000Y-80645000D03*
X60325000Y-78105000D03*
X60325000Y-75565000D03*
X60325000Y-73025000D03*
X60325000Y-70485000D03*
X73025000Y-128905000D03*
X73025000Y-126365000D03*
X73025000Y-123825000D03*
X73025000Y-121285000D03*
X73025000Y-118745000D03*
X73025000Y-116205000D03*
X73025000Y-113665000D03*
X73025000Y-111125000D03*
X73025000Y-108585000D03*
X73025000Y-106045000D03*
X73025000Y-103505000D03*
X73025000Y-100965000D03*
X73025000Y-98425000D03*
X73025000Y-95885000D03*
X73025000Y-93345000D03*
X73025000Y-90805000D03*
X73025000Y-88265000D03*
X73025000Y-85725000D03*
X73025000Y-83185000D03*
X73025000Y-80645000D03*
X73025000Y-78105000D03*
X73025000Y-75565000D03*
X73025000Y-73025000D03*
X73025000Y-70485000D03*
X73025000Y-67945000D03*
X70485000Y-128905000D03*
X70485000Y-126365000D03*
X70485000Y-123825000D03*
X70485000Y-121285000D03*
X70485000Y-118745000D03*
X70485000Y-116205000D03*
X70485000Y-113665000D03*
X70485000Y-111125000D03*
X70485000Y-108585000D03*
X70485000Y-106045000D03*
X70485000Y-103505000D03*
X70485000Y-100965000D03*
X70485000Y-98425000D03*
X70485000Y-95885000D03*
X70485000Y-93345000D03*
X70485000Y-90805000D03*
X70485000Y-88265000D03*
X70485000Y-85725000D03*
X70485000Y-83185000D03*
X70485000Y-80645000D03*
X70485000Y-78105000D03*
X70485000Y-75565000D03*
X70485000Y-73025000D03*
X70485000Y-70485000D03*
X70485000Y-67945000D03*
X67945000Y-128905000D03*
X67945000Y-126365000D03*
X67945000Y-123825000D03*
X67945000Y-121285000D03*
X67945000Y-118745000D03*
X67945000Y-116205000D03*
X67945000Y-113665000D03*
X67945000Y-111125000D03*
X67945000Y-108585000D03*
X67945000Y-106045000D03*
X67945000Y-103505000D03*
X67945000Y-100965000D03*
X67945000Y-98425000D03*
X67945000Y-95885000D03*
X67945000Y-93345000D03*
X67945000Y-90805000D03*
X67945000Y-88265000D03*
X67945000Y-85725000D03*
X67945000Y-83185000D03*
X67945000Y-80645000D03*
X67945000Y-78105000D03*
X67945000Y-75565000D03*
X67945000Y-73025000D03*
X67945000Y-70485000D03*
X67945000Y-67945000D03*
X57785000Y-128905000D03*
X57785000Y-126365000D03*
X57785000Y-123825000D03*
X57785000Y-121285000D03*
X57785000Y-118745000D03*
X57785000Y-116205000D03*
X57785000Y-113665000D03*
X57785000Y-111125000D03*
X57785000Y-108585000D03*
X57785000Y-106045000D03*
X57785000Y-103505000D03*
X57785000Y-100965000D03*
X57785000Y-98425000D03*
X57785000Y-95885000D03*
X57785000Y-93345000D03*
X57785000Y-90805000D03*
X57785000Y-88265000D03*
X57785000Y-85725000D03*
X57785000Y-83185000D03*
X57785000Y-80645000D03*
X57785000Y-78105000D03*
X57785000Y-75565000D03*
X57785000Y-73025000D03*
X57785000Y-70485000D03*
X65405000Y-128905000D03*
X65405000Y-126365000D03*
X65405000Y-123825000D03*
X65405000Y-121285000D03*
X65405000Y-118745000D03*
X65405000Y-116205000D03*
X65405000Y-113665000D03*
X65405000Y-111125000D03*
X65405000Y-108585000D03*
X65405000Y-106045000D03*
X65405000Y-103505000D03*
X65405000Y-100965000D03*
X65405000Y-98425000D03*
X65405000Y-95885000D03*
X65405000Y-93345000D03*
X65405000Y-90805000D03*
X65405000Y-88265000D03*
X65405000Y-85725000D03*
X65405000Y-83185000D03*
X65405000Y-80645000D03*
X65405000Y-78105000D03*
X65405000Y-75565000D03*
X65405000Y-73025000D03*
X65405000Y-70485000D03*
X65405000Y-67945000D03*
X55245000Y-128905000D03*
X55245000Y-126365000D03*
X55245000Y-123825000D03*
X55245000Y-121285000D03*
X55245000Y-118745000D03*
X55245000Y-116205000D03*
X55245000Y-113665000D03*
X55245000Y-111125000D03*
X55245000Y-108585000D03*
X55245000Y-106045000D03*
X55245000Y-103505000D03*
X55245000Y-100965000D03*
X55245000Y-98425000D03*
X55245000Y-95885000D03*
X55245000Y-93345000D03*
X55245000Y-90805000D03*
X55245000Y-88265000D03*
X55245000Y-85725000D03*
X55245000Y-83185000D03*
X55245000Y-80645000D03*
X55245000Y-78105000D03*
X55245000Y-75565000D03*
X55245000Y-73025000D03*
X55245000Y-70485000D03*
X52705000Y-128905000D03*
X52705000Y-126365000D03*
X52705000Y-123825000D03*
X52705000Y-121285000D03*
X52705000Y-118745000D03*
X52705000Y-116205000D03*
X52705000Y-113665000D03*
X52705000Y-111125000D03*
X52705000Y-108585000D03*
X52705000Y-106045000D03*
X52705000Y-103505000D03*
X52705000Y-100965000D03*
X52705000Y-98425000D03*
X52705000Y-95885000D03*
X52705000Y-93345000D03*
X52705000Y-90805000D03*
X52705000Y-88265000D03*
X52705000Y-85725000D03*
X52705000Y-83185000D03*
X52705000Y-80645000D03*
X52705000Y-78105000D03*
X52705000Y-75565000D03*
X52705000Y-73025000D03*
X50165000Y-128905000D03*
X50165000Y-126365000D03*
X50165000Y-123825000D03*
X50165000Y-121285000D03*
X50165000Y-118745000D03*
X50165000Y-116205000D03*
X50165000Y-113665000D03*
X50165000Y-111125000D03*
X50165000Y-108585000D03*
X50165000Y-106045000D03*
X50165000Y-103505000D03*
X50165000Y-100965000D03*
X50165000Y-98425000D03*
X50165000Y-95885000D03*
X50165000Y-93345000D03*
X50165000Y-90805000D03*
X50165000Y-88265000D03*
X50165000Y-85725000D03*
X50165000Y-83185000D03*
X50165000Y-80645000D03*
X50165000Y-78105000D03*
X50165000Y-75565000D03*
X50165000Y-73025000D03*
X47625000Y-128905000D03*
X47625000Y-126365000D03*
X47625000Y-123825000D03*
X47625000Y-121285000D03*
X47625000Y-118745000D03*
X47625000Y-116205000D03*
X47625000Y-113665000D03*
X47625000Y-111125000D03*
X47625000Y-108585000D03*
X47625000Y-106045000D03*
X47625000Y-103505000D03*
X47625000Y-100965000D03*
X47625000Y-98425000D03*
X47625000Y-95885000D03*
X47625000Y-93345000D03*
X47625000Y-90805000D03*
X47625000Y-88265000D03*
X47625000Y-85725000D03*
X47625000Y-83185000D03*
X47625000Y-80645000D03*
X47625000Y-78105000D03*
X47625000Y-75565000D03*
X47625000Y-73025000D03*
X45085000Y-128905000D03*
X45085000Y-126365000D03*
X45085000Y-123825000D03*
X45085000Y-121285000D03*
X45085000Y-118745000D03*
X45085000Y-116205000D03*
X45085000Y-113665000D03*
X45085000Y-111125000D03*
X45085000Y-108585000D03*
X45085000Y-106045000D03*
X45085000Y-103505000D03*
X45085000Y-100965000D03*
X45085000Y-98425000D03*
X45085000Y-95885000D03*
X45085000Y-93345000D03*
X45085000Y-90805000D03*
X45085000Y-88265000D03*
X45085000Y-85725000D03*
X45085000Y-83185000D03*
X45085000Y-80645000D03*
X45085000Y-78105000D03*
X45085000Y-75565000D03*
X45085000Y-73025000D03*
X42545000Y-128905000D03*
X42545000Y-126365000D03*
X42545000Y-123825000D03*
X42545000Y-121285000D03*
X42545000Y-118745000D03*
X42545000Y-116205000D03*
X42545000Y-113665000D03*
X42545000Y-111125000D03*
X42545000Y-108585000D03*
X42545000Y-106045000D03*
X42545000Y-103505000D03*
X42545000Y-100965000D03*
X42545000Y-98425000D03*
X42545000Y-95885000D03*
X42545000Y-93345000D03*
X42545000Y-90805000D03*
X42545000Y-88265000D03*
X42545000Y-85725000D03*
X42545000Y-83185000D03*
X42545000Y-80645000D03*
X42545000Y-78105000D03*
X42545000Y-75565000D03*
X40005000Y-128905000D03*
X40005000Y-126365000D03*
X40005000Y-123825000D03*
X40005000Y-121285000D03*
X40005000Y-118745000D03*
X40005000Y-116205000D03*
X40005000Y-113665000D03*
X40005000Y-111125000D03*
X40005000Y-108585000D03*
X40005000Y-106045000D03*
X40005000Y-103505000D03*
X40005000Y-100965000D03*
X40005000Y-98425000D03*
X40005000Y-95885000D03*
X40005000Y-93345000D03*
X40005000Y-90805000D03*
X40005000Y-88265000D03*
X40005000Y-85725000D03*
X40005000Y-83185000D03*
X40005000Y-80645000D03*
X40005000Y-78105000D03*
X40005000Y-75565000D03*
X37465000Y-128905000D03*
X37465000Y-126365000D03*
X37465000Y-123825000D03*
X37465000Y-121285000D03*
X37465000Y-118745000D03*
X37465000Y-116205000D03*
X37465000Y-113665000D03*
X37465000Y-111125000D03*
X37465000Y-108585000D03*
X37465000Y-106045000D03*
X37465000Y-103505000D03*
X37465000Y-100965000D03*
X37465000Y-98425000D03*
X37465000Y-95885000D03*
X37465000Y-93345000D03*
X37465000Y-90805000D03*
X37465000Y-88265000D03*
X37465000Y-85725000D03*
X37465000Y-83185000D03*
X37465000Y-80645000D03*
X37465000Y-78105000D03*
X37465000Y-75565000D03*
X34925000Y-128905000D03*
X34925000Y-126365000D03*
X34925000Y-123825000D03*
X34925000Y-121285000D03*
X34925000Y-118745000D03*
X34925000Y-116205000D03*
X34925000Y-113665000D03*
X34925000Y-111125000D03*
X34925000Y-108585000D03*
X34925000Y-106045000D03*
X34925000Y-103505000D03*
X34925000Y-100965000D03*
X34925000Y-98425000D03*
X34925000Y-95885000D03*
X34925000Y-93345000D03*
X34925000Y-90805000D03*
X34925000Y-88265000D03*
X34925000Y-85725000D03*
X34925000Y-83185000D03*
X34925000Y-80645000D03*
X34925000Y-78105000D03*
X34925000Y-75565000D03*
X32385000Y-128905000D03*
X32385000Y-126365000D03*
X32385000Y-123825000D03*
X32385000Y-121285000D03*
X32385000Y-118745000D03*
X32385000Y-116205000D03*
X32385000Y-113665000D03*
X32385000Y-111125000D03*
X32385000Y-108585000D03*
X32385000Y-106045000D03*
X32385000Y-103505000D03*
X32385000Y-100965000D03*
X32385000Y-98425000D03*
X32385000Y-95885000D03*
X32385000Y-93345000D03*
X32385000Y-90805000D03*
X32385000Y-88265000D03*
X32385000Y-85725000D03*
X32385000Y-83185000D03*
X32385000Y-80645000D03*
X32385000Y-78105000D03*
X29845000Y-128905000D03*
X29845000Y-126365000D03*
X29845000Y-123825000D03*
X29845000Y-121285000D03*
X29845000Y-118745000D03*
X29845000Y-116205000D03*
X29845000Y-113665000D03*
X29845000Y-111125000D03*
X29845000Y-108585000D03*
X29845000Y-106045000D03*
X29845000Y-103505000D03*
X29845000Y-100965000D03*
X29845000Y-98425000D03*
X29845000Y-95885000D03*
X29845000Y-93345000D03*
X29845000Y-90805000D03*
X29845000Y-88265000D03*
X29845000Y-85725000D03*
X29845000Y-83185000D03*
X29845000Y-80645000D03*
X29845000Y-78105000D03*
X27305000Y-128905000D03*
X27305000Y-126365000D03*
X27305000Y-123825000D03*
X27305000Y-121285000D03*
X27305000Y-118745000D03*
X27305000Y-116205000D03*
X27305000Y-113665000D03*
X27305000Y-111125000D03*
X27305000Y-108585000D03*
X27305000Y-106045000D03*
X27305000Y-103505000D03*
X27305000Y-100965000D03*
X27305000Y-98425000D03*
X27305000Y-95885000D03*
X27305000Y-93345000D03*
X27305000Y-90805000D03*
X27305000Y-88265000D03*
X27305000Y-85725000D03*
X27305000Y-83185000D03*
X27305000Y-80645000D03*
X27305000Y-78105000D03*
X24765000Y-128905000D03*
X24765000Y-126365000D03*
X24765000Y-123825000D03*
X24765000Y-121285000D03*
X24765000Y-118745000D03*
X24765000Y-116205000D03*
X24765000Y-113665000D03*
X24765000Y-111125000D03*
X24765000Y-108585000D03*
X24765000Y-106045000D03*
X24765000Y-103505000D03*
X24765000Y-100965000D03*
X24765000Y-98425000D03*
X24765000Y-95885000D03*
X24765000Y-93345000D03*
X24765000Y-90805000D03*
X24765000Y-88265000D03*
X24765000Y-85725000D03*
X24765000Y-83185000D03*
X24765000Y-80645000D03*
X24765000Y-78105000D03*
D13*
X197485000Y-128905000D03*
D14*
X200025000Y-128905000D03*
X202565000Y-128905000D03*
X205105000Y-128905000D03*
X207645000Y-128905000D03*
X210185000Y-128905000D03*
X212725000Y-128905000D03*
X215265000Y-128905000D03*
X217805000Y-128905000D03*
X220345000Y-128905000D03*
X222885000Y-128905000D03*
X225425000Y-128905000D03*
X227965000Y-128905000D03*
X230505000Y-128905000D03*
X233045000Y-128905000D03*
X235585000Y-128905000D03*
X238125000Y-128905000D03*
X240665000Y-128905000D03*
X243205000Y-128905000D03*
X245745000Y-128905000D03*
X248285000Y-128905000D03*
X250825000Y-128905000D03*
X253365000Y-128905000D03*
X255905000Y-128905000D03*
X258445000Y-128905000D03*
X258445000Y-126365000D03*
X255905000Y-126365000D03*
X253365000Y-126365000D03*
X250825000Y-126365000D03*
X248285000Y-126365000D03*
X245745000Y-126365000D03*
X243205000Y-126365000D03*
X240665000Y-126365000D03*
X238125000Y-126365000D03*
X235585000Y-126365000D03*
X233045000Y-126365000D03*
X230505000Y-126365000D03*
X227965000Y-126365000D03*
X225425000Y-126365000D03*
X222885000Y-126365000D03*
X220345000Y-126365000D03*
X217805000Y-126365000D03*
X215265000Y-126365000D03*
X212725000Y-126365000D03*
X210185000Y-126365000D03*
X207645000Y-126365000D03*
X205105000Y-126365000D03*
X202565000Y-126365000D03*
X200025000Y-126365000D03*
X197485000Y-126365000D03*
D15*
X197485000Y-128905000D02*
X197485000Y-137160000D01*
X200025000Y-128905000D02*
X200025000Y-137160000D01*
X202565000Y-128905000D02*
X202565000Y-137160000D01*
X205105000Y-128905000D02*
X205105000Y-137160000D01*
X207645000Y-128905000D02*
X207645000Y-137160000D01*
X210185000Y-128905000D02*
X210185000Y-137160000D01*
X212725000Y-128905000D02*
X212725000Y-137160000D01*
X215265000Y-128905000D02*
X215265000Y-137160000D01*
X217805000Y-128905000D02*
X217805000Y-137160000D01*
X220345000Y-128905000D02*
X220345000Y-137160000D01*
X222885000Y-128905000D02*
X222885000Y-137160000D01*
X225425000Y-128905000D02*
X225425000Y-137160000D01*
X227965000Y-128905000D02*
X227965000Y-137160000D01*
X230505000Y-128905000D02*
X230505000Y-137160000D01*
X233045000Y-128905000D02*
X233045000Y-137160000D01*
X235585000Y-128905000D02*
X235585000Y-137160000D01*
X238125000Y-128905000D02*
X238125000Y-137160000D01*
X240665000Y-128905000D02*
X240665000Y-137160000D01*
X245745000Y-128905000D02*
X245745000Y-137160000D01*
X248285000Y-128905000D02*
X248285000Y-137160000D01*
X250825000Y-128905000D02*
X250825000Y-137160000D01*
X253365000Y-128905000D02*
X253365000Y-137160000D01*
X255905000Y-128905000D02*
X255905000Y-137160000D01*
X258445000Y-128905000D02*
X258445000Y-137160000D01*
X243205000Y-128905000D02*
X243205000Y-137160000D01*
M02*
