M48
;DRILL file {KiCad 4.0.7} date 08/21/19 17:34:12
;FORMAT={2:4/ absolute / inch / suppress leading zeros}
FMAT,2
INCH,TZ
T1C0.030
T2C0.039
%
G90
G05
M72
T1
X9750Y-30750
X9750Y-31750
X9750Y-32750
X9750Y-33750
X9750Y-34750
X9750Y-35750
X9750Y-36750
X9750Y-37750
X9750Y-38750
X9750Y-39750
X9750Y-40750
X9750Y-41750
X9750Y-42750
X9750Y-43750
X9750Y-44750
X9750Y-45750
X9750Y-46750
X9750Y-47750
X9750Y-48750
X9750Y-49750
X9750Y-50750
X10750Y-30750
X10750Y-31750
X10750Y-32750
X10750Y-33750
X10750Y-34750
X10750Y-35750
X10750Y-36750
X10750Y-37750
X10750Y-38750
X10750Y-39750
X10750Y-40750
X10750Y-41750
X10750Y-42750
X10750Y-43750
X10750Y-44750
X10750Y-45750
X10750Y-46750
X10750Y-47750
X10750Y-48750
X10750Y-49750
X10750Y-50750
X11750Y-30750
X11750Y-31750
X11750Y-32750
X11750Y-33750
X11750Y-34750
X11750Y-35750
X11750Y-36750
X11750Y-37750
X11750Y-38750
X11750Y-39750
X11750Y-40750
X11750Y-41750
X11750Y-42750
X11750Y-43750
X11750Y-44750
X11750Y-45750
X11750Y-46750
X11750Y-47750
X11750Y-48750
X11750Y-49750
X11750Y-50750
X12750Y-30750
X12750Y-31750
X12750Y-32750
X12750Y-33750
X12750Y-34750
X12750Y-35750
X12750Y-36750
X12750Y-37750
X12750Y-38750
X12750Y-39750
X12750Y-40750
X12750Y-41750
X12750Y-42750
X12750Y-43750
X12750Y-44750
X12750Y-45750
X12750Y-46750
X12750Y-47750
X12750Y-48750
X12750Y-49750
X12750Y-50750
X13750Y-29750
X13750Y-30750
X13750Y-31750
X13750Y-32750
X13750Y-33750
X13750Y-34750
X13750Y-35750
X13750Y-36750
X13750Y-37750
X13750Y-38750
X13750Y-39750
X13750Y-40750
X13750Y-41750
X13750Y-42750
X13750Y-43750
X13750Y-44750
X13750Y-45750
X13750Y-46750
X13750Y-47750
X13750Y-48750
X13750Y-49750
X13750Y-50750
X14750Y-29750
X14750Y-30750
X14750Y-31750
X14750Y-32750
X14750Y-33750
X14750Y-34750
X14750Y-35750
X14750Y-36750
X14750Y-37750
X14750Y-38750
X14750Y-39750
X14750Y-40750
X14750Y-41750
X14750Y-42750
X14750Y-43750
X14750Y-44750
X14750Y-45750
X14750Y-46750
X14750Y-47750
X14750Y-48750
X14750Y-49750
X14750Y-50750
X15750Y-29750
X15750Y-30750
X15750Y-31750
X15750Y-32750
X15750Y-33750
X15750Y-34750
X15750Y-35750
X15750Y-36750
X15750Y-37750
X15750Y-38750
X15750Y-39750
X15750Y-40750
X15750Y-41750
X15750Y-42750
X15750Y-43750
X15750Y-44750
X15750Y-45750
X15750Y-46750
X15750Y-47750
X15750Y-48750
X15750Y-49750
X15750Y-50750
X16750Y-29750
X16750Y-30750
X16750Y-31750
X16750Y-32750
X16750Y-33750
X16750Y-34750
X16750Y-35750
X16750Y-36750
X16750Y-37750
X16750Y-38750
X16750Y-39750
X16750Y-40750
X16750Y-41750
X16750Y-42750
X16750Y-43750
X16750Y-44750
X16750Y-45750
X16750Y-46750
X16750Y-47750
X16750Y-48750
X16750Y-49750
X16750Y-50750
X17750Y-28750
X17750Y-29750
X17750Y-30750
X17750Y-31750
X17750Y-32750
X17750Y-33750
X17750Y-34750
X17750Y-35750
X17750Y-36750
X17750Y-37750
X17750Y-38750
X17750Y-39750
X17750Y-40750
X17750Y-41750
X17750Y-42750
X17750Y-43750
X17750Y-44750
X17750Y-45750
X17750Y-46750
X17750Y-47750
X17750Y-48750
X17750Y-49750
X17750Y-50750
X18750Y-28750
X18750Y-29750
X18750Y-30750
X18750Y-31750
X18750Y-32750
X18750Y-33750
X18750Y-34750
X18750Y-35750
X18750Y-36750
X18750Y-37750
X18750Y-38750
X18750Y-39750
X18750Y-40750
X18750Y-41750
X18750Y-42750
X18750Y-43750
X18750Y-44750
X18750Y-45750
X18750Y-46750
X18750Y-47750
X18750Y-48750
X18750Y-49750
X18750Y-50750
X19750Y-28750
X19750Y-29750
X19750Y-30750
X19750Y-31750
X19750Y-32750
X19750Y-33750
X19750Y-34750
X19750Y-35750
X19750Y-36750
X19750Y-37750
X19750Y-38750
X19750Y-39750
X19750Y-40750
X19750Y-41750
X19750Y-42750
X19750Y-43750
X19750Y-44750
X19750Y-45750
X19750Y-46750
X19750Y-47750
X19750Y-48750
X19750Y-49750
X19750Y-50750
X20750Y-28750
X20750Y-29750
X20750Y-30750
X20750Y-31750
X20750Y-32750
X20750Y-33750
X20750Y-34750
X20750Y-35750
X20750Y-36750
X20750Y-37750
X20750Y-38750
X20750Y-39750
X20750Y-40750
X20750Y-41750
X20750Y-42750
X20750Y-43750
X20750Y-44750
X20750Y-45750
X20750Y-46750
X20750Y-47750
X20750Y-48750
X20750Y-49750
X20750Y-50750
X21750Y-27750
X21750Y-28750
X21750Y-29750
X21750Y-30750
X21750Y-31750
X21750Y-32750
X21750Y-33750
X21750Y-34750
X21750Y-35750
X21750Y-36750
X21750Y-37750
X21750Y-38750
X21750Y-39750
X21750Y-40750
X21750Y-41750
X21750Y-42750
X21750Y-43750
X21750Y-44750
X21750Y-45750
X21750Y-46750
X21750Y-47750
X21750Y-48750
X21750Y-49750
X21750Y-50750
X22750Y-27750
X22750Y-28750
X22750Y-29750
X22750Y-30750
X22750Y-31750
X22750Y-32750
X22750Y-33750
X22750Y-34750
X22750Y-35750
X22750Y-36750
X22750Y-37750
X22750Y-38750
X22750Y-39750
X22750Y-40750
X22750Y-41750
X22750Y-42750
X22750Y-43750
X22750Y-44750
X22750Y-45750
X22750Y-46750
X22750Y-47750
X22750Y-48750
X22750Y-49750
X22750Y-50750
X23750Y-27750
X23750Y-28750
X23750Y-29750
X23750Y-30750
X23750Y-31750
X23750Y-32750
X23750Y-33750
X23750Y-34750
X23750Y-35750
X23750Y-36750
X23750Y-37750
X23750Y-38750
X23750Y-39750
X23750Y-40750
X23750Y-41750
X23750Y-42750
X23750Y-43750
X23750Y-44750
X23750Y-45750
X23750Y-46750
X23750Y-47750
X23750Y-48750
X23750Y-49750
X23750Y-50750
X24750Y-27750
X24750Y-28750
X24750Y-29750
X24750Y-30750
X24750Y-31750
X24750Y-32750
X24750Y-33750
X24750Y-34750
X24750Y-35750
X24750Y-36750
X24750Y-37750
X24750Y-38750
X24750Y-39750
X24750Y-40750
X24750Y-41750
X24750Y-42750
X24750Y-43750
X24750Y-44750
X24750Y-45750
X24750Y-46750
X24750Y-47750
X24750Y-48750
X24750Y-49750
X24750Y-50750
X25750Y-26750
X25750Y-27750
X25750Y-28750
X25750Y-29750
X25750Y-30750
X25750Y-31750
X25750Y-32750
X25750Y-33750
X25750Y-34750
X25750Y-35750
X25750Y-36750
X25750Y-37750
X25750Y-38750
X25750Y-39750
X25750Y-40750
X25750Y-41750
X25750Y-42750
X25750Y-43750
X25750Y-44750
X25750Y-45750
X25750Y-46750
X25750Y-47750
X25750Y-48750
X25750Y-49750
X25750Y-50750
X26750Y-26750
X26750Y-27750
X26750Y-28750
X26750Y-29750
X26750Y-30750
X26750Y-31750
X26750Y-32750
X26750Y-33750
X26750Y-34750
X26750Y-35750
X26750Y-36750
X26750Y-37750
X26750Y-38750
X26750Y-39750
X26750Y-40750
X26750Y-41750
X26750Y-42750
X26750Y-43750
X26750Y-44750
X26750Y-45750
X26750Y-46750
X26750Y-47750
X26750Y-48750
X26750Y-49750
X26750Y-50750
X27750Y-26750
X27750Y-27750
X27750Y-28750
X27750Y-29750
X27750Y-30750
X27750Y-31750
X27750Y-32750
X27750Y-33750
X27750Y-34750
X27750Y-35750
X27750Y-36750
X27750Y-37750
X27750Y-38750
X27750Y-39750
X27750Y-40750
X27750Y-41750
X27750Y-42750
X27750Y-43750
X27750Y-44750
X27750Y-45750
X27750Y-46750
X27750Y-47750
X27750Y-48750
X27750Y-49750
X27750Y-50750
X28750Y-26750
X28750Y-27750
X28750Y-28750
X28750Y-29750
X28750Y-30750
X28750Y-31750
X28750Y-32750
X28750Y-33750
X28750Y-34750
X28750Y-35750
X28750Y-36750
X28750Y-37750
X28750Y-38750
X28750Y-39750
X28750Y-40750
X28750Y-41750
X28750Y-42750
X28750Y-43750
X28750Y-44750
X28750Y-45750
X28750Y-46750
X28750Y-47750
X28750Y-48750
X28750Y-49750
X28750Y-50750
X29750Y-25750
X29750Y-26750
X29750Y-27750
X29750Y-28750
X29750Y-29750
X29750Y-30750
X29750Y-31750
X29750Y-32750
X29750Y-33750
X29750Y-34750
X29750Y-35750
X29750Y-36750
X29750Y-37750
X29750Y-38750
X29750Y-39750
X29750Y-40750
X29750Y-41750
X29750Y-42750
X29750Y-43750
X29750Y-44750
X29750Y-45750
X29750Y-46750
X29750Y-47750
X29750Y-48750
X29750Y-49750
X29750Y-50750
X30750Y-25750
X30750Y-26750
X30750Y-27750
X30750Y-28750
X30750Y-29750
X30750Y-30750
X30750Y-31750
X30750Y-32750
X30750Y-33750
X30750Y-34750
X30750Y-35750
X30750Y-36750
X30750Y-37750
X30750Y-38750
X30750Y-39750
X30750Y-40750
X30750Y-41750
X30750Y-42750
X30750Y-43750
X30750Y-44750
X30750Y-45750
X30750Y-46750
X30750Y-47750
X30750Y-48750
X30750Y-49750
X30750Y-50750
X31750Y-25750
X31750Y-26750
X31750Y-27750
X31750Y-28750
X31750Y-29750
X31750Y-30750
X31750Y-31750
X31750Y-32750
X31750Y-33750
X31750Y-34750
X31750Y-35750
X31750Y-36750
X31750Y-37750
X31750Y-38750
X31750Y-39750
X31750Y-40750
X31750Y-41750
X31750Y-42750
X31750Y-43750
X31750Y-44750
X31750Y-45750
X31750Y-46750
X31750Y-47750
X31750Y-48750
X31750Y-49750
X31750Y-50750
X32750Y-25750
X32750Y-26750
X32750Y-27750
X32750Y-28750
X32750Y-29750
X32750Y-30750
X32750Y-31750
X32750Y-32750
X32750Y-33750
X32750Y-34750
X32750Y-35750
X32750Y-36750
X32750Y-37750
X32750Y-38750
X32750Y-39750
X32750Y-40750
X32750Y-41750
X32750Y-42750
X32750Y-43750
X32750Y-44750
X32750Y-45750
X32750Y-46750
X32750Y-47750
X32750Y-48750
X32750Y-49750
X32750Y-50750
X33750Y-25750
X33750Y-26750
X33750Y-27750
X33750Y-28750
X33750Y-29750
X33750Y-30750
X33750Y-31750
X33750Y-32750
X33750Y-33750
X33750Y-34750
X33750Y-35750
X33750Y-36750
X33750Y-37750
X33750Y-38750
X33750Y-39750
X33750Y-40750
X33750Y-41750
X33750Y-42750
X33750Y-43750
X33750Y-44750
X33750Y-45750
X33750Y-46750
X33750Y-47750
X33750Y-48750
X33750Y-49750
X33750Y-50750
X34750Y-25750
X34750Y-26750
X34750Y-27750
X34750Y-28750
X34750Y-29750
X34750Y-30750
X34750Y-31750
X34750Y-32750
X34750Y-33750
X34750Y-34750
X34750Y-35750
X34750Y-36750
X34750Y-37750
X34750Y-38750
X34750Y-39750
X34750Y-40750
X34750Y-41750
X34750Y-42750
X34750Y-43750
X34750Y-44750
X34750Y-45750
X34750Y-46750
X34750Y-47750
X34750Y-48750
X34750Y-49750
X34750Y-50750
X35750Y-25750
X35750Y-26750
X35750Y-27750
X35750Y-28750
X35750Y-29750
X35750Y-30750
X35750Y-31750
X35750Y-32750
X35750Y-33750
X35750Y-34750
X35750Y-35750
X35750Y-36750
X35750Y-37750
X35750Y-38750
X35750Y-39750
X35750Y-40750
X35750Y-41750
X35750Y-42750
X35750Y-43750
X35750Y-44750
X35750Y-45750
X35750Y-46750
X35750Y-47750
X35750Y-48750
X35750Y-49750
X35750Y-50750
X36750Y-25750
X36750Y-26750
X36750Y-27750
X36750Y-28750
X36750Y-29750
X36750Y-30750
X36750Y-31750
X36750Y-32750
X36750Y-33750
X36750Y-34750
X36750Y-35750
X36750Y-36750
X36750Y-37750
X36750Y-38750
X36750Y-39750
X36750Y-40750
X36750Y-41750
X36750Y-42750
X36750Y-43750
X36750Y-44750
X36750Y-45750
X36750Y-46750
X36750Y-47750
X36750Y-48750
X36750Y-49750
X36750Y-50750
X37750Y-25750
X37750Y-26750
X37750Y-27750
X37750Y-28750
X37750Y-29750
X37750Y-30750
X37750Y-31750
X37750Y-32750
X37750Y-33750
X37750Y-34750
X37750Y-35750
X37750Y-36750
X37750Y-37750
X37750Y-38750
X37750Y-39750
X37750Y-40750
X37750Y-41750
X37750Y-42750
X37750Y-43750
X37750Y-44750
X37750Y-45750
X37750Y-46750
X37750Y-47750
X37750Y-48750
X37750Y-49750
X37750Y-50750
X38750Y-25750
X38750Y-26750
X38750Y-27750
X38750Y-28750
X38750Y-29750
X38750Y-30750
X38750Y-31750
X38750Y-32750
X38750Y-33750
X38750Y-34750
X38750Y-35750
X38750Y-36750
X38750Y-37750
X38750Y-38750
X38750Y-39750
X38750Y-40750
X38750Y-41750
X38750Y-42750
X38750Y-43750
X38750Y-44750
X38750Y-45750
X38750Y-46750
X38750Y-47750
X38750Y-48750
X38750Y-49750
X38750Y-50750
X39750Y-25750
X39750Y-26750
X39750Y-27750
X39750Y-28750
X39750Y-29750
X39750Y-30750
X39750Y-31750
X39750Y-32750
X39750Y-33750
X39750Y-34750
X39750Y-35750
X39750Y-36750
X39750Y-37750
X39750Y-38750
X39750Y-39750
X39750Y-40750
X39750Y-41750
X39750Y-42750
X39750Y-43750
X39750Y-44750
X39750Y-45750
X39750Y-46750
X39750Y-47750
X39750Y-48750
X39750Y-49750
X39750Y-50750
X40750Y-25750
X40750Y-26750
X40750Y-27750
X40750Y-28750
X40750Y-29750
X40750Y-30750
X40750Y-31750
X40750Y-32750
X40750Y-33750
X40750Y-34750
X40750Y-35750
X40750Y-36750
X40750Y-37750
X40750Y-38750
X40750Y-39750
X40750Y-40750
X40750Y-41750
X40750Y-42750
X40750Y-43750
X40750Y-44750
X40750Y-45750
X40750Y-46750
X40750Y-47750
X40750Y-48750
X40750Y-49750
X40750Y-50750
X41750Y-25750
X41750Y-26750
X41750Y-27750
X41750Y-28750
X41750Y-29750
X41750Y-30750
X41750Y-31750
X41750Y-32750
X41750Y-33750
X41750Y-34750
X41750Y-35750
X41750Y-36750
X41750Y-37750
X41750Y-38750
X41750Y-39750
X41750Y-40750
X41750Y-41750
X41750Y-42750
X41750Y-43750
X41750Y-44750
X41750Y-45750
X41750Y-46750
X41750Y-47750
X41750Y-48750
X41750Y-49750
X41750Y-50750
X42750Y-25750
X42750Y-26750
X42750Y-27750
X42750Y-28750
X42750Y-29750
X42750Y-30750
X42750Y-31750
X42750Y-32750
X42750Y-33750
X42750Y-34750
X42750Y-35750
X42750Y-36750
X42750Y-37750
X42750Y-38750
X42750Y-39750
X42750Y-40750
X42750Y-41750
X42750Y-42750
X42750Y-43750
X42750Y-44750
X42750Y-45750
X42750Y-46750
X42750Y-47750
X42750Y-48750
X42750Y-49750
X42750Y-50750
X43750Y-25750
X43750Y-26750
X43750Y-27750
X43750Y-28750
X43750Y-29750
X43750Y-30750
X43750Y-31750
X43750Y-32750
X43750Y-33750
X43750Y-34750
X43750Y-35750
X43750Y-36750
X43750Y-37750
X43750Y-38750
X43750Y-39750
X43750Y-40750
X43750Y-41750
X43750Y-42750
X43750Y-43750
X43750Y-44750
X43750Y-45750
X43750Y-46750
X43750Y-47750
X43750Y-48750
X43750Y-49750
X43750Y-50750
X44750Y-25750
X44750Y-26750
X44750Y-27750
X44750Y-28750
X44750Y-29750
X44750Y-30750
X44750Y-31750
X44750Y-32750
X44750Y-33750
X44750Y-34750
X44750Y-35750
X44750Y-36750
X44750Y-37750
X44750Y-38750
X44750Y-39750
X44750Y-40750
X44750Y-41750
X44750Y-42750
X44750Y-43750
X44750Y-44750
X44750Y-45750
X44750Y-46750
X44750Y-47750
X44750Y-48750
X44750Y-49750
X44750Y-50750
X45750Y-25750
X45750Y-26750
X45750Y-27750
X45750Y-28750
X45750Y-29750
X45750Y-30750
X45750Y-31750
X45750Y-32750
X45750Y-33750
X45750Y-34750
X45750Y-35750
X45750Y-36750
X45750Y-37750
X45750Y-38750
X45750Y-39750
X45750Y-40750
X45750Y-41750
X45750Y-42750
X45750Y-43750
X45750Y-44750
X45750Y-45750
X45750Y-46750
X45750Y-47750
X45750Y-48750
X45750Y-49750
X45750Y-50750
X46750Y-25750
X46750Y-26750
X46750Y-27750
X46750Y-28750
X46750Y-29750
X46750Y-30750
X46750Y-31750
X46750Y-32750
X46750Y-33750
X46750Y-34750
X46750Y-35750
X46750Y-36750
X46750Y-37750
X46750Y-38750
X46750Y-39750
X46750Y-40750
X46750Y-41750
X46750Y-42750
X46750Y-43750
X46750Y-44750
X46750Y-45750
X46750Y-46750
X46750Y-47750
X46750Y-48750
X46750Y-49750
X46750Y-50750
X47750Y-25750
X47750Y-26750
X47750Y-27750
X47750Y-28750
X47750Y-29750
X47750Y-30750
X47750Y-31750
X47750Y-32750
X47750Y-33750
X47750Y-34750
X47750Y-35750
X47750Y-36750
X47750Y-37750
X47750Y-38750
X47750Y-39750
X47750Y-40750
X47750Y-41750
X47750Y-42750
X47750Y-43750
X47750Y-44750
X47750Y-45750
X47750Y-46750
X47750Y-47750
X47750Y-48750
X47750Y-49750
X47750Y-50750
X48750Y-25750
X48750Y-26750
X48750Y-27750
X48750Y-28750
X48750Y-29750
X48750Y-30750
X48750Y-31750
X48750Y-32750
X48750Y-33750
X48750Y-34750
X48750Y-35750
X48750Y-36750
X48750Y-37750
X48750Y-38750
X48750Y-39750
X48750Y-40750
X48750Y-41750
X48750Y-42750
X48750Y-43750
X48750Y-44750
X48750Y-45750
X48750Y-46750
X48750Y-47750
X48750Y-48750
X48750Y-49750
X48750Y-50750
X49750Y-25750
X49750Y-26750
X49750Y-27750
X49750Y-28750
X49750Y-29750
X49750Y-30750
X49750Y-31750
X49750Y-32750
X49750Y-33750
X49750Y-34750
X49750Y-35750
X49750Y-36750
X49750Y-37750
X49750Y-38750
X49750Y-39750
X49750Y-40750
X49750Y-41750
X49750Y-42750
X49750Y-43750
X49750Y-44750
X49750Y-45750
X49750Y-46750
X49750Y-47750
X49750Y-48750
X49750Y-49750
X49750Y-50750
X50750Y-25750
X50750Y-26750
X50750Y-27750
X50750Y-28750
X50750Y-29750
X50750Y-30750
X50750Y-31750
X50750Y-32750
X50750Y-33750
X50750Y-34750
X50750Y-35750
X50750Y-36750
X50750Y-37750
X50750Y-38750
X50750Y-39750
X50750Y-40750
X50750Y-41750
X50750Y-42750
X50750Y-43750
X50750Y-44750
X50750Y-45750
X50750Y-46750
X50750Y-47750
X50750Y-48750
X50750Y-49750
X50750Y-50750
X51750Y-25750
X51750Y-26750
X51750Y-27750
X51750Y-28750
X51750Y-29750
X51750Y-30750
X51750Y-31750
X51750Y-32750
X51750Y-33750
X51750Y-34750
X51750Y-35750
X51750Y-36750
X51750Y-37750
X51750Y-38750
X51750Y-39750
X51750Y-40750
X51750Y-41750
X51750Y-42750
X51750Y-43750
X51750Y-44750
X51750Y-45750
X51750Y-46750
X51750Y-47750
X51750Y-48750
X51750Y-49750
X51750Y-50750
X52750Y-25750
X52750Y-26750
X52750Y-27750
X52750Y-28750
X52750Y-29750
X52750Y-30750
X52750Y-31750
X52750Y-32750
X52750Y-33750
X52750Y-34750
X52750Y-35750
X52750Y-36750
X52750Y-37750
X52750Y-38750
X52750Y-39750
X52750Y-40750
X52750Y-41750
X52750Y-42750
X52750Y-43750
X52750Y-44750
X52750Y-45750
X52750Y-46750
X52750Y-47750
X52750Y-48750
X52750Y-49750
X52750Y-50750
X53750Y-25750
X53750Y-26750
X53750Y-27750
X53750Y-28750
X53750Y-29750
X53750Y-30750
X53750Y-31750
X53750Y-32750
X53750Y-33750
X53750Y-34750
X53750Y-35750
X53750Y-36750
X53750Y-37750
X53750Y-38750
X53750Y-39750
X53750Y-40750
X53750Y-41750
X53750Y-42750
X53750Y-43750
X53750Y-44750
X53750Y-45750
X53750Y-46750
X53750Y-47750
X53750Y-48750
X53750Y-49750
X53750Y-50750
X54750Y-25750
X54750Y-26750
X54750Y-27750
X54750Y-28750
X54750Y-29750
X54750Y-30750
X54750Y-31750
X54750Y-32750
X54750Y-33750
X54750Y-34750
X54750Y-35750
X54750Y-36750
X54750Y-37750
X54750Y-38750
X54750Y-39750
X54750Y-40750
X54750Y-41750
X54750Y-42750
X54750Y-43750
X54750Y-44750
X54750Y-45750
X54750Y-46750
X54750Y-47750
X54750Y-48750
X54750Y-49750
X54750Y-50750
X55750Y-25750
X55750Y-26750
X55750Y-27750
X55750Y-28750
X55750Y-29750
X55750Y-30750
X55750Y-31750
X55750Y-32750
X55750Y-33750
X55750Y-34750
X55750Y-35750
X55750Y-36750
X55750Y-37750
X55750Y-38750
X55750Y-39750
X55750Y-40750
X55750Y-41750
X55750Y-42750
X55750Y-43750
X55750Y-44750
X55750Y-45750
X55750Y-46750
X55750Y-47750
X55750Y-48750
X55750Y-49750
X55750Y-50750
X56750Y-25750
X56750Y-26750
X56750Y-27750
X56750Y-28750
X56750Y-29750
X56750Y-30750
X56750Y-31750
X56750Y-32750
X56750Y-33750
X56750Y-34750
X56750Y-35750
X56750Y-36750
X56750Y-37750
X56750Y-38750
X56750Y-39750
X56750Y-40750
X56750Y-41750
X56750Y-42750
X56750Y-43750
X56750Y-44750
X56750Y-45750
X56750Y-46750
X56750Y-47750
X56750Y-48750
X56750Y-49750
X56750Y-50750
X57750Y-25750
X57750Y-26750
X57750Y-27750
X57750Y-28750
X57750Y-29750
X57750Y-30750
X57750Y-31750
X57750Y-32750
X57750Y-33750
X57750Y-34750
X57750Y-35750
X57750Y-36750
X57750Y-37750
X57750Y-38750
X57750Y-39750
X57750Y-40750
X57750Y-41750
X57750Y-42750
X57750Y-43750
X57750Y-44750
X57750Y-45750
X57750Y-46750
X57750Y-47750
X57750Y-48750
X57750Y-49750
X57750Y-50750
X58750Y-25750
X58750Y-26750
X58750Y-27750
X58750Y-28750
X58750Y-29750
X58750Y-30750
X58750Y-31750
X58750Y-32750
X58750Y-33750
X58750Y-34750
X58750Y-35750
X58750Y-36750
X58750Y-37750
X58750Y-38750
X58750Y-39750
X58750Y-40750
X58750Y-41750
X58750Y-42750
X58750Y-43750
X58750Y-44750
X58750Y-45750
X58750Y-46750
X58750Y-47750
X58750Y-48750
X58750Y-49750
X58750Y-50750
X59750Y-25750
X59750Y-26750
X59750Y-27750
X59750Y-28750
X59750Y-29750
X59750Y-30750
X59750Y-31750
X59750Y-32750
X59750Y-33750
X59750Y-34750
X59750Y-35750
X59750Y-36750
X59750Y-37750
X59750Y-38750
X59750Y-39750
X59750Y-40750
X59750Y-41750
X59750Y-42750
X59750Y-43750
X59750Y-44750
X59750Y-45750
X59750Y-46750
X59750Y-47750
X59750Y-48750
X59750Y-49750
X59750Y-50750
X60750Y-25750
X60750Y-26750
X60750Y-27750
X60750Y-28750
X60750Y-29750
X60750Y-30750
X60750Y-31750
X60750Y-32750
X60750Y-33750
X60750Y-34750
X60750Y-35750
X60750Y-36750
X60750Y-37750
X60750Y-38750
X60750Y-39750
X60750Y-40750
X60750Y-41750
X60750Y-42750
X60750Y-43750
X60750Y-44750
X60750Y-45750
X60750Y-46750
X60750Y-47750
X60750Y-48750
X60750Y-49750
X60750Y-50750
X61750Y-25750
X61750Y-26750
X61750Y-27750
X61750Y-28750
X61750Y-29750
X61750Y-30750
X61750Y-31750
X61750Y-32750
X61750Y-33750
X61750Y-34750
X61750Y-35750
X61750Y-36750
X61750Y-37750
X61750Y-38750
X61750Y-39750
X61750Y-40750
X61750Y-41750
X61750Y-42750
X61750Y-43750
X61750Y-44750
X61750Y-45750
X61750Y-46750
X61750Y-47750
X61750Y-48750
X61750Y-49750
X61750Y-50750
X62750Y-25750
X62750Y-26750
X62750Y-27750
X62750Y-28750
X62750Y-29750
X62750Y-30750
X62750Y-31750
X62750Y-32750
X62750Y-33750
X62750Y-34750
X62750Y-35750
X62750Y-36750
X62750Y-37750
X62750Y-38750
X62750Y-39750
X62750Y-40750
X62750Y-41750
X62750Y-42750
X62750Y-43750
X62750Y-44750
X62750Y-45750
X62750Y-46750
X62750Y-47750
X62750Y-48750
X62750Y-49750
X62750Y-50750
X63750Y-25750
X63750Y-26750
X63750Y-27750
X63750Y-28750
X63750Y-29750
X63750Y-30750
X63750Y-31750
X63750Y-32750
X63750Y-33750
X63750Y-34750
X63750Y-35750
X63750Y-36750
X63750Y-37750
X63750Y-38750
X63750Y-39750
X63750Y-40750
X63750Y-41750
X63750Y-42750
X63750Y-43750
X63750Y-44750
X63750Y-45750
X63750Y-46750
X63750Y-47750
X63750Y-48750
X63750Y-49750
X63750Y-50750
X64750Y-25750
X64750Y-26750
X64750Y-27750
X64750Y-28750
X64750Y-29750
X64750Y-30750
X64750Y-31750
X64750Y-32750
X64750Y-33750
X64750Y-34750
X64750Y-35750
X64750Y-36750
X64750Y-37750
X64750Y-38750
X64750Y-39750
X64750Y-40750
X64750Y-41750
X64750Y-42750
X64750Y-43750
X64750Y-44750
X64750Y-45750
X64750Y-46750
X64750Y-47750
X64750Y-48750
X64750Y-49750
X64750Y-50750
X65750Y-25750
X65750Y-26750
X65750Y-27750
X65750Y-28750
X65750Y-29750
X65750Y-30750
X65750Y-31750
X65750Y-32750
X65750Y-33750
X65750Y-34750
X65750Y-35750
X65750Y-36750
X65750Y-37750
X65750Y-38750
X65750Y-39750
X65750Y-40750
X65750Y-41750
X65750Y-42750
X65750Y-43750
X65750Y-44750
X65750Y-45750
X65750Y-46750
X65750Y-47750
X65750Y-48750
X65750Y-49750
X65750Y-50750
X66750Y-25750
X66750Y-26750
X66750Y-27750
X66750Y-28750
X66750Y-29750
X66750Y-30750
X66750Y-31750
X66750Y-32750
X66750Y-33750
X66750Y-34750
X66750Y-35750
X66750Y-36750
X66750Y-37750
X66750Y-38750
X66750Y-39750
X66750Y-40750
X66750Y-41750
X66750Y-42750
X66750Y-43750
X66750Y-44750
X66750Y-45750
X66750Y-46750
X66750Y-47750
X66750Y-48750
X66750Y-49750
X66750Y-50750
X67750Y-25750
X67750Y-26750
X67750Y-27750
X67750Y-28750
X67750Y-29750
X67750Y-30750
X67750Y-31750
X67750Y-32750
X67750Y-33750
X67750Y-34750
X67750Y-35750
X67750Y-36750
X67750Y-37750
X67750Y-38750
X67750Y-39750
X67750Y-40750
X67750Y-41750
X67750Y-42750
X67750Y-43750
X67750Y-44750
X67750Y-45750
X67750Y-46750
X67750Y-47750
X67750Y-48750
X67750Y-49750
X67750Y-50750
X68750Y-25750
X68750Y-26750
X68750Y-27750
X68750Y-28750
X68750Y-29750
X68750Y-30750
X68750Y-31750
X68750Y-32750
X68750Y-33750
X68750Y-34750
X68750Y-35750
X68750Y-36750
X68750Y-37750
X68750Y-38750
X68750Y-39750
X68750Y-40750
X68750Y-41750
X68750Y-42750
X68750Y-43750
X68750Y-44750
X68750Y-45750
X68750Y-46750
X68750Y-47750
X68750Y-48750
X68750Y-49750
X68750Y-50750
X69750Y-25750
X69750Y-26750
X69750Y-27750
X69750Y-28750
X69750Y-29750
X69750Y-30750
X69750Y-31750
X69750Y-32750
X69750Y-33750
X69750Y-34750
X69750Y-35750
X69750Y-36750
X69750Y-37750
X69750Y-38750
X69750Y-39750
X69750Y-40750
X69750Y-41750
X69750Y-42750
X69750Y-43750
X69750Y-44750
X69750Y-45750
X69750Y-46750
X69750Y-47750
X69750Y-48750
X69750Y-49750
X69750Y-50750
X70750Y-25750
X70750Y-26750
X70750Y-27750
X70750Y-28750
X70750Y-29750
X70750Y-30750
X70750Y-31750
X70750Y-32750
X70750Y-33750
X70750Y-34750
X70750Y-35750
X70750Y-36750
X70750Y-37750
X70750Y-38750
X70750Y-39750
X70750Y-40750
X70750Y-41750
X70750Y-42750
X70750Y-43750
X70750Y-44750
X70750Y-45750
X70750Y-46750
X70750Y-47750
X70750Y-48750
X70750Y-49750
X70750Y-50750
X71750Y-25750
X71750Y-26750
X71750Y-27750
X71750Y-28750
X71750Y-29750
X71750Y-30750
X71750Y-31750
X71750Y-32750
X71750Y-33750
X71750Y-34750
X71750Y-35750
X71750Y-36750
X71750Y-37750
X71750Y-38750
X71750Y-39750
X71750Y-40750
X71750Y-41750
X71750Y-42750
X71750Y-43750
X71750Y-44750
X71750Y-45750
X71750Y-46750
X71750Y-47750
X71750Y-48750
X71750Y-49750
X71750Y-50750
X72750Y-25750
X72750Y-26750
X72750Y-27750
X72750Y-28750
X72750Y-29750
X72750Y-30750
X72750Y-31750
X72750Y-32750
X72750Y-33750
X72750Y-34750
X72750Y-35750
X72750Y-36750
X72750Y-37750
X72750Y-38750
X72750Y-39750
X72750Y-40750
X72750Y-41750
X72750Y-42750
X72750Y-43750
X72750Y-44750
X72750Y-45750
X72750Y-46750
X72750Y-47750
X72750Y-48750
X72750Y-49750
X72750Y-50750
X73750Y-25750
X73750Y-26750
X73750Y-27750
X73750Y-28750
X73750Y-29750
X73750Y-30750
X73750Y-31750
X73750Y-32750
X73750Y-33750
X73750Y-34750
X73750Y-35750
X73750Y-36750
X73750Y-37750
X73750Y-38750
X73750Y-39750
X73750Y-40750
X73750Y-41750
X73750Y-42750
X73750Y-43750
X73750Y-44750
X73750Y-45750
X73750Y-46750
X73750Y-47750
X73750Y-48750
X73750Y-49750
X73750Y-50750
X74750Y-25750
X74750Y-26750
X74750Y-27750
X74750Y-28750
X74750Y-29750
X74750Y-30750
X74750Y-31750
X74750Y-32750
X74750Y-33750
X74750Y-34750
X74750Y-35750
X74750Y-36750
X74750Y-37750
X74750Y-38750
X74750Y-39750
X74750Y-40750
X74750Y-41750
X74750Y-42750
X74750Y-43750
X74750Y-44750
X74750Y-45750
X74750Y-46750
X74750Y-47750
X74750Y-48750
X74750Y-49750
X74750Y-50750
X75750Y-25750
X75750Y-26750
X75750Y-27750
X75750Y-28750
X75750Y-29750
X75750Y-30750
X75750Y-31750
X75750Y-32750
X75750Y-33750
X75750Y-34750
X75750Y-35750
X75750Y-36750
X75750Y-37750
X75750Y-38750
X75750Y-39750
X75750Y-40750
X75750Y-41750
X75750Y-42750
X75750Y-43750
X75750Y-44750
X75750Y-45750
X75750Y-46750
X75750Y-47750
X75750Y-48750
X75750Y-49750
X75750Y-50750
X76750Y-25750
X76750Y-26750
X76750Y-27750
X76750Y-28750
X76750Y-29750
X76750Y-30750
X76750Y-31750
X76750Y-32750
X76750Y-33750
X76750Y-34750
X76750Y-35750
X76750Y-36750
X76750Y-37750
X76750Y-38750
X76750Y-39750
X76750Y-40750
X76750Y-41750
X76750Y-42750
X76750Y-43750
X76750Y-44750
X76750Y-45750
X76750Y-46750
X76750Y-47750
X77750Y-25750
X77750Y-26750
X77750Y-27750
X77750Y-28750
X77750Y-29750
X77750Y-30750
X77750Y-31750
X77750Y-32750
X77750Y-33750
X77750Y-34750
X77750Y-35750
X77750Y-36750
X77750Y-37750
X77750Y-38750
X77750Y-39750
X77750Y-40750
X77750Y-41750
X77750Y-42750
X77750Y-43750
X77750Y-44750
X77750Y-45750
X77750Y-46750
X77750Y-47750
X78750Y-25750
X78750Y-26750
X78750Y-27750
X78750Y-28750
X78750Y-29750
X78750Y-30750
X78750Y-31750
X78750Y-32750
X78750Y-33750
X78750Y-34750
X78750Y-35750
X78750Y-36750
X78750Y-37750
X78750Y-38750
X78750Y-39750
X78750Y-40750
X78750Y-41750
X78750Y-42750
X78750Y-43750
X78750Y-44750
X78750Y-45750
X78750Y-46750
X78750Y-47750
X79750Y-25750
X79750Y-26750
X79750Y-27750
X79750Y-28750
X79750Y-29750
X79750Y-30750
X79750Y-31750
X79750Y-32750
X79750Y-33750
X79750Y-34750
X79750Y-35750
X79750Y-36750
X79750Y-37750
X79750Y-38750
X79750Y-39750
X79750Y-40750
X79750Y-41750
X79750Y-42750
X79750Y-43750
X79750Y-44750
X79750Y-45750
X79750Y-46750
X79750Y-47750
X80750Y-25750
X80750Y-26750
X80750Y-27750
X80750Y-28750
X80750Y-29750
X80750Y-30750
X80750Y-31750
X80750Y-32750
X80750Y-33750
X80750Y-34750
X80750Y-35750
X80750Y-36750
X80750Y-37750
X80750Y-38750
X80750Y-39750
X80750Y-40750
X80750Y-41750
X80750Y-42750
X80750Y-43750
X80750Y-44750
X80750Y-45750
X80750Y-46750
X80750Y-47750
X81750Y-25750
X81750Y-26750
X81750Y-27750
X81750Y-28750
X81750Y-29750
X81750Y-30750
X81750Y-31750
X81750Y-32750
X81750Y-33750
X81750Y-34750
X81750Y-35750
X81750Y-36750
X81750Y-37750
X81750Y-38750
X81750Y-39750
X81750Y-40750
X81750Y-41750
X81750Y-42750
X81750Y-43750
X81750Y-44750
X81750Y-45750
X81750Y-46750
X81750Y-47750
X82750Y-25750
X82750Y-26750
X82750Y-27750
X82750Y-28750
X82750Y-29750
X82750Y-30750
X82750Y-31750
X82750Y-32750
X82750Y-33750
X82750Y-34750
X82750Y-35750
X82750Y-36750
X82750Y-37750
X82750Y-38750
X82750Y-39750
X82750Y-40750
X82750Y-41750
X82750Y-42750
X82750Y-43750
X82750Y-44750
X82750Y-45750
X82750Y-46750
X82750Y-47750
X83750Y-25750
X83750Y-26750
X83750Y-27750
X83750Y-28750
X83750Y-29750
X83750Y-30750
X83750Y-31750
X83750Y-32750
X83750Y-33750
X83750Y-34750
X83750Y-35750
X83750Y-36750
X83750Y-37750
X83750Y-38750
X83750Y-39750
X83750Y-40750
X83750Y-41750
X83750Y-42750
X83750Y-43750
X83750Y-44750
X83750Y-45750
X83750Y-46750
X83750Y-47750
X84750Y-25750
X84750Y-26750
X84750Y-27750
X84750Y-28750
X84750Y-29750
X84750Y-30750
X84750Y-31750
X84750Y-32750
X84750Y-33750
X84750Y-34750
X84750Y-35750
X84750Y-36750
X84750Y-37750
X84750Y-38750
X84750Y-39750
X84750Y-40750
X84750Y-41750
X84750Y-42750
X84750Y-43750
X84750Y-44750
X84750Y-45750
X84750Y-46750
X84750Y-47750
X85750Y-25750
X85750Y-26750
X85750Y-27750
X85750Y-28750
X85750Y-29750
X85750Y-30750
X85750Y-31750
X85750Y-32750
X85750Y-33750
X85750Y-34750
X85750Y-35750
X85750Y-36750
X85750Y-37750
X85750Y-38750
X85750Y-39750
X85750Y-40750
X85750Y-41750
X85750Y-42750
X85750Y-43750
X85750Y-44750
X85750Y-45750
X85750Y-46750
X85750Y-47750
X86750Y-25750
X86750Y-26750
X86750Y-27750
X86750Y-28750
X86750Y-29750
X86750Y-30750
X86750Y-31750
X86750Y-32750
X86750Y-33750
X86750Y-34750
X86750Y-35750
X86750Y-36750
X86750Y-37750
X86750Y-38750
X86750Y-39750
X86750Y-40750
X86750Y-41750
X86750Y-42750
X86750Y-43750
X86750Y-44750
X86750Y-45750
X86750Y-46750
X86750Y-47750
X87750Y-25750
X87750Y-26750
X87750Y-27750
X87750Y-28750
X87750Y-29750
X87750Y-30750
X87750Y-31750
X87750Y-32750
X87750Y-33750
X87750Y-34750
X87750Y-35750
X87750Y-36750
X87750Y-37750
X87750Y-38750
X87750Y-39750
X87750Y-40750
X87750Y-41750
X87750Y-42750
X87750Y-43750
X87750Y-44750
X87750Y-45750
X87750Y-46750
X87750Y-47750
X88750Y-25750
X88750Y-26750
X88750Y-27750
X88750Y-28750
X88750Y-29750
X88750Y-30750
X88750Y-31750
X88750Y-32750
X88750Y-33750
X88750Y-34750
X88750Y-35750
X88750Y-36750
X88750Y-37750
X88750Y-38750
X88750Y-39750
X88750Y-40750
X88750Y-41750
X88750Y-42750
X88750Y-43750
X88750Y-44750
X88750Y-45750
X88750Y-46750
X88750Y-47750
X89750Y-25750
X89750Y-26750
X89750Y-27750
X89750Y-28750
X89750Y-29750
X89750Y-30750
X89750Y-31750
X89750Y-32750
X89750Y-33750
X89750Y-34750
X89750Y-35750
X89750Y-36750
X89750Y-37750
X89750Y-38750
X89750Y-39750
X89750Y-40750
X89750Y-41750
X89750Y-42750
X89750Y-43750
X89750Y-44750
X89750Y-45750
X89750Y-46750
X89750Y-47750
X90750Y-25750
X90750Y-26750
X90750Y-27750
X90750Y-28750
X90750Y-29750
X90750Y-30750
X90750Y-31750
X90750Y-32750
X90750Y-33750
X90750Y-34750
X90750Y-35750
X90750Y-36750
X90750Y-37750
X90750Y-38750
X90750Y-39750
X90750Y-40750
X90750Y-41750
X90750Y-42750
X90750Y-43750
X90750Y-44750
X90750Y-45750
X90750Y-46750
X90750Y-47750
X91750Y-25750
X91750Y-26750
X91750Y-27750
X91750Y-28750
X91750Y-29750
X91750Y-30750
X91750Y-31750
X91750Y-32750
X91750Y-33750
X91750Y-34750
X91750Y-35750
X91750Y-36750
X91750Y-37750
X91750Y-38750
X91750Y-39750
X91750Y-40750
X91750Y-41750
X91750Y-42750
X91750Y-43750
X91750Y-44750
X91750Y-45750
X91750Y-46750
X91750Y-47750
X92750Y-25750
X92750Y-26750
X92750Y-27750
X92750Y-28750
X92750Y-29750
X92750Y-30750
X92750Y-31750
X92750Y-32750
X92750Y-33750
X92750Y-34750
X92750Y-35750
X92750Y-36750
X92750Y-37750
X92750Y-38750
X92750Y-39750
X92750Y-40750
X92750Y-41750
X92750Y-42750
X92750Y-43750
X92750Y-44750
X92750Y-45750
X92750Y-46750
X92750Y-47750
X93750Y-25750
X93750Y-26750
X93750Y-27750
X93750Y-28750
X93750Y-29750
X93750Y-30750
X93750Y-31750
X93750Y-32750
X93750Y-33750
X93750Y-34750
X93750Y-35750
X93750Y-36750
X93750Y-37750
X93750Y-38750
X93750Y-39750
X93750Y-40750
X93750Y-41750
X93750Y-42750
X93750Y-43750
X93750Y-44750
X93750Y-45750
X93750Y-46750
X93750Y-47750
X94750Y-25750
X94750Y-26750
X94750Y-27750
X94750Y-28750
X94750Y-29750
X94750Y-30750
X94750Y-31750
X94750Y-32750
X94750Y-33750
X94750Y-34750
X94750Y-35750
X94750Y-36750
X94750Y-37750
X94750Y-38750
X94750Y-39750
X94750Y-40750
X94750Y-41750
X94750Y-42750
X94750Y-43750
X94750Y-44750
X94750Y-45750
X94750Y-46750
X94750Y-47750
X95750Y-25750
X95750Y-26750
X95750Y-27750
X95750Y-28750
X95750Y-29750
X95750Y-30750
X95750Y-31750
X95750Y-32750
X95750Y-33750
X95750Y-34750
X95750Y-35750
X95750Y-36750
X95750Y-37750
X95750Y-38750
X95750Y-39750
X95750Y-40750
X95750Y-41750
X95750Y-42750
X95750Y-43750
X95750Y-44750
X95750Y-45750
X95750Y-46750
X95750Y-47750
X96750Y-25750
X96750Y-26750
X96750Y-27750
X96750Y-28750
X96750Y-29750
X96750Y-30750
X96750Y-31750
X96750Y-32750
X96750Y-33750
X96750Y-34750
X96750Y-35750
X96750Y-36750
X96750Y-37750
X96750Y-38750
X96750Y-39750
X96750Y-40750
X96750Y-41750
X96750Y-42750
X96750Y-43750
X96750Y-44750
X96750Y-45750
X96750Y-46750
X96750Y-47750
X97750Y-25750
X97750Y-26750
X97750Y-27750
X97750Y-28750
X97750Y-29750
X97750Y-30750
X97750Y-31750
X97750Y-32750
X97750Y-33750
X97750Y-34750
X97750Y-35750
X97750Y-36750
X97750Y-37750
X97750Y-38750
X97750Y-39750
X97750Y-40750
X97750Y-41750
X97750Y-42750
X97750Y-43750
X97750Y-44750
X97750Y-45750
X97750Y-46750
X97750Y-47750
X98750Y-25750
X98750Y-26750
X98750Y-27750
X98750Y-28750
X98750Y-29750
X98750Y-30750
X98750Y-31750
X98750Y-32750
X98750Y-33750
X98750Y-34750
X98750Y-35750
X98750Y-36750
X98750Y-37750
X98750Y-38750
X98750Y-39750
X98750Y-40750
X98750Y-41750
X98750Y-42750
X98750Y-43750
X98750Y-44750
X98750Y-45750
X98750Y-46750
X98750Y-47750
X99750Y-25750
X99750Y-26750
X99750Y-27750
X99750Y-28750
X99750Y-29750
X99750Y-30750
X99750Y-31750
X99750Y-32750
X99750Y-33750
X99750Y-34750
X99750Y-35750
X99750Y-36750
X99750Y-37750
X99750Y-38750
X99750Y-39750
X99750Y-40750
X99750Y-41750
X99750Y-42750
X99750Y-43750
X99750Y-44750
X99750Y-45750
X99750Y-46750
X99750Y-47750
X100750Y-25750
X100750Y-26750
X100750Y-27750
X100750Y-28750
X100750Y-29750
X100750Y-30750
X100750Y-31750
X100750Y-32750
X100750Y-33750
X100750Y-34750
X100750Y-35750
X100750Y-36750
X100750Y-37750
X100750Y-38750
X100750Y-39750
X100750Y-40750
X100750Y-41750
X100750Y-42750
X100750Y-43750
X100750Y-44750
X100750Y-45750
X100750Y-46750
X100750Y-47750
X101750Y-25750
X101750Y-26750
X101750Y-27750
X101750Y-28750
X101750Y-29750
X101750Y-30750
X101750Y-31750
X101750Y-32750
X101750Y-33750
X101750Y-34750
X101750Y-35750
X101750Y-36750
X101750Y-37750
X101750Y-38750
X101750Y-39750
X101750Y-40750
X101750Y-41750
X101750Y-42750
X101750Y-43750
X101750Y-44750
X101750Y-45750
X101750Y-46750
X101750Y-47750
X102750Y-25750
X102750Y-26750
X102750Y-27750
X102750Y-28750
X102750Y-29750
X102750Y-30750
X102750Y-31750
X102750Y-32750
X102750Y-33750
X102750Y-34750
X102750Y-35750
X102750Y-36750
X102750Y-37750
X102750Y-38750
X102750Y-39750
X102750Y-40750
X102750Y-41750
X102750Y-42750
X102750Y-43750
X102750Y-44750
X102750Y-45750
X102750Y-46750
X102750Y-47750
X103750Y-25750
X103750Y-26750
X103750Y-27750
X103750Y-28750
X103750Y-29750
X103750Y-30750
X103750Y-31750
X103750Y-32750
X103750Y-33750
X103750Y-34750
X103750Y-35750
X103750Y-36750
X103750Y-37750
X103750Y-38750
X103750Y-39750
X103750Y-40750
X103750Y-41750
X103750Y-42750
X103750Y-43750
X103750Y-44750
X103750Y-45750
X103750Y-46750
X103750Y-47750
X103750Y-48750
X103750Y-49750
X103750Y-50750
X104750Y-25750
X104750Y-26750
X104750Y-27750
X104750Y-28750
X104750Y-29750
X104750Y-30750
X104750Y-31750
X104750Y-32750
X104750Y-33750
X104750Y-34750
X104750Y-35750
X104750Y-36750
X104750Y-37750
X104750Y-38750
X104750Y-39750
X104750Y-40750
X104750Y-41750
X104750Y-42750
X104750Y-43750
X104750Y-44750
X104750Y-45750
X104750Y-46750
X104750Y-47750
X104750Y-48750
X104750Y-49750
X104750Y-50750
X105750Y-25750
X105750Y-26750
X105750Y-27750
X105750Y-28750
X105750Y-29750
X105750Y-30750
X105750Y-31750
X105750Y-32750
X105750Y-33750
X105750Y-34750
X105750Y-35750
X105750Y-36750
X105750Y-37750
X105750Y-38750
X105750Y-39750
X105750Y-40750
X105750Y-41750
X105750Y-42750
X105750Y-43750
X105750Y-44750
X105750Y-45750
X105750Y-46750
X105750Y-47750
X105750Y-48750
X105750Y-49750
X105750Y-50750
T2
X77750Y-49750
X77750Y-50750
X78750Y-49750
X78750Y-50750
X79750Y-49750
X79750Y-50750
X80750Y-49750
X80750Y-50750
X81750Y-49750
X81750Y-50750
X82750Y-49750
X82750Y-50750
X83750Y-49750
X83750Y-50750
X84750Y-49750
X84750Y-50750
X85750Y-49750
X85750Y-50750
X86750Y-49750
X86750Y-50750
X87750Y-49750
X87750Y-50750
X88750Y-49750
X88750Y-50750
X89750Y-49750
X89750Y-50750
X90750Y-49750
X90750Y-50750
X91750Y-49750
X91750Y-50750
X92750Y-49750
X92750Y-50750
X93750Y-49750
X93750Y-50750
X94750Y-49750
X94750Y-50750
X95750Y-49750
X95750Y-50750
X96750Y-49750
X96750Y-50750
X97750Y-49750
X97750Y-50750
X98750Y-49750
X98750Y-50750
X99750Y-49750
X99750Y-50750
X100750Y-49750
X100750Y-50750
X101750Y-49750
X101750Y-50750
T0
M30
