G04 #@! TF.FileFunction,Legend,Bot*
%FSLAX46Y46*%
G04 Gerber Fmt 4.6, Leading zero omitted, Abs format (unit mm)*
G04 Created by KiCad (PCBNEW 4.0.7) date 08/21/19 17:34:07*
%MOMM*%
%LPD*%
G01*
G04 APERTURE LIST*
%ADD10C,0.100000*%
%ADD11C,0.150000*%
%ADD12C,0.200000*%
G04 APERTURE END LIST*
D10*
D11*
X35480239Y-131262381D02*
X35480239Y-130262381D01*
X35385001Y-130881429D02*
X35099286Y-131262381D01*
X35099286Y-130595714D02*
X35480239Y-130976667D01*
X34289762Y-131214762D02*
X34385000Y-131262381D01*
X34575477Y-131262381D01*
X34670715Y-131214762D01*
X34718334Y-131119524D01*
X34718334Y-130738571D01*
X34670715Y-130643333D01*
X34575477Y-130595714D01*
X34385000Y-130595714D01*
X34289762Y-130643333D01*
X34242143Y-130738571D01*
X34242143Y-130833810D01*
X34718334Y-130929048D01*
X33908810Y-130595714D02*
X33670715Y-131262381D01*
X33432619Y-130595714D02*
X33670715Y-131262381D01*
X33765953Y-131500476D01*
X33813572Y-131548095D01*
X33908810Y-131595714D01*
X33051667Y-131262381D02*
X33051667Y-130262381D01*
X33051667Y-130643333D02*
X32956429Y-130595714D01*
X32765952Y-130595714D01*
X32670714Y-130643333D01*
X32623095Y-130690952D01*
X32575476Y-130786190D01*
X32575476Y-131071905D01*
X32623095Y-131167143D01*
X32670714Y-131214762D01*
X32765952Y-131262381D01*
X32956429Y-131262381D01*
X33051667Y-131214762D01*
X32004048Y-131262381D02*
X32099286Y-131214762D01*
X32146905Y-131167143D01*
X32194524Y-131071905D01*
X32194524Y-130786190D01*
X32146905Y-130690952D01*
X32099286Y-130643333D01*
X32004048Y-130595714D01*
X31861190Y-130595714D01*
X31765952Y-130643333D01*
X31718333Y-130690952D01*
X31670714Y-130786190D01*
X31670714Y-131071905D01*
X31718333Y-131167143D01*
X31765952Y-131214762D01*
X31861190Y-131262381D01*
X32004048Y-131262381D01*
X30813571Y-131262381D02*
X30813571Y-130738571D01*
X30861190Y-130643333D01*
X30956428Y-130595714D01*
X31146905Y-130595714D01*
X31242143Y-130643333D01*
X30813571Y-131214762D02*
X30908809Y-131262381D01*
X31146905Y-131262381D01*
X31242143Y-131214762D01*
X31289762Y-131119524D01*
X31289762Y-131024286D01*
X31242143Y-130929048D01*
X31146905Y-130881429D01*
X30908809Y-130881429D01*
X30813571Y-130833810D01*
X30337381Y-131262381D02*
X30337381Y-130595714D01*
X30337381Y-130786190D02*
X30289762Y-130690952D01*
X30242143Y-130643333D01*
X30146905Y-130595714D01*
X30051666Y-130595714D01*
X29289761Y-131262381D02*
X29289761Y-130262381D01*
X29289761Y-131214762D02*
X29384999Y-131262381D01*
X29575476Y-131262381D01*
X29670714Y-131214762D01*
X29718333Y-131167143D01*
X29765952Y-131071905D01*
X29765952Y-130786190D01*
X29718333Y-130690952D01*
X29670714Y-130643333D01*
X29575476Y-130595714D01*
X29384999Y-130595714D01*
X29289761Y-130643333D01*
D12*
X24765000Y-130810000D02*
X28575000Y-130810000D01*
X24765000Y-130810000D02*
X25400000Y-131445000D01*
X25400000Y-130175000D02*
X24765000Y-130810000D01*
D11*
X243205000Y-129540000D02*
X243205000Y-130810000D01*
X236483026Y-126365000D02*
G75*
G03X236483026Y-126365000I-898026J0D01*
G01*
X246643026Y-128905000D02*
G75*
G03X246643026Y-128905000I-898026J0D01*
G01*
X235585000Y-125730000D02*
X235585000Y-124460000D01*
X240665000Y-129540000D02*
X240665000Y-131445000D01*
X225425000Y-125730000D02*
X225425000Y-123825000D01*
X245745000Y-129540000D02*
X245745000Y-131445000D01*
X258445000Y-130810000D02*
X258445000Y-129540000D01*
X250825000Y-130810000D02*
X250825000Y-129540000D01*
X248285000Y-129540000D02*
X248285000Y-130810000D01*
X258445000Y-125730000D02*
X258445000Y-124460000D01*
X255905000Y-125730000D02*
X255905000Y-124460000D01*
X253365000Y-125730000D02*
X253365000Y-124460000D01*
X250825000Y-125730000D02*
X250825000Y-124460000D01*
X248285000Y-125730000D02*
X248285000Y-124460000D01*
X245745000Y-125730000D02*
X245745000Y-124460000D01*
X243205000Y-125730000D02*
X243205000Y-124460000D01*
X240665000Y-125730000D02*
X240665000Y-124460000D01*
X238125000Y-125730000D02*
X238125000Y-124460000D01*
X233045000Y-125730000D02*
X233045000Y-124460000D01*
X230505000Y-125730000D02*
X230505000Y-124460000D01*
X227965000Y-125730000D02*
X227965000Y-124460000D01*
X220345000Y-125730000D02*
X220345000Y-124460000D01*
X197485000Y-129540000D02*
X197485000Y-130810000D01*
X197485000Y-125730000D02*
X197485000Y-124460000D01*
X203200000Y-131445000D02*
X236855000Y-131445000D01*
X238125000Y-129540000D02*
X238125000Y-130810000D01*
X201930000Y-130810000D02*
X200660000Y-129540000D01*
X222885000Y-124460000D02*
X222885000Y-125730000D01*
X216535000Y-123825000D02*
X201295000Y-123825000D01*
X200025000Y-124460000D02*
X200025000Y-125730000D01*
X217805000Y-125730000D02*
X217805000Y-124460000D01*
X261746905Y-125912619D02*
X261699286Y-125865000D01*
X261604048Y-125817381D01*
X261365952Y-125817381D01*
X261270714Y-125865000D01*
X261223095Y-125912619D01*
X261175476Y-126007857D01*
X261175476Y-126103095D01*
X261223095Y-126245952D01*
X261794524Y-126817381D01*
X261175476Y-126817381D01*
X260318333Y-125817381D02*
X260508810Y-125817381D01*
X260604048Y-125865000D01*
X260651667Y-125912619D01*
X260746905Y-126055476D01*
X260794524Y-126245952D01*
X260794524Y-126626905D01*
X260746905Y-126722143D01*
X260699286Y-126769762D01*
X260604048Y-126817381D01*
X260413571Y-126817381D01*
X260318333Y-126769762D01*
X260270714Y-126722143D01*
X260223095Y-126626905D01*
X260223095Y-126388810D01*
X260270714Y-126293571D01*
X260318333Y-126245952D01*
X260413571Y-126198333D01*
X260604048Y-126198333D01*
X260699286Y-126245952D01*
X260746905Y-126293571D01*
X260794524Y-126388810D01*
X261746905Y-128452619D02*
X261699286Y-128405000D01*
X261604048Y-128357381D01*
X261365952Y-128357381D01*
X261270714Y-128405000D01*
X261223095Y-128452619D01*
X261175476Y-128547857D01*
X261175476Y-128643095D01*
X261223095Y-128785952D01*
X261794524Y-129357381D01*
X261175476Y-129357381D01*
X260270714Y-128357381D02*
X260746905Y-128357381D01*
X260794524Y-128833571D01*
X260746905Y-128785952D01*
X260651667Y-128738333D01*
X260413571Y-128738333D01*
X260318333Y-128785952D01*
X260270714Y-128833571D01*
X260223095Y-128928810D01*
X260223095Y-129166905D01*
X260270714Y-129262143D01*
X260318333Y-129309762D01*
X260413571Y-129357381D01*
X260651667Y-129357381D01*
X260746905Y-129309762D01*
X260794524Y-129262143D01*
X195183095Y-125817381D02*
X195659286Y-125817381D01*
X195706905Y-126293571D01*
X195659286Y-126245952D01*
X195564048Y-126198333D01*
X195325952Y-126198333D01*
X195230714Y-126245952D01*
X195183095Y-126293571D01*
X195135476Y-126388810D01*
X195135476Y-126626905D01*
X195183095Y-126722143D01*
X195230714Y-126769762D01*
X195325952Y-126817381D01*
X195564048Y-126817381D01*
X195659286Y-126769762D01*
X195706905Y-126722143D01*
X194516429Y-125817381D02*
X194421190Y-125817381D01*
X194325952Y-125865000D01*
X194278333Y-125912619D01*
X194230714Y-126007857D01*
X194183095Y-126198333D01*
X194183095Y-126436429D01*
X194230714Y-126626905D01*
X194278333Y-126722143D01*
X194325952Y-126769762D01*
X194421190Y-126817381D01*
X194516429Y-126817381D01*
X194611667Y-126769762D01*
X194659286Y-126722143D01*
X194706905Y-126626905D01*
X194754524Y-126436429D01*
X194754524Y-126198333D01*
X194706905Y-126007857D01*
X194659286Y-125912619D01*
X194611667Y-125865000D01*
X194516429Y-125817381D01*
X194659285Y-129357381D02*
X195230714Y-129357381D01*
X194945000Y-129357381D02*
X194945000Y-128357381D01*
X195040238Y-128500238D01*
X195135476Y-128595476D01*
X195230714Y-128643095D01*
D10*
X235984999Y-124141667D02*
X236218333Y-123808333D01*
X236384999Y-124141667D02*
X236384999Y-123441667D01*
X236118333Y-123441667D01*
X236051666Y-123475000D01*
X236018333Y-123508333D01*
X235984999Y-123575000D01*
X235984999Y-123675000D01*
X236018333Y-123741667D01*
X236051666Y-123775000D01*
X236118333Y-123808333D01*
X236384999Y-123808333D01*
X235684999Y-123775000D02*
X235451666Y-123775000D01*
X235351666Y-124141667D02*
X235684999Y-124141667D01*
X235684999Y-123441667D01*
X235351666Y-123441667D01*
X234818333Y-123775000D02*
X235051666Y-123775000D01*
X235051666Y-124141667D02*
X235051666Y-123441667D01*
X234718333Y-123441667D01*
X236734999Y-123186000D02*
X236768333Y-123219333D01*
X236868333Y-123252667D01*
X236934999Y-123252667D01*
X237034999Y-123219333D01*
X237101666Y-123152667D01*
X237134999Y-123086000D01*
X237168333Y-122952667D01*
X237168333Y-122852667D01*
X237134999Y-122719333D01*
X237101666Y-122652667D01*
X237034999Y-122586000D01*
X236934999Y-122552667D01*
X236868333Y-122552667D01*
X236768333Y-122586000D01*
X236734999Y-122619333D01*
X236301666Y-122552667D02*
X236168333Y-122552667D01*
X236101666Y-122586000D01*
X236034999Y-122652667D01*
X236001666Y-122786000D01*
X236001666Y-123019333D01*
X236034999Y-123152667D01*
X236101666Y-123219333D01*
X236168333Y-123252667D01*
X236301666Y-123252667D01*
X236368333Y-123219333D01*
X236434999Y-123152667D01*
X236468333Y-123019333D01*
X236468333Y-122786000D01*
X236434999Y-122652667D01*
X236368333Y-122586000D01*
X236301666Y-122552667D01*
X235368333Y-123252667D02*
X235701666Y-123252667D01*
X235701666Y-122552667D01*
X235001666Y-122552667D02*
X234868333Y-122552667D01*
X234801666Y-122586000D01*
X234734999Y-122652667D01*
X234701666Y-122786000D01*
X234701666Y-123019333D01*
X234734999Y-123152667D01*
X234801666Y-123219333D01*
X234868333Y-123252667D01*
X235001666Y-123252667D01*
X235068333Y-123219333D01*
X235134999Y-123152667D01*
X235168333Y-123019333D01*
X235168333Y-122786000D01*
X235134999Y-122652667D01*
X235068333Y-122586000D01*
X235001666Y-122552667D01*
X234001666Y-123252667D02*
X234235000Y-122919333D01*
X234401666Y-123252667D02*
X234401666Y-122552667D01*
X234135000Y-122552667D01*
X234068333Y-122586000D01*
X234035000Y-122619333D01*
X234001666Y-122686000D01*
X234001666Y-122786000D01*
X234035000Y-122852667D01*
X234068333Y-122886000D01*
X234135000Y-122919333D01*
X234401666Y-122919333D01*
X244421667Y-131728333D02*
X244321667Y-131761667D01*
X244155000Y-131761667D01*
X244088333Y-131728333D01*
X244055000Y-131695000D01*
X244021667Y-131628333D01*
X244021667Y-131561667D01*
X244055000Y-131495000D01*
X244088333Y-131461667D01*
X244155000Y-131428333D01*
X244288333Y-131395000D01*
X244355000Y-131361667D01*
X244388333Y-131328333D01*
X244421667Y-131261667D01*
X244421667Y-131195000D01*
X244388333Y-131128333D01*
X244355000Y-131095000D01*
X244288333Y-131061667D01*
X244121667Y-131061667D01*
X244021667Y-131095000D01*
X243588333Y-131428333D02*
X243588333Y-131761667D01*
X243821666Y-131061667D02*
X243588333Y-131428333D01*
X243355000Y-131061667D01*
X243121666Y-131761667D02*
X243121666Y-131061667D01*
X242721666Y-131761667D01*
X242721666Y-131061667D01*
X241988333Y-131695000D02*
X242021667Y-131728333D01*
X242121667Y-131761667D01*
X242188333Y-131761667D01*
X242288333Y-131728333D01*
X242355000Y-131661667D01*
X242388333Y-131595000D01*
X242421667Y-131461667D01*
X242421667Y-131361667D01*
X242388333Y-131228333D01*
X242355000Y-131161667D01*
X242288333Y-131095000D01*
X242188333Y-131061667D01*
X242121667Y-131061667D01*
X242021667Y-131095000D01*
X241988333Y-131128333D01*
X247595000Y-132617333D02*
X247495000Y-132650667D01*
X247328333Y-132650667D01*
X247261666Y-132617333D01*
X247228333Y-132584000D01*
X247195000Y-132517333D01*
X247195000Y-132450667D01*
X247228333Y-132384000D01*
X247261666Y-132350667D01*
X247328333Y-132317333D01*
X247461666Y-132284000D01*
X247528333Y-132250667D01*
X247561666Y-132217333D01*
X247595000Y-132150667D01*
X247595000Y-132084000D01*
X247561666Y-132017333D01*
X247528333Y-131984000D01*
X247461666Y-131950667D01*
X247295000Y-131950667D01*
X247195000Y-131984000D01*
X246994999Y-131950667D02*
X246594999Y-131950667D01*
X246794999Y-132650667D02*
X246794999Y-131950667D01*
X245961666Y-132650667D02*
X246195000Y-132317333D01*
X246361666Y-132650667D02*
X246361666Y-131950667D01*
X246095000Y-131950667D01*
X246028333Y-131984000D01*
X245995000Y-132017333D01*
X245961666Y-132084000D01*
X245961666Y-132184000D01*
X245995000Y-132250667D01*
X246028333Y-132284000D01*
X246095000Y-132317333D01*
X246361666Y-132317333D01*
X245528333Y-131950667D02*
X245395000Y-131950667D01*
X245328333Y-131984000D01*
X245261666Y-132050667D01*
X245228333Y-132184000D01*
X245228333Y-132417333D01*
X245261666Y-132550667D01*
X245328333Y-132617333D01*
X245395000Y-132650667D01*
X245528333Y-132650667D01*
X245595000Y-132617333D01*
X245661666Y-132550667D01*
X245695000Y-132417333D01*
X245695000Y-132184000D01*
X245661666Y-132050667D01*
X245595000Y-131984000D01*
X245528333Y-131950667D01*
X244695000Y-132284000D02*
X244595000Y-132317333D01*
X244561667Y-132350667D01*
X244528333Y-132417333D01*
X244528333Y-132517333D01*
X244561667Y-132584000D01*
X244595000Y-132617333D01*
X244661667Y-132650667D01*
X244928333Y-132650667D01*
X244928333Y-131950667D01*
X244695000Y-131950667D01*
X244628333Y-131984000D01*
X244595000Y-132017333D01*
X244561667Y-132084000D01*
X244561667Y-132150667D01*
X244595000Y-132217333D01*
X244628333Y-132250667D01*
X244695000Y-132284000D01*
X244928333Y-132284000D01*
X244228333Y-132284000D02*
X243995000Y-132284000D01*
X243895000Y-132650667D02*
X244228333Y-132650667D01*
X244228333Y-131950667D01*
X243895000Y-131950667D01*
X259345000Y-131495000D02*
X258811667Y-131495000D01*
X259078334Y-131761667D02*
X259078334Y-131228333D01*
X258145000Y-131061667D02*
X258478333Y-131061667D01*
X258511667Y-131395000D01*
X258478333Y-131361667D01*
X258411667Y-131328333D01*
X258245000Y-131328333D01*
X258178333Y-131361667D01*
X258145000Y-131395000D01*
X258111667Y-131461667D01*
X258111667Y-131628333D01*
X258145000Y-131695000D01*
X258178333Y-131728333D01*
X258245000Y-131761667D01*
X258411667Y-131761667D01*
X258478333Y-131728333D01*
X258511667Y-131695000D01*
X257911666Y-131061667D02*
X257678333Y-131761667D01*
X257445000Y-131061667D01*
X256604999Y-131950667D02*
X256471666Y-131950667D01*
X256404999Y-131984000D01*
X256338332Y-132050667D01*
X256304999Y-132184000D01*
X256304999Y-132417333D01*
X256338332Y-132550667D01*
X256404999Y-132617333D01*
X256471666Y-132650667D01*
X256604999Y-132650667D01*
X256671666Y-132617333D01*
X256738332Y-132550667D01*
X256771666Y-132417333D01*
X256771666Y-132184000D01*
X256738332Y-132050667D01*
X256671666Y-131984000D01*
X256604999Y-131950667D01*
X256004999Y-131950667D02*
X256004999Y-132517333D01*
X255971666Y-132584000D01*
X255938333Y-132617333D01*
X255871666Y-132650667D01*
X255738333Y-132650667D01*
X255671666Y-132617333D01*
X255638333Y-132584000D01*
X255604999Y-132517333D01*
X255604999Y-131950667D01*
X255371666Y-131950667D02*
X254971666Y-131950667D01*
X255171666Y-132650667D02*
X255171666Y-131950667D01*
X256788333Y-131761667D02*
X256788333Y-131061667D01*
X256621667Y-131061667D01*
X256521667Y-131095000D01*
X256455000Y-131161667D01*
X256421667Y-131228333D01*
X256388333Y-131361667D01*
X256388333Y-131461667D01*
X256421667Y-131595000D01*
X256455000Y-131661667D01*
X256521667Y-131728333D01*
X256621667Y-131761667D01*
X256788333Y-131761667D01*
X256088333Y-131761667D02*
X256088333Y-131061667D01*
X255855000Y-131561667D01*
X255621667Y-131061667D01*
X255621667Y-131761667D01*
X255321667Y-131561667D02*
X254988333Y-131561667D01*
X255388333Y-131761667D02*
X255155000Y-131061667D01*
X254921667Y-131761667D01*
X256955000Y-130941000D02*
X254855000Y-130941000D01*
X254064999Y-131950667D02*
X253931666Y-131950667D01*
X253864999Y-131984000D01*
X253798332Y-132050667D01*
X253764999Y-132184000D01*
X253764999Y-132417333D01*
X253798332Y-132550667D01*
X253864999Y-132617333D01*
X253931666Y-132650667D01*
X254064999Y-132650667D01*
X254131666Y-132617333D01*
X254198332Y-132550667D01*
X254231666Y-132417333D01*
X254231666Y-132184000D01*
X254198332Y-132050667D01*
X254131666Y-131984000D01*
X254064999Y-131950667D01*
X253464999Y-131950667D02*
X253464999Y-132517333D01*
X253431666Y-132584000D01*
X253398333Y-132617333D01*
X253331666Y-132650667D01*
X253198333Y-132650667D01*
X253131666Y-132617333D01*
X253098333Y-132584000D01*
X253064999Y-132517333D01*
X253064999Y-131950667D01*
X252831666Y-131950667D02*
X252431666Y-131950667D01*
X252631666Y-132650667D02*
X252631666Y-131950667D01*
X253998332Y-131761667D02*
X253998332Y-131061667D01*
X253664999Y-131761667D02*
X253664999Y-131061667D01*
X253264999Y-131761667D01*
X253264999Y-131061667D01*
X253031666Y-131061667D02*
X252631666Y-131061667D01*
X252831666Y-131761667D02*
X252831666Y-131061667D01*
X254164999Y-130941000D02*
X252565000Y-130941000D01*
X251591666Y-124141667D02*
X251591666Y-123441667D01*
X251191666Y-124141667D01*
X251191666Y-123441667D01*
X250858333Y-124141667D02*
X250858333Y-123441667D01*
X250625000Y-123941667D01*
X250391667Y-123441667D01*
X250391667Y-124141667D01*
X250058333Y-124141667D02*
X250058333Y-123441667D01*
X251758333Y-123321000D02*
X249891667Y-123321000D01*
X248718333Y-131761667D02*
X248951667Y-131428333D01*
X249118333Y-131761667D02*
X249118333Y-131061667D01*
X248851667Y-131061667D01*
X248785000Y-131095000D01*
X248751667Y-131128333D01*
X248718333Y-131195000D01*
X248718333Y-131295000D01*
X248751667Y-131361667D01*
X248785000Y-131395000D01*
X248851667Y-131428333D01*
X249118333Y-131428333D01*
X248418333Y-131761667D02*
X248418333Y-131061667D01*
X248251667Y-131061667D01*
X248151667Y-131095000D01*
X248085000Y-131161667D01*
X248051667Y-131228333D01*
X248018333Y-131361667D01*
X248018333Y-131461667D01*
X248051667Y-131595000D01*
X248085000Y-131661667D01*
X248151667Y-131728333D01*
X248251667Y-131761667D01*
X248418333Y-131761667D01*
X247585000Y-131428333D02*
X247585000Y-131761667D01*
X247818333Y-131061667D02*
X247585000Y-131428333D01*
X247351667Y-131061667D01*
X241214999Y-132650667D02*
X241448333Y-132317333D01*
X241614999Y-132650667D02*
X241614999Y-131950667D01*
X241348333Y-131950667D01*
X241281666Y-131984000D01*
X241248333Y-132017333D01*
X241214999Y-132084000D01*
X241214999Y-132184000D01*
X241248333Y-132250667D01*
X241281666Y-132284000D01*
X241348333Y-132317333D01*
X241614999Y-132317333D01*
X240414999Y-131917333D02*
X241014999Y-132817333D01*
X240248333Y-131950667D02*
X240081666Y-132650667D01*
X239948333Y-132150667D01*
X239815000Y-132650667D01*
X239648333Y-131950667D01*
X240348333Y-131830000D02*
X239548333Y-131830000D01*
X258978333Y-123475000D02*
X259044999Y-123441667D01*
X259144999Y-123441667D01*
X259244999Y-123475000D01*
X259311666Y-123541667D01*
X259344999Y-123608333D01*
X259378333Y-123741667D01*
X259378333Y-123841667D01*
X259344999Y-123975000D01*
X259311666Y-124041667D01*
X259244999Y-124108333D01*
X259144999Y-124141667D01*
X259078333Y-124141667D01*
X258978333Y-124108333D01*
X258944999Y-124075000D01*
X258944999Y-123841667D01*
X259078333Y-123841667D01*
X258644999Y-124141667D02*
X258644999Y-123441667D01*
X258244999Y-124141667D01*
X258244999Y-123441667D01*
X257911666Y-124141667D02*
X257911666Y-123441667D01*
X257745000Y-123441667D01*
X257645000Y-123475000D01*
X257578333Y-123541667D01*
X257545000Y-123608333D01*
X257511666Y-123741667D01*
X257511666Y-123841667D01*
X257545000Y-123975000D01*
X257578333Y-124041667D01*
X257645000Y-124108333D01*
X257745000Y-124141667D01*
X257911666Y-124141667D01*
X256271666Y-124141667D02*
X256271666Y-123441667D01*
X255938333Y-124141667D02*
X255938333Y-123441667D01*
X255538333Y-124141667D01*
X255538333Y-123441667D01*
X253731666Y-124141667D02*
X253731666Y-123441667D01*
X253398333Y-124141667D02*
X253398333Y-123441667D01*
X252998333Y-124141667D01*
X252998333Y-123441667D01*
X256788333Y-123252667D02*
X256788333Y-122552667D01*
X256621667Y-122552667D01*
X256521667Y-122586000D01*
X256455000Y-122652667D01*
X256421667Y-122719333D01*
X256388333Y-122852667D01*
X256388333Y-122952667D01*
X256421667Y-123086000D01*
X256455000Y-123152667D01*
X256521667Y-123219333D01*
X256621667Y-123252667D01*
X256788333Y-123252667D01*
X256088333Y-123252667D02*
X256088333Y-122552667D01*
X255855000Y-123052667D01*
X255621667Y-122552667D01*
X255621667Y-123252667D01*
X255321667Y-123052667D02*
X254988333Y-123052667D01*
X255388333Y-123252667D02*
X255155000Y-122552667D01*
X254921667Y-123252667D01*
X256955000Y-122432000D02*
X254855000Y-122432000D01*
X253998332Y-123252667D02*
X253998332Y-122552667D01*
X253664999Y-123252667D02*
X253664999Y-122552667D01*
X253264999Y-123252667D01*
X253264999Y-122552667D01*
X253031666Y-122552667D02*
X252631666Y-122552667D01*
X252831666Y-123252667D02*
X252831666Y-122552667D01*
X254164999Y-122432000D02*
X252565000Y-122432000D01*
X251708333Y-131761667D02*
X251708333Y-131061667D01*
X251541667Y-131061667D01*
X251441667Y-131095000D01*
X251375000Y-131161667D01*
X251341667Y-131228333D01*
X251308333Y-131361667D01*
X251308333Y-131461667D01*
X251341667Y-131595000D01*
X251375000Y-131661667D01*
X251441667Y-131728333D01*
X251541667Y-131761667D01*
X251708333Y-131761667D01*
X251008333Y-131761667D02*
X251008333Y-131061667D01*
X250775000Y-131561667D01*
X250541667Y-131061667D01*
X250541667Y-131761667D01*
X250241667Y-131561667D02*
X249908333Y-131561667D01*
X250308333Y-131761667D02*
X250075000Y-131061667D01*
X249841667Y-131761667D01*
X251875000Y-130941000D02*
X249775000Y-130941000D01*
X249001666Y-124141667D02*
X249001666Y-123441667D01*
X248268333Y-124141667D02*
X248501667Y-123808333D01*
X248668333Y-124141667D02*
X248668333Y-123441667D01*
X248401667Y-123441667D01*
X248335000Y-123475000D01*
X248301667Y-123508333D01*
X248268333Y-123575000D01*
X248268333Y-123675000D01*
X248301667Y-123741667D01*
X248335000Y-123775000D01*
X248401667Y-123808333D01*
X248668333Y-123808333D01*
X247501667Y-124208333D02*
X247568333Y-124175000D01*
X247635000Y-124108333D01*
X247735000Y-124008333D01*
X247801667Y-123975000D01*
X247868333Y-123975000D01*
X247835000Y-124141667D02*
X247901667Y-124108333D01*
X247968333Y-124041667D01*
X248001667Y-123908333D01*
X248001667Y-123675000D01*
X247968333Y-123541667D01*
X247901667Y-123475000D01*
X247835000Y-123441667D01*
X247701667Y-123441667D01*
X247635000Y-123475000D01*
X247568333Y-123541667D01*
X247535000Y-123675000D01*
X247535000Y-123908333D01*
X247568333Y-124041667D01*
X247635000Y-124108333D01*
X247701667Y-124141667D01*
X247835000Y-124141667D01*
X249168333Y-123321000D02*
X247401667Y-123321000D01*
X246178333Y-124141667D02*
X246411667Y-123808333D01*
X246578333Y-124141667D02*
X246578333Y-123441667D01*
X246311667Y-123441667D01*
X246245000Y-123475000D01*
X246211667Y-123508333D01*
X246178333Y-123575000D01*
X246178333Y-123675000D01*
X246211667Y-123741667D01*
X246245000Y-123775000D01*
X246311667Y-123808333D01*
X246578333Y-123808333D01*
X245878333Y-123775000D02*
X245645000Y-123775000D01*
X245545000Y-124141667D02*
X245878333Y-124141667D01*
X245878333Y-123441667D01*
X245545000Y-123441667D01*
X245278334Y-124108333D02*
X245178334Y-124141667D01*
X245011667Y-124141667D01*
X244945000Y-124108333D01*
X244911667Y-124075000D01*
X244878334Y-124008333D01*
X244878334Y-123941667D01*
X244911667Y-123875000D01*
X244945000Y-123841667D01*
X245011667Y-123808333D01*
X245145000Y-123775000D01*
X245211667Y-123741667D01*
X245245000Y-123708333D01*
X245278334Y-123641667D01*
X245278334Y-123575000D01*
X245245000Y-123508333D01*
X245211667Y-123475000D01*
X245145000Y-123441667D01*
X244978334Y-123441667D01*
X244878334Y-123475000D01*
X246745000Y-123321000D02*
X244745000Y-123321000D01*
X243938332Y-124141667D02*
X243938332Y-123441667D01*
X243604999Y-124141667D02*
X243604999Y-123441667D01*
X243204999Y-124141667D01*
X243204999Y-123441667D01*
X242871666Y-124141667D02*
X242871666Y-123441667D01*
X242871666Y-123775000D02*
X242471666Y-123775000D01*
X242471666Y-124141667D02*
X242471666Y-123441667D01*
X244104999Y-123321000D02*
X242305000Y-123321000D01*
X241898333Y-123875000D02*
X241365000Y-123875000D01*
X240665000Y-124141667D02*
X241065000Y-124141667D01*
X240865000Y-124141667D02*
X240865000Y-123441667D01*
X240931666Y-123541667D01*
X240998333Y-123608333D01*
X241065000Y-123641667D01*
X240398333Y-123508333D02*
X240364999Y-123475000D01*
X240298333Y-123441667D01*
X240131666Y-123441667D01*
X240064999Y-123475000D01*
X240031666Y-123508333D01*
X239998333Y-123575000D01*
X239998333Y-123641667D01*
X240031666Y-123741667D01*
X240431666Y-124141667D01*
X239998333Y-124141667D01*
X239798332Y-123441667D02*
X239564999Y-124141667D01*
X239331666Y-123441667D01*
X239025000Y-123875000D02*
X238491667Y-123875000D01*
X237825000Y-123441667D02*
X238158333Y-123441667D01*
X238191667Y-123775000D01*
X238158333Y-123741667D01*
X238091667Y-123708333D01*
X237925000Y-123708333D01*
X237858333Y-123741667D01*
X237825000Y-123775000D01*
X237791667Y-123841667D01*
X237791667Y-124008333D01*
X237825000Y-124075000D01*
X237858333Y-124108333D01*
X237925000Y-124141667D01*
X238091667Y-124141667D01*
X238158333Y-124108333D01*
X238191667Y-124075000D01*
X237591666Y-123441667D02*
X237358333Y-124141667D01*
X237125000Y-123441667D01*
X233678333Y-123441667D02*
X233211666Y-123441667D01*
X233511666Y-124141667D01*
X232944999Y-124141667D02*
X232944999Y-123441667D01*
X232711666Y-123941667D01*
X232478333Y-123441667D01*
X232478333Y-124141667D01*
X230571667Y-124208333D02*
X230638333Y-124175000D01*
X230705000Y-124108333D01*
X230805000Y-124008333D01*
X230871667Y-123975000D01*
X230938333Y-123975000D01*
X230905000Y-124141667D02*
X230971667Y-124108333D01*
X231038333Y-124041667D01*
X231071667Y-123908333D01*
X231071667Y-123675000D01*
X231038333Y-123541667D01*
X230971667Y-123475000D01*
X230905000Y-123441667D01*
X230771667Y-123441667D01*
X230705000Y-123475000D01*
X230638333Y-123541667D01*
X230605000Y-123675000D01*
X230605000Y-123908333D01*
X230638333Y-124041667D01*
X230705000Y-124108333D01*
X230771667Y-124141667D01*
X230905000Y-124141667D01*
X230371667Y-123441667D02*
X229938334Y-123441667D01*
X230171667Y-123708333D01*
X230071667Y-123708333D01*
X230005000Y-123741667D01*
X229971667Y-123775000D01*
X229938334Y-123841667D01*
X229938334Y-124008333D01*
X229971667Y-124075000D01*
X230005000Y-124108333D01*
X230071667Y-124141667D01*
X230271667Y-124141667D01*
X230338334Y-124108333D01*
X230371667Y-124075000D01*
X228031667Y-123441667D02*
X228565000Y-124141667D01*
X228365000Y-124141667D02*
X228431667Y-124108333D01*
X228498333Y-124041667D01*
X228531667Y-123908333D01*
X228531667Y-123675000D01*
X228498333Y-123541667D01*
X228431667Y-123475000D01*
X228365000Y-123441667D01*
X228231667Y-123441667D01*
X228165000Y-123475000D01*
X228098333Y-123541667D01*
X228065000Y-123675000D01*
X228065000Y-123908333D01*
X228098333Y-124041667D01*
X228165000Y-124108333D01*
X228231667Y-124141667D01*
X228365000Y-124141667D01*
X227398334Y-124141667D02*
X227798334Y-124141667D01*
X227598334Y-124141667D02*
X227598334Y-123441667D01*
X227665000Y-123541667D01*
X227731667Y-123608333D01*
X227798334Y-123641667D01*
X226958333Y-122552667D02*
X226958333Y-123119333D01*
X226925000Y-123186000D01*
X226891667Y-123219333D01*
X226825000Y-123252667D01*
X226691667Y-123252667D01*
X226625000Y-123219333D01*
X226591667Y-123186000D01*
X226558333Y-123119333D01*
X226558333Y-122552667D01*
X226258334Y-123219333D02*
X226158334Y-123252667D01*
X225991667Y-123252667D01*
X225925000Y-123219333D01*
X225891667Y-123186000D01*
X225858334Y-123119333D01*
X225858334Y-123052667D01*
X225891667Y-122986000D01*
X225925000Y-122952667D01*
X225991667Y-122919333D01*
X226125000Y-122886000D01*
X226191667Y-122852667D01*
X226225000Y-122819333D01*
X226258334Y-122752667D01*
X226258334Y-122686000D01*
X226225000Y-122619333D01*
X226191667Y-122586000D01*
X226125000Y-122552667D01*
X225958334Y-122552667D01*
X225858334Y-122586000D01*
X225558333Y-122886000D02*
X225325000Y-122886000D01*
X225225000Y-123252667D02*
X225558333Y-123252667D01*
X225558333Y-122552667D01*
X225225000Y-122552667D01*
X224525000Y-123252667D02*
X224758334Y-122919333D01*
X224925000Y-123252667D02*
X224925000Y-122552667D01*
X224658334Y-122552667D01*
X224591667Y-122586000D01*
X224558334Y-122619333D01*
X224525000Y-122686000D01*
X224525000Y-122786000D01*
X224558334Y-122852667D01*
X224591667Y-122886000D01*
X224658334Y-122919333D01*
X224925000Y-122919333D01*
X223858334Y-123252667D02*
X224258334Y-123252667D01*
X224058334Y-123252667D02*
X224058334Y-122552667D01*
X224125000Y-122652667D01*
X224191667Y-122719333D01*
X224258334Y-122752667D01*
X227125000Y-122432000D02*
X223725000Y-122432000D01*
X221145000Y-124235333D02*
X221045000Y-124268667D01*
X220878333Y-124268667D01*
X220811666Y-124235333D01*
X220778333Y-124202000D01*
X220745000Y-124135333D01*
X220745000Y-124068667D01*
X220778333Y-124002000D01*
X220811666Y-123968667D01*
X220878333Y-123935333D01*
X221011666Y-123902000D01*
X221078333Y-123868667D01*
X221111666Y-123835333D01*
X221145000Y-123768667D01*
X221145000Y-123702000D01*
X221111666Y-123635333D01*
X221078333Y-123602000D01*
X221011666Y-123568667D01*
X220845000Y-123568667D01*
X220745000Y-123602000D01*
X220444999Y-123902000D02*
X220211666Y-123902000D01*
X220111666Y-124268667D02*
X220444999Y-124268667D01*
X220444999Y-123568667D01*
X220111666Y-123568667D01*
X219478333Y-124268667D02*
X219811666Y-124268667D01*
X219811666Y-123568667D01*
X221144999Y-123252667D02*
X221144999Y-122552667D01*
X220978333Y-122552667D01*
X220878333Y-122586000D01*
X220811666Y-122652667D01*
X220778333Y-122719333D01*
X220744999Y-122852667D01*
X220744999Y-122952667D01*
X220778333Y-123086000D01*
X220811666Y-123152667D01*
X220878333Y-123219333D01*
X220978333Y-123252667D01*
X221144999Y-123252667D01*
X220444999Y-122886000D02*
X220211666Y-122886000D01*
X220111666Y-123252667D02*
X220444999Y-123252667D01*
X220444999Y-122552667D01*
X220111666Y-122552667D01*
X219911666Y-122552667D02*
X219678333Y-123252667D01*
X219445000Y-122552667D01*
X199051666Y-131761667D02*
X199051666Y-131061667D01*
X198585000Y-131061667D02*
X198451667Y-131061667D01*
X198385000Y-131095000D01*
X198318333Y-131161667D01*
X198285000Y-131295000D01*
X198285000Y-131528333D01*
X198318333Y-131661667D01*
X198385000Y-131728333D01*
X198451667Y-131761667D01*
X198585000Y-131761667D01*
X198651667Y-131728333D01*
X198718333Y-131661667D01*
X198751667Y-131528333D01*
X198751667Y-131295000D01*
X198718333Y-131161667D01*
X198651667Y-131095000D01*
X198585000Y-131061667D01*
X198151667Y-131828333D02*
X197618334Y-131828333D01*
X197485001Y-131728333D02*
X197385001Y-131761667D01*
X197218334Y-131761667D01*
X197151667Y-131728333D01*
X197118334Y-131695000D01*
X197085001Y-131628333D01*
X197085001Y-131561667D01*
X197118334Y-131495000D01*
X197151667Y-131461667D01*
X197218334Y-131428333D01*
X197351667Y-131395000D01*
X197418334Y-131361667D01*
X197451667Y-131328333D01*
X197485001Y-131261667D01*
X197485001Y-131195000D01*
X197451667Y-131128333D01*
X197418334Y-131095000D01*
X197351667Y-131061667D01*
X197185001Y-131061667D01*
X197085001Y-131095000D01*
X196785000Y-131395000D02*
X196551667Y-131395000D01*
X196451667Y-131761667D02*
X196785000Y-131761667D01*
X196785000Y-131061667D01*
X196451667Y-131061667D01*
X195818334Y-131761667D02*
X196151667Y-131761667D01*
X196151667Y-131061667D01*
X198718333Y-123875000D02*
X198185000Y-123875000D01*
X198451667Y-124141667D02*
X198451667Y-123608333D01*
X197485000Y-124141667D02*
X197885000Y-124141667D01*
X197685000Y-124141667D02*
X197685000Y-123441667D01*
X197751666Y-123541667D01*
X197818333Y-123608333D01*
X197885000Y-123641667D01*
X197218333Y-123508333D02*
X197184999Y-123475000D01*
X197118333Y-123441667D01*
X196951666Y-123441667D01*
X196884999Y-123475000D01*
X196851666Y-123508333D01*
X196818333Y-123575000D01*
X196818333Y-123641667D01*
X196851666Y-123741667D01*
X197251666Y-124141667D01*
X196818333Y-124141667D01*
X196618332Y-123441667D02*
X196384999Y-124141667D01*
X196151666Y-123441667D01*
X238958334Y-131561667D02*
X238625000Y-131561667D01*
X239025000Y-131761667D02*
X238791667Y-131061667D01*
X238558334Y-131761667D01*
X237958334Y-131761667D02*
X238358334Y-131761667D01*
X238158334Y-131761667D02*
X238158334Y-131061667D01*
X238225000Y-131161667D01*
X238291667Y-131228333D01*
X238358334Y-131261667D01*
X237325000Y-131061667D02*
X237658333Y-131061667D01*
X237691667Y-131395000D01*
X237658333Y-131361667D01*
X237591667Y-131328333D01*
X237425000Y-131328333D01*
X237358333Y-131361667D01*
X237325000Y-131395000D01*
X237291667Y-131461667D01*
X237291667Y-131628333D01*
X237325000Y-131695000D01*
X237358333Y-131728333D01*
X237425000Y-131761667D01*
X237591667Y-131761667D01*
X237658333Y-131728333D01*
X237691667Y-131695000D01*
X202430000Y-131561667D02*
X202096666Y-131561667D01*
X202496666Y-131761667D02*
X202263333Y-131061667D01*
X202030000Y-131761667D01*
X201663333Y-131061667D02*
X201596666Y-131061667D01*
X201530000Y-131095000D01*
X201496666Y-131128333D01*
X201463333Y-131195000D01*
X201430000Y-131328333D01*
X201430000Y-131495000D01*
X201463333Y-131628333D01*
X201496666Y-131695000D01*
X201530000Y-131728333D01*
X201596666Y-131761667D01*
X201663333Y-131761667D01*
X201730000Y-131728333D01*
X201763333Y-131695000D01*
X201796666Y-131628333D01*
X201830000Y-131495000D01*
X201830000Y-131328333D01*
X201796666Y-131195000D01*
X201763333Y-131128333D01*
X201730000Y-131095000D01*
X201663333Y-131061667D01*
X222951667Y-123441667D02*
X223485000Y-124141667D01*
X223285000Y-124141667D02*
X223351667Y-124108333D01*
X223418333Y-124041667D01*
X223451667Y-123908333D01*
X223451667Y-123675000D01*
X223418333Y-123541667D01*
X223351667Y-123475000D01*
X223285000Y-123441667D01*
X223151667Y-123441667D01*
X223085000Y-123475000D01*
X223018333Y-123541667D01*
X222985000Y-123675000D01*
X222985000Y-123908333D01*
X223018333Y-124041667D01*
X223085000Y-124108333D01*
X223151667Y-124141667D01*
X223285000Y-124141667D01*
X222551667Y-123441667D02*
X222485000Y-123441667D01*
X222418334Y-123475000D01*
X222385000Y-123508333D01*
X222351667Y-123575000D01*
X222318334Y-123708333D01*
X222318334Y-123875000D01*
X222351667Y-124008333D01*
X222385000Y-124075000D01*
X222418334Y-124108333D01*
X222485000Y-124141667D01*
X222551667Y-124141667D01*
X222618334Y-124108333D01*
X222651667Y-124075000D01*
X222685000Y-124008333D01*
X222718334Y-123875000D01*
X222718334Y-123708333D01*
X222685000Y-123575000D01*
X222651667Y-123508333D01*
X222618334Y-123475000D01*
X222551667Y-123441667D01*
X218321666Y-124141667D02*
X218321666Y-123441667D01*
X218155000Y-123441667D01*
X218055000Y-123475000D01*
X217988333Y-123541667D01*
X217955000Y-123608333D01*
X217921666Y-123741667D01*
X217921666Y-123841667D01*
X217955000Y-123975000D01*
X217988333Y-124041667D01*
X218055000Y-124108333D01*
X218155000Y-124141667D01*
X218321666Y-124141667D01*
X217688333Y-123441667D02*
X217221666Y-123441667D01*
X217521666Y-124141667D01*
X200541666Y-124141667D02*
X200541666Y-123441667D01*
X200375000Y-123441667D01*
X200275000Y-123475000D01*
X200208333Y-123541667D01*
X200175000Y-123608333D01*
X200141666Y-123741667D01*
X200141666Y-123841667D01*
X200175000Y-123975000D01*
X200208333Y-124041667D01*
X200275000Y-124108333D01*
X200375000Y-124141667D01*
X200541666Y-124141667D01*
X199708333Y-123441667D02*
X199641666Y-123441667D01*
X199575000Y-123475000D01*
X199541666Y-123508333D01*
X199508333Y-123575000D01*
X199475000Y-123708333D01*
X199475000Y-123875000D01*
X199508333Y-124008333D01*
X199541666Y-124075000D01*
X199575000Y-124108333D01*
X199641666Y-124141667D01*
X199708333Y-124141667D01*
X199775000Y-124108333D01*
X199808333Y-124075000D01*
X199841666Y-124008333D01*
X199875000Y-123875000D01*
X199875000Y-123708333D01*
X199841666Y-123575000D01*
X199808333Y-123508333D01*
X199775000Y-123475000D01*
X199708333Y-123441667D01*
M02*
